<?xml version="1.0" encoding="utf-8"?>
<!-- Generator: Adobe Illustrator 27.0.1, SVG Export Plug-In . SVG Version: 6.00 Build 0)  -->
<svg version="1.1" xmlns="http://www.w3.org/2000/svg" xmlns:xlink="http://www.w3.org/1999/xlink" x="0px" y="0px"
	 viewBox="0 0 335.3 530" style="enable-background:new 0 0 335.3 530;" xml:space="preserve">
<style type="text/css">
	.st0{display:none;}
	.st1{display:inline;}
	.st2{fill:#010202;}
	.st3{fill:none;}
	.st4{font-family:'SHBDA23V1';}
	.st5{font-size:488px;}
</style>
<g id="E_00000051360959627468142820000017544460044616440767_" class="st0">
	<g class="st1">
		<path d="M334.5,439.2H68.9V89.4h261.6V154H145.8v75h169.5v59.8H145.8v85.7h188.6V439.2z"/>
	</g>
</g>
<g id="C" class="st0">
	<g class="st1">
		<path d="M354.7,207.3H282c-5.3-33.9-37.8-59.8-74.6-59.8c-67.4,0-92.8,57.4-92.8,117.1c0,56.9,25.3,114.3,92.8,114.3
			c45.9,0,71.7-31.1,77.5-76.5h72.7c-7.6,85.6-66,139.6-150.1,139.6c-105.2,0-167.8-78.9-167.8-177.4
			c0-101.4,62.6-180.3,167.8-180.3C282,84.5,345.6,128.5,354.7,207.3z"/>
	</g>
</g>
<g id="N_x5F_3" class="st0">
	<polygon class="st1" points="97.1,88.7 55.3,242.5 126.1,242.5 135.9,200.7 136.9,200.7 195.8,439.5 267.6,440 361.4,90.6 
		292.6,89.6 232.2,328 231.2,328 174.7,89.2 	"/>
	<polygon class="st1" points="129.7,88.9 53,88.4 52,239.8 51.5,304.6 50.6,438.8 127.2,439.3 	"/>
</g>
<g id="A" class="st0">
	<path class="st1" d="M285.9,321.8c0-9.8-1-20.6-2.9-32.4c-2-12.3-6.4-23.1-13.7-33.4c-6.9-10.3-17.2-19.1-30.4-26
		c-13.3-6.9-31.4-10.3-54-10.3c-12.8,0-25,1.5-36.8,5.4c-11.8,3.4-22.6,8.8-31.9,16.2c-9.3,7.9-16.7,17.2-22.6,29
		c-5.4,11.8-8.3,26-8.3,42.7v126.2h60.4V325.8c0-7.4,0.5-14.2,1.5-20.6c1.5-5.9,3.4-11.3,5.9-15.7c2.9-4.4,6.9-7.9,11.8-10.3
		c4.9-2.5,11.3-3.9,19.1-3.9c8.8,0,15.7,1.5,20.6,4.9c4.9,2.9,8.3,6.9,10.3,11.8c2,4.9,3.4,10.3,3.9,16.2c0.5,5.9,0.5,11.3,0.5,16.7
		v114.4h66.8V321.8z"/>
	<polygon class="st1" points="285.8,439.2 341.8,439.2 342.3,155.9 342.3,89.1 90.9,89.1 90.9,155.9 285.8,155.9 	"/>
	<polygon class="st1" points="101.4,439.1 157.2,439.1 157.7,155.9 157.7,89.3 53.9,89.3 53.9,155.9 101.4,155.9 	"/>
</g>
<g id="N_00000054254949360326627830000005329152182886584764_" class="st0">
	<g class="st1">
		<path d="M271.6,438.8V153.5H101V88.8h247.5v349.9H271.6z"/>
	</g>
	<path class="st1" d="M45,382.4c10.1,0,18-1.8,23.5-5.4c5.6-3.6,9.6-8.2,12-14c2.5-5.7,3.9-11.9,4.4-18.6c0.5-6.7,0.7-13.1,0.7-19.4
		V88.8h76.9v239.7c0,11.4-1.1,24-3.4,37.7c-2.3,13.7-7.5,26.5-15.7,38.5c-8.2,11.9-19.9,21.9-35.3,29.9c-15.4,8-36.1,12-62.2,12
		L45,382.4z"/>
</g>
<g id="e" class="st0">
	<g class="st1">
		<path d="M157.4,435.7c-14-2.3-27-7.7-39.2-16c-12.2-8.3-22.3-20.3-30.4-35.9c-8.2-15.6-12.2-36.8-12.2-63.4
			c0-15,2.1-29.4,6.2-43.4c4.2-14,10.6-26.5,19.5-37.4c8.8-11,20.1-19.8,33.9-26.5c13.8-6.7,30.5-12.3,50.2-12.3h30.9v76.8h-16
			c-8.7,0-16.6,0.7-24,2c-7.3,1.3-13.6,3.7-18.7,7c-5.2,3.3-9.2,7.9-12.2,13.7c-3,5.8-4.5,13.4-4.5,22.7c0,10.3,1.8,14.7,5.5,20.4
			c3.7,5.7,8.4,9.7,14.2,12.2c5.8,2.5,12.1,4,19,4.5c6.8,0.5,13.4,0.7,19.7,0.7h163.8v78.4H195.8C184.2,439.2,171.4,438,157.4,435.7
			"/>
	</g>
	<polygon class="st1" points="182.9,199.7 296,199.7 296,167.8 159.2,167.8 159.2,89.4 362.1,89.4 362.4,276.9 182.9,278.1 	"/>
	<g class="st1">
		<path d="M123.5,48.5l-0.4,78.9l-87.8-0.6l-0.4,53.4c12.3-0.3,24.2,0.7,35.7,3c11.5,2.2,21.7,6.1,30.9,11.7
			c9.1,5.6,16.8,12.8,23.1,21.9c6.3,9,10.3,20.2,12.2,33.5l56.4,0.4l0-201.7L123.5,48.5z"/>
	</g>
</g>
<g id="T" class="st0">
	<g class="st1">
		<path d="M230.7,439.2h-76.9V154H48.9V89.4h286.6V154H230.7V439.2z"/>
	</g>
</g>
<g id="N_00000127748963548567887910000006918738376549339794_" class="st0">
	<g class="st1">
		<path d="M116.8,439.2h-72V89.4h76.4l146,234.7h1V89.4h72v349.9h-76.9L117.7,205h-1V439.2z"/>
	</g>
</g>
<g id="I" class="st0">
	<g class="st1">
		<path d="M147,439.1H70.2V89.5H147V439.1z"/>
	</g>
</g>
<g id="A1" class="st0">
	<path class="st1" d="M174.1,89.6H353v64h-13.4v117.8h0.2v64H174.1v-64h111.7V153.6H174.1V89.6z"/>
	<path class="st1" d="M289.2,148.4h64v237.2H383v53.8h-93.7V148.4z"/>
	<path class="st1" d="M224.8,209.5c-14.2,23.3-26,48.1-35.5,74.5c-9.5,26.3-16.8,53-22,79.9c-5.2,27-7.9,52.1-8.2,75.5h-76
		c4-52.3,16.2-102.6,36.7-150.9c20.5-48.3,47.4-92.6,80.7-132.9H34.6v-66h238.8v61C255.2,166.6,238.9,186.2,224.8,209.5z"/>
	<rect x="351.9" y="89.6" class="st2" width="112.1" height="64"/>
	<polygon class="st2" points="353.2,152.3 339,152.3 339,335.4 464.9,335.4 464.9,271.4 353.2,271.4 	"/>
	<rect x="382.9" y="385.6" class="st2" width="111.9" height="53.8"/>
</g>
<g id="M" class="st0">
	<path class="st1" d="M225,242.5l41.8-154.1l78,0.5l56.9,238.8l1,0l60.8-238l76.5,0.5l-39.4,108.7l-1,0l-61.3,241l-72.1-0.4
		l-59.4-238.8l-1,0l-10,41.6L225,242.5z"/>
	<path class="st1" d="M168.1,143.1l154-0.1l0.1,77l-89.8,0.1l0.4,218.8L33.4,439l-0.1-77l134.4-0.1L168.1,143.1z"/>
	<path class="st1" d="M575.3,89.8l0.2,284.7l60.3,0l0,64.8l-137.4,0.1l-0.2-349.5L575.3,89.8z"/>
	<rect x="136.8" y="358.8" class="st2" width="151" height="77"/>
	<rect x="226.4" y="139.8" class="st2" width="61.4" height="77"/>
	<rect x="-62.9" y="140.1" class="st2" width="135.3" height="77"/>
	<polygon class="st2" points="129.2,241.8 114.4,293.4 113.4,293.4 55.7,88 -20.1,88 74.5,439.8 151.3,439.8 200.1,241.8 	"/>
	<rect x="539.9" y="374.2" class="st2" width="110.7" height="64.8"/>
</g>
<g id="R">
	<g class="st0">
		<path class="st1" d="M113.2,438.9H16.7v-56.1h30.6V135.3h65.9V438.9z"/>
	</g>
	<g class="st0">
		<path class="st1" d="M316.3,317.6v211.8h-55.4v-146H16.8v-65.9H316.3z"/>
	</g>
	<g>
		<path d="M47.4,89.5c21.8,0,42.2,3.4,61,10.1c18.9,6.7,35.3,16.4,49.3,28.9c14,12.6,25,28,32.9,46.4c8,18.3,12,38.9,12,61.9
			c0,18.5-2.8,35.4-8.4,50.8c-5.6,15.4-13.7,28.8-24.3,40.3c-10.6,11.5-23.5,20.7-38.6,27.7c-15.1,7-32,11.3-50.8,13v-63.8
			c20.1-2.5,36.4-9.4,48.7-20.8c12.3-11.3,18.5-27.1,18.5-47.2c0-14.8-2.9-27.4-8.6-37.8c-5.7-10.3-13.4-18.7-22.9-25.2
			c-9.5-6.4-20.2-11.1-32.1-14.1c-11.9-2.9-24.1-4.4-36.7-4.4"/>
	</g>
</g>
<g id="O_00000083778567647030904660000008843847121500168630_" class="st0">
	<g class="st1">
		<path d="M31.3,265.3c0-100.4,62.1-178.6,166.3-178.6c104.2,0,166.3,78.2,166.3,178.6c0,97.6-62.1,175.8-166.3,175.8
			C93.4,441,31.3,362.9,31.3,265.3z M105.7,265.3c0,56.4,25.1,113.2,91.9,113.2s91.9-56.8,91.9-113.2c0-59.2-25.1-116.1-91.9-116.1
			S105.7,206.1,105.7,265.3z"/>
	</g>
</g>
<g id="F" class="st0">
	<path class="st1" d="M98.6,439.1c0-18,2.9-33.5,10.7-46.7c6.8-12.2,16.5-23.3,28.2-31.1c11.7-7.8,25.3-13.6,39.9-17.5
		c14.6-3.9,30.1-5.8,70-5.8v-81.2c-52,0-76.3,3.9-99.7,12.2c-23.3,8.8-44.2,19.9-61.7,36c-17.5,16.5-31.1,35-41.3,57.4
		c-9.7,22.8-14.1,48.6-14.1,76.8H98.6z"/>
	<polygon class="st1" points="248.4,89.5 145.9,89.5 145.9,369.5 200.3,369.5 200.3,154.1 248.4,154.1 	"/>
	<polygon class="st1" points="68.5,438.9 200.2,438.9 200.2,158.9 145.8,158.9 145.8,374.2 68.5,374.2 	"/>
</g>
<g id="N" class="st0">
	<g>
		<path class="st1" d="M105,285l9.6,41.4h1L176,89.5h71.7l59.5,239.8h1l57-239.8h75.1l-93.6,348.1h-76l-59-236.9h-1l-58,236.9H75.1
			L34.5,284.2L105,285z"/>
	</g>
	<polygon class="st2" points="111.7,88.8 36.3,88.8 89.3,286.1 158.7,286.1 	"/>
	<path class="st1" d="M159.2,285.7l9.7,41.7h1l60.8-238.2h72l59.8,241.1h1l57.3-241.1h75.5l-94.1,349.9h-76.4L266.4,201h-1
		l-58.3,238.2h-77.9L88.4,284.9L159.2,285.7z"/>
</g>
<g id="E" class="st0">
	<g class="st1">
		<path d="M307.7,438.8h-265V89.7h261.1v64.5H119.4V229h169.2v59.7H119.4v85.6h188.3V438.8z"/>
	</g>
</g>
<g id="P" class="st0">
	<polygon points="388.9,88.6 313.1,88.6 313.1,263.5 188.4,263.5 188.4,327.3 388.9,327.3 	"/>
	<polygon points="188.4,327 264.2,327 264.2,152.1 388.9,152.1 388.9,88.4 188.4,88.4 	"/>
	<path class="st1" d="M149,442.5c102.9,0,115-72.5,115-116.9V205.2h-75.9c0,96.6,0,116.9,0,116.9c0,24.6,0,56.5-40.1,56.5
		c-35.8,0-44-24.2-44-57.5v-15.5H35.5v30C35.5,411.1,91.5,442.5,149,442.5z"/>
</g>
<g id="O" class="st0">
	<g>
		<path class="st1" d="M265.7,186.1c-4.4-7-9.8-13.1-16.3-18.4c-6.5-5.3-13.9-9.4-22.1-12.4c-8.2-3-16.9-4.4-25.9-4.4
			c-16.5,0-30.5,3.2-42,9.6c-11.5,6.4-20.8,14.9-28,25.6c-7.2,10.7-12.4,22.9-15.6,36.6c-3.3,13.7-4.9,27.8-4.9,42.4
			c0,14,1.6,27.6,4.9,40.8c3.3,13.2,8.5,25.1,15.6,35.7c7.1,10.6,16.5,19,28,25.4c11.5,6.4,25.5,9.6,42,9.6
			c22.4,0,39.9-6.8,52.5-20.5c12.6-13.7,20.3-31.7,23.1-54.1h70.9c-1.9,20.8-6.7,39.6-14.5,56.4c-7.8,16.8-18,31.1-30.8,42.9
			c-12.8,11.8-27.7,20.8-44.8,27c-17.1,6.2-35.9,9.3-56.4,9.3c-25.5,0-48.4-4.4-68.8-13.3c-20.4-8.9-37.5-21.1-51.5-36.6
			C67,372.3,56.3,354,48.9,333c-7.5-21-11.2-43.6-11.2-67.8c0-24.9,3.7-47.9,11.2-69.2c7.5-21.3,18.2-39.9,32.2-55.7
			c14-15.9,32.3-28.3,52.7-37.3c20.4-9,42.1-13.5,67.6-13.5c18.3,0,35.7,2.6,52,7.9c16.3,5.3,30.9,13,43.8,23.1
			c12.9,10.1,23.5,22.6,31.9,37.5c8.4,14.9,13.7,32,15.9,51.3h-70.9C272.8,200.8,270,193.1,265.7,186.1z"/>
	</g>
	<g class="st1">
		<path d="M348.5,209.3h-70.9c2.2-19.3,7.5-36.4,15.9-51.3c8.4-14.9,19-27.4,31.9-37.5c12.9-10.1,27.5-17.8,43.8-23.1
			c16.3-5.3,33.7-7.9,52-7.9c25.5,0,47.3,4.5,67.6,13.5c20.4,9,38.7,21.4,52.7,37.3c14,15.9,24.7,34.4,32.2,55.7
			c7.5,21.3,11.2,44.4,11.2,69.2c0,24.2-3.7,46.9-11.2,67.8c-7.5,21-18.2,39.2-32.2,54.8c-14,15.5-31.2,27.7-51.5,36.6
			c-20.4,8.9-43.3,13.3-68.8,13.3c-20.5,0-39.3-3.1-56.4-9.3c-17.1-6.2-32-15.2-44.8-27c-12.7-11.8-23-26.1-30.8-42.9
			c-7.8-16.8-12.6-35.6-14.5-56.4h70.9c2.8,22.4,10.5,40.4,23.1,54.1c12.6,13.7,30.1,20.5,52.5,20.5c16.5,0,30.5-3.2,42-9.6
			c11.5-6.4,20.8-14.8,28-25.4c7.2-10.6,12.4-22.5,15.6-35.7c3.3-13.2,4.9-26.8,4.9-40.8c0-14.6-1.6-28.7-4.9-42.4
			c-3.3-13.7-8.5-25.9-15.6-36.6c-7.1-10.7-16.5-19.3-28-25.6c-11.5-6.4-25.5-9.6-42-9.6c-9,0-17.6,1.5-25.9,4.4
			c-8.2,3-15.6,7.1-22.1,12.4c-6.5,5.3-12,11.4-16.3,18.4C352.6,193.2,349.8,200.9,348.5,209.3z"/>
	</g>
</g>
<g id="Hilfslinien">
	<rect x="-1068.1" y="89.2" class="st3" width="1072.7" height="583.4"/>
	<text transform="matrix(1 0 0 1 -1068.0902 437.637)" class="st4 st5">FOR</text>
</g>
</svg>
