<?xml version="1.0" encoding="utf-8"?>
<!-- Generator: Adobe Illustrator 27.0.1, SVG Export Plug-In . SVG Version: 6.00 Build 0)  -->
<svg version="1.1" id="Ebene_1" xmlns="http://www.w3.org/2000/svg" xmlns:xlink="http://www.w3.org/1999/xlink" x="0px" y="0px"
	 viewBox="0 0 800 800" style="enable-background:new 0 0 800 800;" xml:space="preserve">
<style type="text/css">
	.st0{display:none;}
	.st1{display:none;fill:#010202;}
	.st2{fill:#010202;}
</style>
<path class="st0" d="M366.3,228.8h175.6v62.8h-13.2v115.6h0.2V470H366.3v-62.8h109.6V291.6H366.3V228.8z"/>
<path class="st0" d="M479.3,286.5h62.8v232.8h29.2v52.8h-92V286.5z"/>
<path class="st0" d="M416,346.5c-13.9,22.9-25.5,47.2-34.8,73.1c-9.3,25.8-16.5,52-21.6,78.5c-5.1,26.5-7.8,51.2-8.1,74.1H277
	c3.9-51.3,15.9-100.7,36-148.1c20.1-47.4,46.5-90.9,79.2-130.5H229.4v-64.7h234.4v59.8C445.8,304.3,429.9,323.6,416,346.5z"/>
<rect x="540.8" y="228.8" class="st1" width="110" height="62.8"/>
<polygon class="st2" points="542.1,290.3 528.1,290.3 528.1,470 651.7,470 651.7,407.2 542.1,407.2 "/>
<rect x="571.2" y="519.3" class="st1" width="109.8" height="52.8"/>
</svg>
