<?xml version="1.0" encoding="utf-8"?>
<!-- Generator: Adobe Illustrator 27.0.1, SVG Export Plug-In . SVG Version: 6.00 Build 0)  -->
<svg version="1.1" xmlns="http://www.w3.org/2000/svg" xmlns:xlink="http://www.w3.org/1999/xlink" x="0px" y="0px"
	 viewBox="0 0 550 593" style="enable-background:new 0 0 550 593;" xml:space="preserve">
<style type="text/css">
	.st0{display:none;}
</style>
<g id="_x5F_V1">
	<g id="E_00000051360959627468142820000017544460044616440767_">
	</g>
	<g id="C">
	</g>
	<g id="N_x5F_3">
	</g>
	<g id="A">
	</g>
	<g id="N_00000054254949360326627830000005329152182886584764_">
	</g>
	<g id="e">
	</g>
	<g id="T">
	</g>
	<g id="N_00000127748963548567887910000006918738376549339794_">
	</g>
	<g id="I">
	</g>
	<g id="A1">
	</g>
	<g id="M">
	</g>
	<g id="R">
	</g>
	<g id="O_00000083778567647030904660000008843847121500168630_">
	</g>
	<g id="F">
	</g>
	<g id="N">
	</g>
	<g id="E">
	</g>
	<g id="P">
	</g>
	<g id="O">
	</g>
</g>
<g id="Ebene_20">
	<text transform="matrix(1 0 0 1 3024.9529 3054.1274)"><tspan x="0" y="0" style="fill:#E30613; font-family:'SH-Maintenance-V2'; font-size:490px; letter-spacing:-19;">M</tspan><tspan x="604.7" y="0" style="fill:#E30613; font-family:'SH-Maintenance-V2'; font-size:490px;">A</tspan><tspan x="965.8" y="0" style="fill:#E30613; font-family:'SH-Maintenance-V2'; font-size:490px; letter-spacing:-19;">I</tspan><tspan x="1090.7" y="0" style="fill:#E30613; font-family:'SH-Maintenance-V2'; font-size:490px;">NTENANCE</tspan></text>
	<rect x="186.1" y="2709.1" style="fill:none;" width="1722.6" height="412.6"/>
	<text transform="matrix(1 0 0 1 186.1093 3058.9829)"><tspan x="0" y="0" style="fill:#E30613; font-family:'SH-Maintenance-V2'; font-size:490px;">OPEN</tspan><tspan x="1660.1" y="0" style="fill:#E30613; font-family:'SH-Maintenance-V2'; font-size:485px; letter-spacing:-9;"> </tspan></text>
	<text transform="matrix(1 0 0 1 1916.1039 3068.6006)"><tspan x="0" y="0" style="fill:#E30613; font-family:'SH-Maintenance-V2'; font-size:490px; letter-spacing:-19;">F</tspan><tspan x="252.8" y="0" style="fill:#E30613; font-family:'SH-Maintenance-V2'; font-size:490px;">OR</tspan></text>
</g>
<g id="Hilfslinien">
	<rect x="-9.8" y="2164.3" style="fill:none;" width="7398.2" height="466.4"/>
	<text transform="matrix(1 0 0 1 -9.834 2513.4492)"><tspan x="0" y="0" style="fill:#E30613; font-family:'SH-Maintenance-V2'; font-size:489px; letter-spacing:-19;">WE</tspan><tspan x="739.4" y="0" style="fill:#E30613; font-family:'SH-Maintenance-V2'; font-size:489px; letter-spacing:-29;">G</tspan><tspan x="1081.2" y="0" style="fill:#E30613; font-family:'SH-Maintenance-V2'; font-size:489px; letter-spacing:-9;">E</tspan><tspan x="1468.4" y="0" style="fill:#E30613; font-family:'SH-Maintenance-V2'; font-size:489px;">N </tspan><tspan x="1939.8" y="0" style="fill:#E30613; font-family:'SH-Maintenance-V2'; font-size:489px; letter-spacing:9;">U</tspan><tspan x="2312" y="0" style="fill:#E30613; font-family:'SH-Maintenance-V2'; font-size:489px; letter-spacing:-9;">M</tspan><tspan x="2736.9" y="0" style="fill:#E30613; font-family:'SH-Maintenance-V2'; font-size:489px;">B</tspan><tspan x="3081.2" y="0" style="fill:#E30613; font-family:'SH-Maintenance-V2'; font-size:489px; letter-spacing:-19;">A</tspan><tspan x="3439.1" y="0" style="fill:#E30613; font-family:'SH-Maintenance-V2'; font-size:489px;">U </tspan><tspan x="3910" y="0" style="fill:#E30613; font-family:'SH-Maintenance-V2'; font-size:489px; letter-spacing:-29;">G</tspan><tspan x="4268.4" y="0" style="fill:#E30613; font-family:'SH-Maintenance-V2'; font-size:489px;">E</tspan><tspan x="4585.3" y="0" style="fill:#E30613; font-family:'SH-Maintenance-V2'; font-size:489px; letter-spacing:-39;">Ö</tspan><tspan x="4926.6" y="0" style="fill:#E30613; font-family:'SH-Maintenance-V2'; font-size:489px;">FFNET</tspan></text>
</g>
<g id="T_00000151528559115874515910000005984389023753216649_">
	<path d="M13222,452.2V102.4h76.9v349.8H13222z"/>
	<path d="M13152.4,102.4h146.5c94.6,0,140.6,55.9,140.6,149.4h-64.7c0-54.9-23.5-72.5-75.9-72.5h-146.5V102.4z"/>
</g>
<g id="E_00000150082740960534394650000001756674408269680310_">
	<path d="M13033.2,452.1V156.4h-63.8v295.6H13033.2z"/>
	<path d="M12910.9,353.3h140.9c0,0,13.3-74.6,23.6-132.1h-61.9l-11.8,74.6h-90.8V353.3z"/>
	<path d="M12969.4,452.1h140.9c0,0,13.3-74.6,23.6-132.1h-61.9l-11.8,74.6h-90.8V452.1z"/>
	<path d="M13064.7,186.3h60.9c-7.9-43.7-15.2-84.5-15.2-84.5h-140.9v57.5h90.8L13064.7,186.3z"/>
</g>
<g id="N_00000099632580371903072950000016892054108610634910_">
	<path d="M12793.2,451.9l93.9-349.3h-69l-60.2,237.7h-1l-56.3-237.7h-77.3l-41.6,152.6h70.4l9.8-41.6h1l58.7,237.7L12793.2,451.9z"
		/>
	<rect x="12576" y="102.6" width="76.8" height="349.3"/>
</g>
<g id="F_00000114769032895886322120000014247326199313495697_">
	<path d="M12383.7,451.9h-76.8V102.7h245.5v64.5h-168.7V248h146.2v59.7h-146.2V451.9z"/>
</g>
<g id="F_00000173141720675959051990000004486108456543280518_">
	<path d="M12094.8,451.6h132.8V169.3h-54.9v217.1h-77.9V451.6z"/>
	<path d="M12126.8,451.7c0-18,2.9-33.6,10.7-46.8c6.8-12.2,16.6-23.4,28.3-31.2c11.7-7.8,25.4-13.7,40-17.6
		c14.6-3.9,30.2-5.9,70.2-5.9v-81.4c-52.2,0-76.6,3.9-100,12.2c-23.4,8.8-44.4,20-61.9,36.1c-17.6,16.6-31.2,35.1-41.4,57.5
		c-9.8,22.9-14.1,48.8-14.1,77H12126.8z"/>
	<polygon points="12276.1,100.7 12172.7,100.7 12172.7,383 12227.6,383 12227.6,165.8 12276.1,165.8 	"/>
</g>
<g id="Ö">
	<path d="M11711.4,269.5c0-103.7,64.1-184.4,171.6-184.4c107.6,0,171.6,80.7,171.6,184.4c0,100.7-64.1,181.4-171.6,181.4
		C11775.5,450.9,11711.4,370.2,11711.4,269.5z M11788.2,269.5c0,58.2,25.9,116.9,94.9,116.9c68.9,0,94.9-58.7,94.9-116.9
		c0-61.1-25.9-119.8-94.9-119.8C11814.1,149.7,11788.2,208.4,11788.2,269.5z M11849.8,239.7v-57.2h66v57.2H11849.8z M11849.8,326.7
		v-57.2h66v57.2H11849.8z"/>
</g>
<g id="E_00000056408675155028286430000005814045595369560991_">
	<path d="M11682.4,452.2h-265V103.1h261.1v64.5h-184.4v74.8h169.2v59.7h-169.2v85.6h188.3V452.2z"/>
</g>
<g id="G_00000142136150640176763200000005464168929300255362_">
	<path d="M11040,367.5h76.4V178.3l98-1.5l-1.5-75h-174L11040,367.5z M11040,451.8l267.6-0.5v-63.2l-190.1,1l-1-98l-75,1.5
		L11040,451.8z M11207.6,451.3h101c10.8-7.4,23-15.2,33.8-22.5c11.8-8.3,21.1-17.2,30.9-26.5c8.3-8.3,15.2-18.6,21.6-32.3
		c4.4-11.8,8.3-26,8.3-42.6c0-16.7-3.9-30.9-9.3-44.6c-6.4-12.7-14.7-23.5-25.5-32.3c-10.8-8.8-23-16.2-36.8-21.1
		c-13.2-4.9-28.9-6.9-43.1-6.9c-20.6,0-37.7,3.4-53.9,10.8c-15.2,6.4-28.9,16.2-37.7,27.9c-10.8,12.7-18.1,27-23,43.1
		c-5.9,17.2-8.3,35.3-6.9,53.9h64.2c0-9.8,1.5-17.6,3.4-27.4c1.5-9.3,3.4-16.7,8.8-25c2.9-7.4,9.3-13.2,16.2-17.6
		c6.4-5.4,14.7-7.4,25.5-7.4c14.2,0,26,4.9,35.8,14.7c9.3,7.8,14.2,21.1,14.2,36.8c0,10.3-2.5,20.1-6.9,27
		c-5.4,8.3-10.8,15.7-17.2,21.6c-6.9,7.4-15.2,12.3-22.5,18.1c-8.3,4.9-16.7,10.8-24,15.7
		C11250.8,423.3,11220.4,442.9,11207.6,451.3z"/>
</g>
<g id="U_00000122691519521168774280000013841469757125651126_">
	<path d="M10885.3,463.6c-102.4-1.5-114.8-74.7-114.8-119.8v-242h77.7v238.5c0,24.3,0,55.9,37.1,57.9V463.6z"/>
	<path d="M10607.2,101.9h77.7v238.5c0,25.2,0,57.9,41.1,57.9c36.6,0,45-24.7,45-58.9v-15.8h70.3v30.7c0,77.2-57.4,109.4-116.3,109.4
		c-105.4,0-117.8-74.2-117.8-119.8V101.9z"/>
</g>
<g id="A_00000004505667569094896160000014532079075801900974_">
	<path d="M10451.7,203.9l-3,70.3l30,6.9v1l-247.3,61v75.2l121.9,33.4l15.2-61l-22.1-9.3v-1l244.4-61v-78.2L10451.7,203.9z"/>
	<polygon points="10276.2,430.6 10353.9,451.7 10359.8,451.7 10418.3,212.8 10419.3,212.8 10478.8,451.7 10555.5,451.7 
		10590.9,319.5 10522.5,317.5 10516.6,342.6 10515.6,342.6 10455.6,101.1 10383.4,101.1 10322.4,339.6 10321.4,339.6 	"/>
</g>
<g id="B">
	<path d="M9912.8,453.3V104.2h164.3c66.5,0,111.5,21.5,111.5,86.6c0,34.7-16.6,57.7-47.4,72.9c43,12.2,64.1,45,64.1,88.5
		c0,70.9-60.1,101.2-123.2,101.2H9912.8z M10061.5,163.8h-71.9v81.7h77.8c27.4,0,46.9-12.2,46.9-41.6
		C10114.3,171.2,10088.8,163.8,10061.5,163.8z M9989.6,393.7h82.2c29.8,0,56.7-9.8,56.7-46c0-35.7-22-49.9-55.3-49.9h-83.6V393.7z"
		/>
</g>
<g id="M_00000134250281029563310950000003257287664879667615_">
	<path d="M9655.6,335.1h75.5c-12.8-20.6-144.7-232.9-144.7-232.9h-77v350.1h72.1V217.4h1C9582.5,217.4,9619.3,276.2,9655.6,335.1z"
		/>
	<path d="M9731.6,335.1c36.3-58.8,73.1-117.7,73.1-117.7h1v234.9h72.1V102.2h-77c0,0-131.9,212.3-144.7,232.9H9731.6z"/>
</g>
<g id="U">
	<path d="M9459.6,453h-247.3v-64.6h170.4v-285h76.9V453z M9165.3,453V103.4h76.9v285h170.4V453H9165.3z"/>
</g>
<g id="N_00000154425763484525918430000008508601231558086807_">
	<path d="M8914.8,451.5l93.9-349.3h-69l-60.2,237.7h-1l-56.3-237.7H8745l-41.6,152.6h70.4l9.8-41.6h1l58.7,237.7L8914.8,451.5z"/>
	<rect x="8697.6" y="102.2" width="76.8" height="349.3"/>
</g>
<g id="E_00000165205204584183719570000002201050886193303485_">
	<path d="M8383.8,279.2h-64.3c0-107.2,80.4-171.1,180.8-171.1v76.5C8442.2,184.7,8383.8,210.5,8383.8,279.2z"/>
	<path d="M8491.7,379.1c0-68.7-58.5-94.5-116.5-94.5v-76.5c100.4,0,180.8,63.8,180.8,171.1H8491.7z"/>
	<polygon points="8668.6,371.8 8668.6,450.3 8497.6,450.3 8492.7,371.8 	"/>
	<path d="M8383.8,279.2c0,68.7,58.5,94.5,116.5,94.5v76.5c-100.4,0-180.8-63.8-180.8-171.1H8383.8z"/>
	<path d="M8349.4,84.8V2.4c26.8,0,53.1,4.9,76.5,12.7c23.4,8.8,43.4,20,60.9,36.1s31.2,34.6,40.9,57.5
		c10.2,22.9,15.1,49.2,15.1,76.5h-69.2c0-18-3.4-32.7-10.2-45.8c-7.3-13.2-16.6-23.4-28.3-32.2c-11.7-7.8-25.8-13.6-40-18
		C8379.6,85.7,8365,84.8,8349.4,84.8z"/>
</g>
<g id="G">
	<path d="M8303.7,452.8h-48.9l-7.8-39.6c-27.4,35.2-62.1,47.9-95.8,47.9c-107.6,0-171.6-80.7-171.6-181.4
		c0-103.7,64.1-184.4,171.6-184.4c71.4,0,139.4,43.5,147.2,123.2H8225c-9.3-39.1-37.2-58.7-73.8-58.7c-68.9,0-94.9,58.7-94.9,119.8
		c0,58.2,25.9,116.9,94.9,116.9c50.4,0,78.7-26.4,83.1-75.3H8157v-57.2h146.7V452.8z"/>
</g>
<g id="E_00000005963599347184841430000018193220976272044449_">
	<path d="M7964,452.5h-265V103.4h261.1v64.5h-184.4v74.8h169.2v59.7h-169.2V388H7964V452.5z"/>
</g>
<g id="W">
	<path d="M7432.6,217.6c-36.3,58.9-73.1,117.7-73.1,117.7h-1v-235h-72.1v350.3h77c0,0,132-212.4,144.7-233H7432.6z M7508.6,217.6
		h-75.5c12.8,20.6,144.7,233,144.7,233h77V100.3h-72.1v235h-1C7581.7,335.3,7544.9,276.4,7508.6,217.6z"/>
</g>
<g id="E_00000113322483045279252990000013609696148037364875_">
	<path d="M6337.3,279.7h-64.9c0-108.1,81.1-172.5,182.4-172.5v77.2C6396.3,184.4,6337.3,210.4,6337.3,279.7z"/>
	<path d="M6448.9,380.5c0-69.3-59-95.4-117.5-95.4V208c101.3,0,182.4,64.4,182.4,172.5H6448.9z"/>
	<polygon points="6627.3,373.1 6627.3,452.3 6454.8,452.3 6449.9,373.1 	"/>
	<path d="M6337.3,279.7c0,69.3,59,95.4,117.5,95.4v77.2c-101.3,0-182.4-64.4-182.4-172.5H6337.3z"/>
	<path d="M6305.4,83.6V0.5c27,0,53.6,4.9,77.2,12.8c23.6,8.8,43.7,20.2,61.4,36.4c17.7,16.2,31.5,34.9,41.3,58
		c10.3,23.1,15.2,49.6,15.2,77.2h-69.8c0-18.2-3.4-32.9-10.3-46.2c-7.4-13.3-16.7-23.6-28.5-32.4c-11.8-7.9-26.1-13.8-40.3-18.2
		C6335.9,84.6,6321.1,83.6,6305.4,83.6z"/>
</g>
<g id="C_00000112622374827432275670000003417328206733987971_">
	<path d="M6243.2,219.4h-74.5c-5.4-34.8-38.7-61.3-76.4-61.3c-69.1,0-95.1,58.8-95.1,120.1c0,58.3,26,117.1,95.1,117.1
		c47,0,73.5-31.9,79.4-78.4h74.5c-7.8,87.7-67.6,143.1-153.9,143.1c-107.8,0-172-80.9-172-181.8c0-103.9,64.2-184.7,172-184.7
		C6168.7,93.4,6233.9,138.5,6243.2,219.4z"/>
</g>
<g id="N_00000117657359395406629260000008490405748572120458_">
	<path d="M5607.9,452.3h76.9V102.6h-76.9V452.3z"/>
	<polygon points="5825.8,452.3 5919.4,102.6 5850.8,102.6 5790.6,340.6 5789.6,340.6 5733.3,102.6 5655.9,102.6 5614.3,255.4 
		5684.8,255.4 5694.6,213.8 5695.6,213.8 5754.8,452.3 	"/>
</g>
<g id="A_00000070819818803741320060000005539798163125646774_">
	<path d="M5425.7,203.9l-3,70.3l30,6.9v1l-247.3,61v75.2l121.9,33.4l15.2-61l-22.1-9.3v-1l244.4-61v-78.2L5425.7,203.9z"/>
	<polygon points="5250.2,430.6 5327.9,451.7 5333.8,451.7 5392.3,212.8 5393.3,212.8 5452.8,451.7 5529.5,451.7 5564.9,319.5 
		5496.5,317.5 5490.6,342.6 5489.6,342.6 5429.6,101.1 5357.4,101.1 5296.4,339.6 5295.4,339.6 	"/>
</g>
<g id="N_00000129165096651451788460000006894638935768142516_">
	<path d="M4949.5,452.3h-72V102.4h76.4l146,234.7h1V102.4h72v349.9H5096L4950.5,218h-1V452.3z"/>
</g>
<g id="E_00000096737436898591806260000014476501128100374183_">
	<path d="M4730.2,452.3V156.6h-63.8v295.6H4730.2z"/>
	<path d="M4607.9,353.5h140.9c0,0,13.3-74.6,23.6-132.1h-61.9l-11.8,74.6h-90.8V353.5z"/>
	<path d="M4666.3,452.3h140.9c0,0,13.3-74.6,23.6-132.1H4769l-11.8,74.6h-90.8V452.3z"/>
	<path d="M4761.6,186.5h60.9c-7.9-43.7-15.2-84.5-15.2-84.5h-140.9v57.5h90.8L4761.6,186.5z"/>
</g>
<g id="T_00000040572434587172107020000003403572265167091088_">
	<path d="M4365.4,452.1h65.4V179.8h208.9V102h-274.3V452.1z"/>
	<polygon points="4460.1,452.3 4551.6,102 4485.7,102 4424.8,340.7 4424.3,340.7 4393.1,452.1 	"/>
</g>
<g id="N_00000162323512888102647520000008162614129556769983_">
	<rect x="4238.2" y="102.4" width="76.8" height="349.2"/>
	<path d="M3973.2,451.6h77.8l92.9-263.1h1l90.5,263.1h79.7l-130.6-349.2h-78.7L3973.2,451.6z"/>
</g>
<g id="I_00000075868811598525912980000008971315367424001668_">
	
		<text transform="matrix(1 0 0 1 3829.8547 451.5713)" style="font-family:'SH-Maintenance-V2'; font-size:490px; letter-spacing:-19;">I</text>
</g>
<g id="A_00000047767008426511249760000015642639169606536113_">
	<polygon points="3735.6,451.6 3829.3,451.6 3829.3,398.1 3799.4,398.1 3799.4,161.6 3735.6,161.6 	"/>
	<polygon points="3621.3,348.1 3786.1,348.1 3786.1,167 3799.4,167 3799.4,103.3 3621.3,103.3 3621.3,167 3732.7,167 3732.7,284.3 
		3621.3,284.3 	"/>
	<path d="M3530.5,451.6h75.6c0.5-23.1,3.4-48.1,8.3-75.1c5.4-27,12.8-53.5,22.1-80c9.3-26,21.1-50.5,35.3-74.1
		c14.2-23.1,30.4-42.7,48.6-58.4v-60.8h-238V169h165.4c-33.4,40.2-60.4,84.4-80.5,132.5C3546.7,349.6,3534.4,399.6,3530.5,451.6z"/>
</g>
<g id="M_00000030454837118209363920000004010763359709145015_">
	<path d="M3205,158.9h-153.8l0.5,216.7h-133.3v76.6h197.7l-0.5-217.2h89.3V158.9z"/>
	<polygon points="3455.9,103.7 3379.8,103.7 3379.8,452.3 3515.9,452.3 3515.9,388.3 3455.9,388.3 	"/>
	<polygon points="3227,103.7 3149.9,103.7 3108.4,256.5 3178.7,256 3188.9,215 3189.9,215 3248.5,452.3 3319.7,452.3 3380.7,213.1 
		3381.7,213.1 3421.2,103.7 3345.6,103.7 3284.6,341 3283.6,341 	"/>
</g>
<g id="R_00000005247159732225481780000017538744411482086332_">
	<path d="M2520.7,179.2v-77c45.1,0,119.2,12.3,119.2,116.7c0,58.4-31.9,115.2-108.4,115.2h-30.4v-69.6h15.7
		c33.8,0,58.4-8.3,58.4-44.6C2575.1,179.2,2542.8,179.2,2520.7,179.2z"/>
	<polygon points="2447.1,452.3 2447.1,102.2 2524.1,102.2 2524.1,452.3 	"/>
	<path d="M2635.4,592.6h-70.6c18.1-74,53.9-143.7,103-203H2505v-64.7h234.4v59.8C2685.5,431.7,2650.6,515.1,2635.4,592.6z"/>
</g>
<g id="O_00000139989076900347810750000014339682335261473418_">
	<g>
		<path d="M2081.9,278.6c0-103.9,64.2-184.7,172-184.7c107.8,0,172,80.9,172,184.7c0,100.9-64.2,181.8-172,181.8
			C2146.1,460.4,2081.9,379.6,2081.9,278.6z M2158.8,278.6c0,58.3,26,117.1,95.1,117.1c69.1,0,95.1-58.8,95.1-117.1
			c0-61.3-26-120.1-95.1-120.1C2184.8,158.6,2158.8,217.4,2158.8,278.6z"/>
	</g>
</g>
<g id="F_00000112611114215638550990000001535627271961867692_">
	<path d="M1882.5,452.3h132.8V170h-54.9v217.1h-77.9V452.3z"/>
	<path d="M1914.5,452.5c0-18,2.9-33.6,10.7-46.8c6.8-12.2,16.6-23.4,28.3-31.2c11.7-7.8,25.4-13.7,40-17.6
		c14.6-3.9,30.2-5.9,70.2-5.9v-81.4c-52.2,0-76.6,3.9-100,12.2c-23.4,8.8-44.4,20-61.9,36.1c-17.6,16.6-31.2,35.1-41.4,57.5
		c-9.8,22.9-14.1,48.8-14.1,77H1914.5z"/>
	<polygon points="2063.8,101.4 1960.4,101.4 1960.4,383.7 2015.3,383.7 2015.3,166.6 2063.8,166.6 	"/>
</g>
<g id="N_00000099642370421911350830000011672063677233731245_">
	<path d="M1312,298.6l9.7,41.7h1l60.8-238.2h72l59.8,241.1h1l57.3-241.1h75.5L1555,452h-76.5l-59.3-238.2h-1L1359.9,452H1282
		l-40.8-154.3L1312,298.6z"/>
</g>
<g id="E_00000111172922047511655530000000589010560551726259_">
	<path d="M1229.5,452H963.9V102.1h261.7v64.7h-184.7v75h169.5v59.8h-169.5v85.8h188.7V452z"/>
</g>
<g id="P_00000129171892025599386490000003898456772564684721_">
	<path d="M676.4,461.2c104.6,0,116.8-73.6,116.8-118.8V220.2h-77.1c0,98.2,0,118.8,0,118.8c0,25,0,57.4-40.7,57.4
		c-36.3,0-44.7-24.5-44.7-58.4v-15.7H561v30.4C561,429.3,618,461.2,676.4,461.2z"/>
	<polygon points="716.1,344.9 793.2,344.9 793.2,167.1 919.9,167.1 919.9,102.3 716.1,102.3 	"/>
	<path d="M919.9,112.3h-77.1v177.7H716.1v64.8h203.7V112.3z"/>
</g>
<g id="O_00000039126086928192479570000000753659908774239892_">
	<polygon class="st0" points="531.2,103 454.4,103 454.4,387.5 284.2,387.5 284.2,452.1 531.2,452.1 	"/>
	<polygon points="455.4,103 101.9,103 101.9,349.9 170.8,349.9 170.8,179.7 455.4,179.7 	"/>
	<polygon class="st0" points="106.3,103 29.5,103 29.5,452.1 300.9,452.1 300.9,387.5 106.3,387.5 	"/>
</g>
</svg>
