<?xml version="1.0" encoding="utf-8"?>
<!-- Generator: Adobe Illustrator 27.0.1, SVG Export Plug-In . SVG Version: 6.00 Build 0)  -->
<svg version="1.1" xmlns="http://www.w3.org/2000/svg" xmlns:xlink="http://www.w3.org/1999/xlink" x="0px" y="0px"
	 viewBox="0 0 552.7 530" style="enable-background:new 0 0 552.7 530;" xml:space="preserve">
<style type="text/css">
	.st0{display:none;}
	.st1{fill:#010202;}
	.st2{display:inline;fill:#010202;}
	.st3{display:inline;}
</style>
<g id="A1" class="st0">
	<path d="M241.3,78h175.6v62.8h-13.2v115.6h0.2v62.8H241.3v-62.8h109.6V140.8H241.3V78z"/>
	<path d="M354.3,135.6h62.8v232.8h29.2v52.8h-92V135.6z"/>
	<path d="M291,195.7c-13.9,22.9-25.5,47.2-34.8,73.1c-9.3,25.8-16.5,52-21.6,78.5c-5.1,26.5-7.8,51.2-8.1,74.1H152
		c3.9-51.3,15.9-100.7,36-148.1c20.1-47.4,46.5-90.9,79.2-130.5H104.4V78h234.4v59.8C320.8,153.5,304.9,172.8,291,195.7z"/>
	<rect x="415.8" y="77.9" class="st1" width="110" height="62.8"/>
	<polygon class="st1" points="417.1,139.5 403.2,139.5 403.2,319.2 526.7,319.2 526.7,256.4 417.1,256.4 	"/>
	<rect x="446.3" y="368.4" class="st2" width="109.8" height="52.8"/>
</g>
<g id="M" class="st0">
	<path class="st3" d="M153.2,230l41.3-152.3l77.1,0.5l56.2,236l1,0l60.1-235.2l75.6,0.5l-39,107.4l-1,0L364,424.9l-71.3-0.4
		l-58.7-236l-1,0l-9.8,41.2L153.2,230z"/>
	<path class="st3" d="M96.9,129.2l152.2-0.1l0.1,76.1l-88.7,0.1l0.4,216.2l-197.1,0.1l-0.1-76.1l132.8-0.1L96.9,129.2z"/>
	<path class="st3" d="M499.3,79.1l0.2,281.4l59.6,0l0,64l-135.7,0.1l-0.2-345.4L499.3,79.1z"/>
	<rect x="160.7" y="345.2" class="st2" width="149.2" height="76.1"/>
	<rect x="249.2" y="128.8" class="st2" width="60.6" height="76.1"/>
	<rect x="-36.7" y="129.2" class="st2" width="133.7" height="76.1"/>
	<polygon class="st2" points="153.2,229.6 138.5,280.5 137.6,280.5 80.6,77.6 5.6,77.6 99.1,425.3 175,425.3 223.2,229.6 	"/>
	<rect x="559" y="360.4" class="st2" width="109.4" height="64"/>
</g>
<g id="O">
	<g>
		<path d="M230.3,186.3c-4.4-7-9.8-13.2-16.4-18.5c-6.6-5.3-14-9.4-22.2-12.4c-8.3-3-16.9-4.4-26-4.4c-16.5,0-30.6,3.2-42.1,9.6
			c-11.5,6.4-20.9,15-28.1,25.7c-7.2,10.8-12.4,23-15.7,36.7c-3.3,13.7-4.9,27.9-4.9,42.6c0,14,1.6,27.7,4.9,41
			c3.3,13.3,8.5,25.2,15.7,35.8c7.2,10.6,16.5,19.1,28.1,25.5c11.5,6.4,25.6,9.6,42.1,9.6c22.5,0,40-6.9,52.7-20.6
			c12.6-13.7,20.4-31.8,23.2-54.3h71.2c-1.9,20.9-6.7,39.8-14.5,56.6c-7.8,16.9-18.1,31.2-30.9,43.1c-12.8,11.9-27.8,20.9-44.9,27.2
			c-17.2,6.2-36,9.4-56.6,9.4c-25.6,0-48.6-4.4-69-13.3c-20.4-8.9-37.7-21.1-51.7-36.7c-14-15.6-24.8-33.9-32.3-55
			C5.1,312.7,1.4,290,1.4,265.6c0-25,3.7-48.1,11.2-69.5c7.5-21.4,18.3-40,32.3-55.9c14-15.9,32.5-28.4,52.9-37.4
			c20.4-9,42.3-13.6,67.9-13.6c18.4,0,35.8,2.7,52.2,8c16.4,5.3,31,13,44,23.2c12.9,10.1,23.6,22.7,32.1,37.7
			c8.4,15,13.7,32.1,15.9,51.5h-71.2C237.5,201,234.7,193.3,230.3,186.3z"/>
	</g>
	<g>
		<path d="M313.5,209.5h-71.2c2.2-19.3,7.5-36.5,15.9-51.5c8.4-15,19.1-27.5,32.1-37.7c13-10.1,27.6-17.9,44-23.2
			c16.4-5.3,33.8-8,52.2-8c25.6,0,47.4,4.5,67.9,13.6c20.4,9.1,38.9,21.5,52.9,37.4c14,15.9,24.8,34.6,32.3,55.9
			c7.5,21.4,11.2,44.6,11.2,69.5c0,24.3-3.7,47-11.2,68.1c-7.5,21.1-18.3,39.4-32.3,55c-14,15.6-31.3,27.9-51.7,36.7
			c-20.4,8.9-43.5,13.3-69,13.3c-20.6,0-39.5-3.1-56.6-9.4c-17.2-6.2-32.1-15.3-44.9-27.2c-12.8-11.9-23.1-26.2-30.9-43.1
			c-7.8-16.9-12.6-35.7-14.5-56.6h71.2c2.8,22.5,10.5,40.6,23.2,54.3c12.6,13.7,30.2,20.6,52.7,20.6c16.5,0,30.6-3.2,42.1-9.6
			c11.5-6.4,20.9-14.9,28.1-25.5c7.2-10.6,12.4-22.5,15.7-35.8c3.3-13.3,4.9-26.9,4.9-41c0-14.7-1.6-28.9-4.9-42.6
			c-3.3-13.7-8.5-26-15.7-36.7c-7.2-10.8-16.5-19.3-28.1-25.7c-11.5-6.4-25.6-9.6-42.1-9.6c-9,0-17.7,1.5-26,4.4
			c-8.3,3-15.7,7.1-22.2,12.4c-6.6,5.3-12,11.5-16.4,18.5C317.5,193.3,314.7,201,313.5,209.5z"/>
	</g>
</g>
<g id="Hilfslinien">
</g>
</svg>
