<?xml version="1.0" encoding="utf-8"?>
<!-- Generator: Adobe Illustrator 27.0.1, SVG Export Plug-In . SVG Version: 6.00 Build 0)  -->
<svg version="1.1" xmlns="http://www.w3.org/2000/svg" xmlns:xlink="http://www.w3.org/1999/xlink" x="0px" y="0px"
	 viewBox="0 0 312.1 593" style="enable-background:new 0 0 312.1 593;" xml:space="preserve">
<style type="text/css">
	.st0{fill:none;}
	.st1{fill:#E30613;}
	.st2{font-family:'SH-Maintenance-V2';}
	.st3{font-size:489px;}
	.st4{letter-spacing:-19;}
	.st5{letter-spacing:-29;}
	.st6{letter-spacing:-9;}
	.st7{letter-spacing:9;}
	.st8{letter-spacing:-39;}
	.st9{display:none;}
	.st10{display:inline;}
</style>
<g id="_x5F_V1">
	<g id="E_00000051360959627468142820000017544460044616440767_">
	</g>
	<g id="C">
	</g>
	<g id="N_x5F_3">
	</g>
	<g id="A">
	</g>
	<g id="N_00000054254949360326627830000005329152182886584764_">
	</g>
	<g id="e">
	</g>
	<g id="T">
	</g>
	<g id="N_00000127748963548567887910000006918738376549339794_">
	</g>
	<g id="I">
	</g>
	<g id="A1">
	</g>
	<g id="M">
	</g>
	<g id="R">
	</g>
	<g id="O_00000083778567647030904660000008843847121500168630_">
	</g>
	<g id="F">
	</g>
	<g id="N">
	</g>
	<g id="E">
	</g>
	<g id="P">
	</g>
	<g id="O">
	</g>
</g>
<g id="Ebene_20">
	<text transform="matrix(1 0 0 1 -7582.5283 1054.6337)"><tspan x="0" y="0" class="st1 st2 st4" style="font-size:490px;">M</tspan><tspan x="604.7" y="0" class="st1 st2" style="font-size:490px;">A</tspan><tspan x="965.8" y="0" class="st1 st2 st4" style="font-size:490px;">I</tspan><tspan x="1090.7" y="0" class="st1 st2" style="font-size:490px;">NTENANCE</tspan></text>
	<rect x="-10620.9" y="709.6" class="st0" width="1722.6" height="412.6"/>
	<text transform="matrix(1 0 0 1 -10620.9404 1059.489)"><tspan x="0" y="0" class="st1 st2" style="font-size:490px;">OPEN</tspan><tspan x="1660.1" y="0" class="st1 st2 st6" style="font-size:485px;"> </tspan></text>
	<text transform="matrix(1 0 0 1 -8784.9453 1069.1068)"><tspan x="0" y="0" class="st1 st2 st4" style="font-size:490px;">F</tspan><tspan x="252.8" y="0" class="st1 st2" style="font-size:490px;">O</tspan><tspan x="634.1" y="0" class="st1 st2" style="font-size:490px; letter-spacing:-167;"> </tspan><tspan x="602.7" y="0" class="st1 st2" style="font-size:490px;">R</tspan></text>
</g>
<g id="Hilfslinien">
	<rect x="-3330.4" y="682.7" class="st0" width="7398.2" height="466.4"/>
	<text transform="matrix(1 0 0 1 -3330.377 1031.8804)"><tspan x="0" y="0" class="st1 st2 st3 st4">WE</tspan><tspan x="739.4" y="0" class="st1 st2 st3 st5">G</tspan><tspan x="1081.2" y="0" class="st1 st2 st3 st6">E</tspan><tspan x="1468.4" y="0" class="st1 st2 st3">N </tspan><tspan x="1939.8" y="0" class="st1 st2 st3 st7">U</tspan><tspan x="2312" y="0" class="st1 st2 st3 st6">M</tspan><tspan x="2736.9" y="0" class="st1 st2 st3">B</tspan><tspan x="3081.2" y="0" class="st1 st2 st3 st4">A</tspan><tspan x="3439.1" y="0" class="st1 st2 st3">U </tspan><tspan x="3910" y="0" class="st1 st2 st3 st5">G</tspan><tspan x="4268.4" y="0" class="st1 st2 st3">E</tspan><tspan x="4585.3" y="0" class="st1 st2 st3 st8">Ö</tspan><tspan x="4926.6" y="0" class="st1 st2 st3">FFNET</tspan></text>
</g>
<g id="T_00000151528559115874515910000005984389023753216649_" class="st9">
	<path class="st10" d="M2623,452.2V102.4h76.9v349.8H2623z"/>
	<path class="st10" d="M2553.4,102.4h146.5c94.6,0,140.6,55.9,140.6,149.4h-64.7c0-54.9-23.5-72.5-75.9-72.5h-146.5V102.4z"/>
</g>
<g id="E_00000150082740960534394650000001756674408269680310_" class="st9">
	<path class="st10" d="M2434.2,452.1V156.4h-63.8v295.6H2434.2z"/>
	<path class="st10" d="M2311.9,353.3h140.9c0,0,13.3-74.6,23.6-132.1h-61.9l-11.8,74.6h-90.8V353.3z"/>
	<path class="st10" d="M2370.4,452.1h140.9c0,0,13.3-74.6,23.6-132.1H2473l-11.8,74.6h-90.8V452.1z"/>
	<path class="st10" d="M2465.6,186.3h60.9c-7.9-43.7-15.2-84.5-15.2-84.5h-140.9v57.5h90.8L2465.6,186.3z"/>
</g>
<g id="N_00000099632580371903072950000016892054108610634910_" class="st9">
	<path class="st10" d="M2194.2,451.9l93.9-349.3h-69L2159,340.4h-1l-56.3-237.7h-77.3l-41.6,152.6h70.4l9.8-41.6h1l58.7,237.7
		L2194.2,451.9z"/>
	<rect x="1977" y="102.6" class="st10" width="76.8" height="349.3"/>
</g>
<g id="F_00000114769032895886322120000014247326199313495697_" class="st9">
	<path class="st10" d="M1784.7,451.9h-76.8V102.7h245.5v64.5h-168.7V248h146.2v59.7h-146.2V451.9z"/>
</g>
<g id="F_00000173141720675959051990000004486108456543280518_" class="st9">
	<path class="st10" d="M1498.4,451.6h132.8V169.3h-54.9v217.1h-77.9V451.6z"/>
	<path class="st10" d="M1530.4,451.7c0-18,2.9-33.6,10.7-46.8c6.8-12.2,16.6-23.4,28.3-31.2c11.7-7.8,25.4-13.7,40-17.6
		c14.6-3.9,30.2-5.9,70.2-5.9v-81.4c-52.2,0-76.6,3.9-100,12.2c-23.4,8.8-44.4,20-61.9,36.1c-17.6,16.6-31.2,35.1-41.4,57.5
		c-9.8,22.9-14.1,48.8-14.1,77H1530.4z"/>
	<polygon class="st10" points="1679.7,100.7 1576.3,100.7 1576.3,383 1631.2,383 1631.2,165.8 1679.7,165.8 	"/>
</g>
<g id="Ö" class="st9">
	<path class="st10" d="M1116.4,278.8c0-103.7,64.1-184.4,171.6-184.4c107.6,0,171.6,80.7,171.6,184.4
		c0,100.7-64.1,181.4-171.6,181.4C1180.5,460.2,1116.4,379.5,1116.4,278.8z M1193.2,278.8c0,58.2,25.9,116.9,94.9,116.9
		c68.9,0,94.9-58.7,94.9-116.9c0-61.1-25.9-119.8-94.9-119.8C1219.1,159,1193.2,217.6,1193.2,278.8z"/>
	<rect x="1254.8" y="191.7" class="st10" width="66" height="57.2"/>
	<rect x="1254.8" y="278.8" class="st10" width="66" height="57.2"/>
</g>
<g id="E_00000056408675155028286430000005814045595369560991_" class="st9">
	<path class="st10" d="M1087.4,452.2h-265V103.1h261.1v64.5H899.1v74.8h169.2v59.7H899.1v85.6h188.3V452.2z"/>
</g>
<g id="G_00000142136150640176763200000005464168929300255362_" class="st9">
	<polygon class="st10" points="445,368 521.5,368 521.5,178.8 619.5,177.3 618,102.4 444,102.4 	"/>
	<polygon class="st10" points="445,452.2 712.6,451.8 712.6,388.5 522.5,389.5 521.5,291.5 446.5,293 	"/>
	<path class="st10" d="M612.6,451.8h101c10.8-7.4,23-15.2,33.8-22.5c11.8-8.3,21.1-17.2,30.9-26.5c8.3-8.3,15.2-18.6,21.6-32.3
		c4.4-11.8,8.3-26,8.3-42.6c0-16.7-3.9-30.9-9.3-44.6c-6.4-12.7-14.7-23.5-25.5-32.3c-10.8-8.8-23-16.2-36.8-21.1
		c-13.2-4.9-28.9-6.9-43.1-6.9c-20.6,0-37.7,3.4-53.9,10.8c-15.2,6.4-28.9,16.2-37.7,27.9c-10.8,12.7-18.1,27-23,43.1
		c-5.9,17.2-8.3,35.3-6.9,53.9h64.2c0-9.8,1.5-17.6,3.4-27.4c1.5-9.3,3.4-16.7,8.8-25c2.9-7.4,9.3-13.2,16.2-17.6
		c6.4-5.4,14.7-7.4,25.5-7.4c14.2,0,26,4.9,35.8,14.7c9.3,7.8,14.2,21.1,14.2,36.8c0,10.3-2.5,20.1-6.9,27
		c-5.4,8.3-10.8,15.7-17.2,21.6c-6.9,7.4-15.2,12.3-22.5,18.1c-8.3,4.9-16.7,10.8-24,15.7C655.8,423.8,625.4,443.4,612.6,451.8z"/>
</g>
<g id="U_00000122691519521168774280000013841469757125651126_">
	<path d="M290.3,463.6c-102.4-1.5-114.8-74.7-114.8-119.8v-242h77.7v238.5c0,24.3,0,55.9,37.1,57.9V463.6z"/>
	<path class="st9" d="M12.2,101.9h77.7v238.5c0,25.2,0,57.9,41.1,57.9c36.6,0,45-24.7,45-58.9v-15.8h70.3v30.7
		c0,77.2-57.4,109.4-116.3,109.4c-105.4,0-117.8-74.2-117.8-119.8V101.9z"/>
</g>
<g id="A_00000004505667569094896160000014532079075801900974_" class="st9">
	<path class="st10" d="M-143.3,203.9l-3,70.3l30,6.9v1l-247.3,61v75.2l121.9,33.4l15.2-61l-22.1-9.3v-1l244.4-61v-78.2L-143.3,203.9
		z"/>
	<polygon class="st10" points="-318.8,430.6 -241.1,451.7 -235.2,451.7 -176.7,212.8 -175.7,212.8 -116.2,451.7 -39.5,451.7 
		-4.1,319.5 -72.5,317.5 -78.4,337.1 -79.4,337.1 -139.4,101.1 -211.6,101.1 -272.6,339.6 -273.6,339.6 	"/>
</g>
<g id="B" class="st9">
	<path class="st10" d="M-682.2,452.2V103.1h164.3c66.5,0,111.5,21.5,111.5,86.6c0,34.7-16.6,57.7-47.4,72.9
		c43,12.2,64.1,45,64.1,88.5c0,70.9-60.1,101.2-123.2,101.2H-682.2z M-533.5,162.8h-71.9v81.7h77.8c27.4,0,46.9-12.2,46.9-41.6
		C-480.7,170.1-506.2,162.8-533.5,162.8z M-605.4,392.6h82.2c29.8,0,56.7-9.8,56.7-46c0-35.7-22-49.9-55.3-49.9h-83.6V392.6z"/>
</g>
<g id="M_00000134250281029563310950000003257287664879667615_" class="st9">
	<path class="st10" d="M-939.4,335.1h75.5c-12.8-20.6-144.7-232.9-144.7-232.9h-77v350.1h72.1V217.4h1
		C-1012.5,217.4-975.7,276.2-939.4,335.1z"/>
	<path class="st10" d="M-863.4,335.1c36.3-58.8,73.1-117.7,73.1-117.7h1v234.9h72.1V102.1h-77c0,0-131.9,212.3-144.7,232.9H-863.4z"
		/>
</g>
<g id="U" class="st9">
	<path class="st10" d="M-1135.4,452.2h-247.3v-64.6h170.4v-285h76.9V452.2z M-1429.7,452.2V102.6h76.9v285h170.4v64.6H-1429.7z"/>
</g>
<g id="N_00000154425763484525918430000008508601231558086807_" class="st9">
	<path class="st10" d="M-1680.2,452.2l93.9-349.3h-69l-60.2,237.7h-1l-56.3-237.7h-77.3l-41.6,152.6h70.4l9.8-41.6h1l58.7,237.7
		L-1680.2,452.2z"/>
	<rect x="-1897.4" y="103" class="st10" width="76.8" height="349.3"/>
</g>
<g id="E_00000165205204584183719570000002201050886193303485_" class="st9">
	<path class="st10" d="M-2211.2,281.2h-64.3c0-107.2,80.4-171.1,180.8-171.1v76.5C-2152.8,186.6-2211.2,212.5-2211.2,281.2z"/>
	<path class="st10" d="M-2103.3,381.1c0-68.7-58.5-94.5-116.5-94.5V210c100.4,0,180.8,63.8,180.8,171.1H-2103.3z"/>
	<polygon class="st10" points="-1926.4,373.8 -1926.4,452.2 -2097.4,452.2 -2102.3,373.8 	"/>
	<path class="st10" d="M-2211.2,281.2c0,68.7,58.5,94.5,116.5,94.5v76.5c-100.4,0-180.8-63.8-180.8-171.1H-2211.2z"/>
	<path class="st10" d="M-2245.6,86.7V4.4c26.8,0,53.1,4.9,76.5,12.7c23.4,8.8,43.4,20,60.9,36.1c17.5,16.1,31.2,34.6,40.9,57.5
		c10.2,22.9,15.1,49.2,15.1,76.5h-69.2c0-18-3.4-32.7-10.2-45.8c-7.3-13.2-16.6-23.4-28.3-32.2c-11.7-7.8-25.8-13.6-40-18
		C-2215.4,87.7-2230,86.7-2245.6,86.7z"/>
</g>
<g id="G" class="st9">
	<path class="st10" d="M-2291.3,452.8h-48.9l-7.8-39.6c-27.4,35.2-62.1,47.9-95.8,47.9c-107.6,0-171.6-80.7-171.6-181.4
		c0-103.7,64.1-184.4,171.6-184.4c71.4,0,139.4,43.5,147.2,123.2h-73.4c-9.3-39.1-37.2-58.7-73.8-58.7c-68.9,0-94.9,58.7-94.9,119.8
		c0,58.2,25.9,116.9,94.9,116.9c50.4,0,78.7-26.4,83.1-75.3h-77.3v-57.2h146.7V452.8z"/>
</g>
<g id="E_00000005963599347184841430000018193220976272044449_" class="st9">
	<path class="st10" d="M-2631,452.2h-265V103.1h261.1v64.5h-184.4v74.8h169.2v59.7h-169.2v85.6h188.3V452.2z"/>
</g>
<g id="W" class="st9">
	<path class="st10" d="M-3162.4,219.2c-36.3,58.9-73.1,117.7-73.1,117.7h-1V102h-72.1v350.3h77c0,0,132-212.4,144.7-233H-3162.4z
		 M-3086.4,219.2h-75.5c12.8,20.6,144.7,233,144.7,233h77V102h-72.1v235h-1C-3013.3,337-3050.1,278.1-3086.4,219.2z"/>
</g>
<g id="E_00000113322483045279252990000013609696148037364875_" class="st9">
	<path class="st10" d="M-4091.4,279.7h-64.9c0-108.1,81.1-172.5,182.4-172.5v77.2C-4032.4,184.4-4091.4,210.4-4091.4,279.7z"/>
	<path class="st10" d="M-3979.9,380.5c0-69.3-59-95.4-117.5-95.4V208c101.3,0,182.4,64.4,182.4,172.5H-3979.9z"/>
	<polygon class="st10" points="-3801.4,373.1 -3801.4,452.2 -3974,452.2 -3978.9,373.1 	"/>
	<path class="st10" d="M-4091.4,279.7c0,69.3,59,95.4,117.5,95.4v77.2c-101.3,0-182.4-64.4-182.4-172.5H-4091.4z"/>
	<path class="st10" d="M-4123.4,83.6V0.5c27,0,53.6,4.9,77.2,12.8c23.6,8.8,43.7,20.2,61.4,36.4s31.5,34.9,41.3,58
		c10.3,23.1,15.2,49.6,15.2,77.2h-69.8c0-18.2-3.4-32.9-10.3-46.2c-7.4-13.3-16.7-23.6-28.5-32.4c-11.8-7.9-26.1-13.8-40.3-18.2
		C-4092.9,84.6-4107.6,83.6-4123.4,83.6z"/>
</g>
<g id="C_00000112622374827432275670000003417328206733987971_" class="st9">
	<path class="st10" d="M-4185.6,219.4h-74.5c-5.4-34.8-38.7-61.3-76.4-61.3c-69.1,0-95.1,58.8-95.1,120.1
		c0,58.3,26,117.1,95.1,117.1c47,0,73.5-31.9,79.4-78.4h74.5c-7.8,87.7-67.6,143.1-153.9,143.1c-107.8,0-172-80.9-172-181.8
		c0-103.9,64.2-184.7,172-184.7C-4260.1,93.4-4194.9,138.5-4185.6,219.4z"/>
</g>
<g id="N_00000117657359395406629260000008490405748572120458_" class="st9">
	<path class="st10" d="M-4820.8,452.2h76.9V102.6h-76.9V452.2z"/>
	<polygon class="st10" points="-4602.9,452.2 -4509.4,102.6 -4578,102.6 -4638.2,340.6 -4639.2,340.6 -4695.5,102.6 -4772.8,102.6 
		-4814.5,255.4 -4743.9,255.4 -4734.1,213.8 -4733.2,213.8 -4673.9,452.2 	"/>
</g>
<g id="A_00000070819818803741320060000005539798163125646774_" class="st9">
	<path class="st10" d="M-5003.1,203.9l-3,70.3l30,6.9v1l-247.3,61v75.2l121.9,33.4l15.2-61l-22.1-9.3v-1l244.4-61v-78.2
		L-5003.1,203.9z"/>
	<polygon class="st10" points="-5178.6,430.6 -5100.9,451.7 -5095,451.7 -5036.5,212.8 -5035.5,212.8 -4976,451.7 -4899.3,451.7 
		-4863.9,319.5 -4932.2,317.5 -4938.1,337.4 -4939.1,337.4 -4999.1,101.1 -5071.4,101.1 -5132.4,339.6 -5133.4,339.6 	"/>
</g>
<g id="N_00000129165096651451788460000006894638935768142516_" class="st9">
	<path class="st10" d="M-5479.3,452.2h-72V102.4h76.4l146,234.7h1V102.4h72v349.9h-76.9L-5478.3,218h-1V452.2z"/>
</g>
<g id="E_00000096737436898591806260000014476501128100374183_" class="st9">
	<path class="st10" d="M-5698.6,452.2V156.6h-63.8v295.6H-5698.6z"/>
	<path class="st10" d="M-5820.9,353.5h140.9c0,0,13.3-74.6,23.6-132.1h-61.9l-11.8,74.6h-90.8V353.5z"/>
	<path class="st10" d="M-5762.4,452.2h140.9c0,0,13.3-74.6,23.6-132.1h-61.9l-11.8,74.6h-90.8V452.2z"/>
	<path class="st10" d="M-5667.2,186.5h60.9c-7.9-43.7-15.2-84.5-15.2-84.5h-140.9v57.5h90.8L-5667.2,186.5z"/>
</g>
<g id="T_00000040572434587172107020000003403572265167091088_" class="st9">
	<path class="st10" d="M-6095.7,452.1h65.4V179.8h208.9V102h-274.3V452.1z"/>
	<polygon class="st10" points="-6001.1,452.2 -5909.6,102 -5975.4,102 -6036.3,340.7 -6036.8,340.7 -6068,452.1 	"/>
</g>
<g id="N_00000162323512888102647520000008162614129556769983_" class="st9">
	<rect x="-6222.9" y="102.4" class="st10" width="76.8" height="349.2"/>
	<path class="st10" d="M-6488,451.6h77.8l92.9-263.1h1l90.5,263.1h79.7l-130.6-349.2h-78.7L-6488,451.6z"/>
</g>
<g id="I_00000075868811598525912980000008971315367424001668_" class="st9">
	<text transform="matrix(1 0 0 1 -6631.2964 451.5694)" class="st10 st2 st4" style="font-size:490px;">I</text>
</g>
<g id="A_00000047767008426511249760000015642639169606536113_" class="st9">
	<polygon class="st10" points="-6725.5,451.6 -6631.8,451.6 -6631.8,398.1 -6661.8,398.1 -6661.8,161.6 -6725.5,161.6 	"/>
	<polygon class="st10" points="-6839.9,348.1 -6675,348.1 -6675,167 -6661.8,167 -6661.8,103.2 -6839.9,103.2 -6839.9,167 
		-6728.5,167 -6728.5,284.3 -6839.9,284.3 	"/>
	<path class="st10" d="M-6930.6,451.6h75.6c0.5-23.1,3.4-48.1,8.3-75.1c5.4-27,12.8-53.5,22.1-80c9.3-26,21.1-50.5,35.3-74.1
		c14.2-23.1,30.4-42.7,48.6-58.4v-60.8h-238V169h165.4c-33.4,40.2-60.4,84.4-80.5,132.5C-6914.4,349.6-6926.7,399.6-6930.6,451.6z"
		/>
</g>
<g id="M_00000030454837118209363920000004010763359709145015_" class="st9">
	<path class="st10" d="M-7289.7,158.9h-153.8l0.5,216.7h-133.3v76.6h197.7L-7379,235h89.3V158.9z"/>
	<polygon class="st10" points="-7038.8,103.7 -7114.9,103.7 -7114.9,452.2 -6978.7,452.2 -6978.7,388.3 -7038.8,388.3 	"/>
	<polygon class="st10" points="-7267.7,103.7 -7344.8,103.7 -7386.3,256.5 -7316,256 -7305.8,215 -7304.8,215 -7246.2,452.2 
		-7174.9,452.2 -7113.9,213.1 -7113,213.1 -7073.4,103.7 -7149.1,103.7 -7210.1,341 -7211.1,341 	"/>
</g>
<g id="R_00000005247159732225481780000017538744411482086332_" class="st9">
	<path class="st10" d="M-8074.3,179.2v-77c45.1,0,119.2,12.3,119.2,116.7c0,58.4-31.9,115.2-108.4,115.2h-30.4v-69.6h15.7
		c33.8,0,58.4-8.3,58.4-44.6C-8019.9,179.2-8052.2,179.2-8074.3,179.2z"/>
	<polygon class="st10" points="-8147.9,452.3 -8147.9,102.2 -8070.9,102.2 -8070.9,452.2 	"/>
	<path class="st10" d="M-7959.6,592.6h-70.6c18.1-74,53.9-143.7,103-203H-8090v-64.7h234.4v59.8
		C-7909.5,431.7-7944.4,515.1-7959.6,592.6z"/>
</g>
<g id="O_00000139989076900347810750000014339682335261473418_" class="st9">
	<g class="st10">
		<path d="M-8513.1,278.6c0-103.9,64.2-184.7,172-184.7c107.8,0,172,80.9,172,184.7c0,100.9-64.2,181.8-172,181.8
			C-8448.9,460.4-8513.1,379.5-8513.1,278.6z M-8436.2,278.6c0,58.3,26,117.1,95.1,117.1c69.1,0,95.1-58.8,95.1-117.1
			c0-61.3-26-120.1-95.1-120.1C-8410.2,158.6-8436.2,217.4-8436.2,278.6z"/>
	</g>
</g>
<g id="F_00000112611114215638550990000001535627271961867692_" class="st9">
	<path d="M-8712.5,452.3h132.8V170h-54.9v217.1h-77.9V452.3z"/>
	<path d="M-8680.5,452.5c0-18,2.9-33.6,10.7-46.8c6.8-12.2,16.6-23.4,28.3-31.2c11.7-7.8,25.4-13.7,40-17.6
		c14.6-3.9,30.2-5.9,70.2-5.9v-81.4c-52.2,0-76.6,3.9-100,12.2c-23.4,8.8-44.4,20-61.9,36.1c-17.6,16.6-31.2,35.1-41.5,57.5
		c-9.8,22.9-14.1,48.8-14.1,77H-8680.5z"/>
	<polygon class="st10" points="-8531.2,101.4 -8634.6,101.4 -8634.6,383.7 -8579.7,383.7 -8579.7,166.6 -8531.2,166.6 	"/>
</g>
<g id="N_00000099642370421911350830000011672063677233731245_" class="st9">
	<path class="st10" d="M-9283,298.6l9.7,41.7h1l60.8-238.2h72l59.8,241.1h1l57.3-241.1h75.5l-94.1,350h-76.5l-59.3-238.2h-1
		l-58.3,238.2h-77.9l-40.8-154.3L-9283,298.6z"/>
</g>
<g id="E_00000111172922047511655530000000589010560551726259_" class="st9">
	<path class="st10" d="M-9365.5,452h-265.6V102.1h261.7v64.7h-184.7v75h169.5v59.8h-169.5v85.8h188.7V452z"/>
</g>
<g id="P_00000129171892025599386490000003898456772564684721_" class="st9">
	<path class="st10" d="M-9918.6,461.2c104.6,0,116.8-73.6,116.8-118.8V220.2h-77.1c0,98.2,0,118.8,0,118.8c0,25,0,57.4-40.7,57.4
		c-36.3,0-44.7-24.5-44.7-58.4v-15.7h-69.7v30.4C-10034,429.3-9977,461.2-9918.6,461.2z"/>
	<polygon class="st10" points="-9878.9,344.9 -9801.8,344.9 -9801.8,167.1 -9675.1,167.1 -9675.1,102.3 -9878.9,102.3 	"/>
	<path class="st10" d="M-9675.1,112.3h-77.1v177.7h-126.7v64.8h203.7V112.3z"/>
</g>
<g id="O_00000039126086928192479570000000753659908774239892_" class="st9">
	<polygon class="st10" points="-10063.8,103 -10140.6,103 -10140.6,387.5 -10310.8,387.5 -10310.8,452.1 -10063.8,452.1 	"/>
	<polygon class="st10" points="-10139.6,103 -10493.1,103 -10493.1,349.9 -10424.2,349.9 -10424.2,179.7 -10139.6,179.7 	"/>
	<polygon class="st10" points="-10488.7,103 -10565.5,103 -10565.5,452.1 -10294.1,452.1 -10294.1,387.5 -10488.7,387.5 	"/>
</g>
</svg>
