<?xml version="1.0" encoding="utf-8"?>
<!-- Generator: Adobe Illustrator 27.0.1, SVG Export Plug-In . SVG Version: 6.00 Build 0)  -->
<svg version="1.1" xmlns="http://www.w3.org/2000/svg" xmlns:xlink="http://www.w3.org/1999/xlink" x="0px" y="0px"
	 viewBox="0 0 301.5 593" style="enable-background:new 0 0 301.5 593;" xml:space="preserve">
<style type="text/css">
	.st0{display:none;}
	.st1{display:inline;}
</style>
<g id="_x5F_V1">
	<g id="E_00000051360959627468142820000017544460044616440767_">
	</g>
	<g id="C">
	</g>
	<g id="N_x5F_3">
	</g>
	<g id="A">
	</g>
	<g id="N_00000054254949360326627830000005329152182886584764_">
	</g>
	<g id="e">
	</g>
	<g id="T">
	</g>
	<g id="N_00000127748963548567887910000006918738376549339794_">
	</g>
	<g id="I">
	</g>
	<g id="A1">
	</g>
	<g id="M">
	</g>
	<g id="R">
	</g>
	<g id="O_00000083778567647030904660000008843847121500168630_">
	</g>
	<g id="F">
	</g>
	<g id="N">
	</g>
	<g id="E">
	</g>
	<g id="P">
	</g>
	<g id="O">
	</g>
</g>
<g id="Ebene_20">
	<text transform="matrix(1 0 0 1 2085.3945 3054.1257)"><tspan x="0" y="0" style="fill:#E30613; font-family:'SH-Maintenance-V2'; font-size:490px; letter-spacing:-19;">M</tspan><tspan x="604.7" y="0" style="fill:#E30613; font-family:'SH-Maintenance-V2'; font-size:490px;">A</tspan><tspan x="965.8" y="0" style="fill:#E30613; font-family:'SH-Maintenance-V2'; font-size:490px; letter-spacing:-19;">I</tspan><tspan x="1090.7" y="0" style="fill:#E30613; font-family:'SH-Maintenance-V2'; font-size:490px;">NTENANCE</tspan></text>
	<rect x="-753.4" y="2709.1" style="fill:none;" width="1722.6" height="412.6"/>
	<text transform="matrix(1 0 0 1 -753.4489 3058.981)"><tspan x="0" y="0" style="fill:#E30613; font-family:'SH-Maintenance-V2'; font-size:490px;">OPEN</tspan><tspan x="1660.1" y="0" style="fill:#E30613; font-family:'SH-Maintenance-V2'; font-size:485px; letter-spacing:-9;"> </tspan></text>
	<text transform="matrix(1 0 0 1 976.5456 3068.5989)"><tspan x="0" y="0" style="fill:#E30613; font-family:'SH-Maintenance-V2'; font-size:490px; letter-spacing:-19;">F</tspan><tspan x="252.8" y="0" style="fill:#E30613; font-family:'SH-Maintenance-V2'; font-size:490px;">OR</tspan></text>
</g>
<g id="Hilfslinien">
	<rect x="-949.4" y="2164.3" style="fill:none;" width="7398.2" height="466.4"/>
	<text transform="matrix(1 0 0 1 -949.3923 2513.4473)"><tspan x="0" y="0" style="fill:#E30613; font-family:'SH-Maintenance-V2'; font-size:489px; letter-spacing:-19;">WE</tspan><tspan x="739.4" y="0" style="fill:#E30613; font-family:'SH-Maintenance-V2'; font-size:489px; letter-spacing:-29;">G</tspan><tspan x="1081.2" y="0" style="fill:#E30613; font-family:'SH-Maintenance-V2'; font-size:489px; letter-spacing:-9;">E</tspan><tspan x="1468.4" y="0" style="fill:#E30613; font-family:'SH-Maintenance-V2'; font-size:489px;">N </tspan><tspan x="1939.8" y="0" style="fill:#E30613; font-family:'SH-Maintenance-V2'; font-size:489px; letter-spacing:9;">U</tspan><tspan x="2312" y="0" style="fill:#E30613; font-family:'SH-Maintenance-V2'; font-size:489px; letter-spacing:-9;">M</tspan><tspan x="2736.9" y="0" style="fill:#E30613; font-family:'SH-Maintenance-V2'; font-size:489px;">B</tspan><tspan x="3081.2" y="0" style="fill:#E30613; font-family:'SH-Maintenance-V2'; font-size:489px; letter-spacing:-19;">A</tspan><tspan x="3439.1" y="0" style="fill:#E30613; font-family:'SH-Maintenance-V2'; font-size:489px;">U </tspan><tspan x="3910" y="0" style="fill:#E30613; font-family:'SH-Maintenance-V2'; font-size:489px; letter-spacing:-29;">G</tspan><tspan x="4268.4" y="0" style="fill:#E30613; font-family:'SH-Maintenance-V2'; font-size:489px;">E</tspan><tspan x="4585.3" y="0" style="fill:#E30613; font-family:'SH-Maintenance-V2'; font-size:489px; letter-spacing:-39;">Ö</tspan><tspan x="4926.6" y="0" style="fill:#E30613; font-family:'SH-Maintenance-V2'; font-size:489px;">FFNET</tspan></text>
</g>
<g id="T_00000151528559115874515910000005984389023753216649_">
	<path d="M12282.5,452.2V102.4h76.9v349.8H12282.5z"/>
	<path d="M12212.9,102.4h146.5c94.6,0,140.6,55.9,140.6,149.4h-64.7c0-54.9-23.5-72.5-75.9-72.5h-146.5V102.4z"/>
</g>
<g id="E_00000150082740960534394650000001756674408269680310_">
	<path d="M12093.7,452.1V156.4h-63.8v295.6H12093.7z"/>
	<path d="M11971.4,353.3h140.9c0,0,13.3-74.6,23.6-132.1h-61.9l-11.8,74.6h-90.8V353.3z"/>
	<path d="M12029.8,452.1h140.9c0,0,13.3-74.6,23.6-132.1h-61.9l-11.8,74.6h-90.8V452.1z"/>
	<path d="M12125.1,186.3h60.9c-7.9-43.7-15.2-84.5-15.2-84.5h-140.9v57.5h90.8L12125.1,186.3z"/>
</g>
<g id="N_00000099632580371903072950000016892054108610634910_">
	<path d="M11853.7,451.9l93.9-349.3h-69l-60.2,237.7h-1l-56.3-237.7h-77.3l-41.6,152.6h70.4l9.8-41.6h1l58.7,237.7L11853.7,451.9z"
		/>
	<rect x="11636.5" y="102.6" width="76.8" height="349.3"/>
</g>
<g id="F_00000114769032895886322120000014247326199313495697_">
	<path d="M11444.2,451.9h-76.8V102.7h245.5v64.5h-168.7V248h146.2v59.7h-146.2V451.9z"/>
</g>
<g id="F_00000173141720675959051990000004486108456543280518_">
	<path d="M11155.2,451.6h132.8V169.3h-54.9v217.1h-77.9V451.6z"/>
	<path d="M11187.3,451.7c0-18,2.9-33.6,10.7-46.8c6.8-12.2,16.6-23.4,28.3-31.2c11.7-7.8,25.4-13.7,40-17.6
		c14.6-3.9,30.2-5.9,70.2-5.9v-81.4c-52.2,0-76.6,3.9-100,12.2c-23.4,8.8-44.4,20-61.9,36.1c-17.6,16.6-31.2,35.1-41.4,57.5
		c-9.8,22.9-14.1,48.8-14.1,77H11187.3z"/>
	<polygon points="11336.6,100.7 11233.2,100.7 11233.2,383 11288.1,383 11288.1,165.8 11336.6,165.8 	"/>
</g>
<g id="Ö">
	<path d="M10771.9,269.5c0-103.7,64.1-184.4,171.6-184.4c107.6,0,171.6,80.7,171.6,184.4c0,100.7-64.1,181.4-171.6,181.4
		C10835.9,450.9,10771.9,370.2,10771.9,269.5z M10848.6,269.5c0,58.2,25.9,116.9,94.9,116.9c68.9,0,94.9-58.7,94.9-116.9
		c0-61.1-25.9-119.8-94.9-119.8C10874.6,149.7,10848.6,208.4,10848.6,269.5z M10910.3,239.7v-57.2h66v57.2H10910.3z M10910.3,326.7
		v-57.2h66v57.2H10910.3z"/>
</g>
<g id="E_00000056408675155028286430000005814045595369560991_">
	<path d="M10742.8,452.2h-265V103.1h261.1v64.5h-184.4v74.8h169.2v59.7h-169.2v85.6h188.3V452.2z"/>
</g>
<g id="G_00000142136150640176763200000005464168929300255362_">
	<path d="M10100.5,367.5h76.4V178.3l98-1.5l-1.5-75h-174L10100.5,367.5z M10100.5,451.8l267.6-0.5V388l-190.1,1l-1-98l-75,1.5
		L10100.5,451.8z M10268.1,451.3h101c10.8-7.4,23-15.2,33.8-22.5c11.8-8.3,21.1-17.2,30.9-26.5c8.3-8.3,15.2-18.6,21.6-32.3
		c4.4-11.8,8.3-26,8.3-42.6s-3.9-30.9-9.3-44.6c-6.4-12.7-14.7-23.5-25.5-32.3s-23-16.2-36.8-21.1c-13.2-4.9-28.9-6.9-43.1-6.9
		c-20.6,0-37.7,3.4-53.9,10.8c-15.2,6.4-28.9,16.2-37.7,27.9c-10.8,12.7-18.1,27-23,43.1c-5.9,17.2-8.3,35.3-6.9,53.9h64.2
		c0-9.8,1.5-17.6,3.4-27.4c1.5-9.3,3.4-16.7,8.8-25c2.9-7.4,9.3-13.2,16.2-17.6c6.4-5.4,14.7-7.4,25.5-7.4c14.2,0,26,4.9,35.8,14.7
		c9.3,7.8,14.2,21.1,14.2,36.8c0,10.3-2.5,20.1-6.9,27c-5.4,8.3-10.8,15.7-17.2,21.6c-6.9,7.4-15.2,12.3-22.5,18.1
		c-8.3,4.9-16.7,10.8-24,15.7C10311.2,423.3,10280.8,442.9,10268.1,451.3z"/>
</g>
<g id="U_00000122691519521168774280000013841469757125651126_">
	<path d="M9945.7,463.6c-102.4-1.5-114.8-74.7-114.8-119.8v-242h77.7v238.5c0,24.3,0,55.9,37.1,57.9V463.6z"/>
	<path d="M9667.6,101.9h77.7v238.5c0,25.2,0,57.9,41.1,57.9c36.6,0,45-24.7,45-58.9v-15.8h70.3v30.7c0,77.2-57.4,109.4-116.3,109.4
		c-105.4,0-117.8-74.2-117.8-119.8V101.9z"/>
</g>
<g id="A_00000004505667569094896160000014532079075801900974_">
	<path d="M9512.2,203.9l-3,70.3l30,6.9v1l-247.3,61v75.2l121.9,33.4l15.2-61l-22.1-9.3v-1l244.4-61v-78.2L9512.2,203.9z"/>
	<polygon points="9336.6,430.6 9414.3,451.7 9420.2,451.7 9478.7,212.8 9479.7,212.8 9539.2,451.7 9615.9,451.7 9651.3,319.5 
		9583,317.5 9577.1,342.6 9576.1,342.6 9516.1,101.1 9443.8,101.1 9382.8,339.6 9381.8,339.6 	"/>
</g>
<g id="B">
	<path d="M8973.2,453.3V104.2h164.3c66.5,0,111.5,21.5,111.5,86.6c0,34.7-16.6,57.7-47.4,72.9c43,12.2,64.1,45,64.1,88.5
		c0,70.9-60.1,101.2-123.2,101.2H8973.2z M9121.9,163.8H9050v81.7h77.8c27.4,0,46.9-12.2,46.9-41.6
		C9174.7,171.2,9149.3,163.8,9121.9,163.8z M9050,393.7h82.2c29.8,0,56.7-9.8,56.7-46c0-35.7-22-49.9-55.3-49.9H9050V393.7z"/>
</g>
<g id="M_00000134250281029563310950000003257287664879667615_">
	<path d="M8716,335.1h75.5c-12.8-20.6-144.7-232.9-144.7-232.9h-77v350.1h72.1V217.4h1C8642.9,217.4,8679.7,276.2,8716,335.1z"/>
	<path d="M8792,335.1c36.3-58.8,73.1-117.7,73.1-117.7h1v234.9h72.1V102.1h-77c0,0-131.9,212.3-144.7,232.9H8792z"/>
</g>
<g id="U">
	<path d="M8520,453h-247.3v-64.6h170.4v-285h76.9V453z M8225.7,453V103.4h76.9v285H8473V453H8225.7z"/>
</g>
<g id="N_00000154425763484525918430000008508601231558086807_">
	<path d="M7975.2,451.5l93.9-349.3h-69L7940,339.9h-1l-56.3-237.7h-77.3l-41.6,152.6h70.4l9.8-41.6h1l58.7,237.7L7975.2,451.5z"/>
	<rect x="7758" y="102.2" width="76.8" height="349.3"/>
</g>
<g id="E_00000165205204584183719570000002201050886193303485_">
	<path d="M7444.2,279.2h-64.3c0-107.2,80.4-171.1,180.8-171.1v76.5C7502.7,184.7,7444.2,210.5,7444.2,279.2z"/>
	<path d="M7552.2,379.1c0-68.7-58.5-94.5-116.5-94.5v-76.5c100.4,0,180.8,63.8,180.8,171.1H7552.2z"/>
	<polygon points="7729.1,371.8 7729.1,450.3 7558,450.3 7553.1,371.8 	"/>
	<path d="M7444.2,279.2c0,68.7,58.5,94.5,116.5,94.5v76.5c-100.4,0-180.8-63.8-180.8-171.1H7444.2z"/>
	<path d="M7409.8,84.8V2.4c26.8,0,53.1,4.9,76.5,12.7c23.4,8.8,43.4,20,60.9,36.1s31.2,34.6,40.9,57.5
		c10.2,22.9,15.1,49.2,15.1,76.5h-69.2c0-18-3.4-32.7-10.2-45.8c-7.3-13.2-16.6-23.4-28.3-32.2c-11.7-7.8-25.8-13.6-40-18
		C7440.1,85.7,7425.4,84.8,7409.8,84.8z"/>
</g>
<g id="G">
	<path d="M7364.2,452.8h-48.9l-7.8-39.6c-27.4,35.2-62.1,47.9-95.8,47.9c-107.6,0-171.6-80.7-171.6-181.4
		c0-103.7,64.1-184.4,171.6-184.4c71.4,0,139.4,43.5,147.2,123.2h-73.4c-9.3-39.1-37.2-58.7-73.8-58.7c-68.9,0-94.9,58.7-94.9,119.8
		c0,58.2,25.9,116.9,94.9,116.9c50.4,0,78.7-26.4,83.1-75.3h-77.3v-57.2h146.7V452.8z"/>
</g>
<g id="E_00000005963599347184841430000018193220976272044449_">
	<path d="M7024.4,452.5h-265V103.4h261.1v64.5h-184.4v74.8h169.2v59.7h-169.2V388h188.3V452.5z"/>
</g>
<g id="W">
	<path d="M6493,217.6c-36.3,58.9-73.1,117.7-73.1,117.7h-1v-235h-72.1v350.3h77c0,0,132-212.4,144.7-233H6493z M6569.1,217.6h-75.5
		c12.8,20.6,144.7,233,144.7,233h77V100.3h-72.1v235h-1C6642.2,335.3,6605.4,276.4,6569.1,217.6z"/>
</g>
<g id="E_00000113322483045279252990000013609696148037364875_">
	<path d="M5397.8,279.7h-64.9c0-108.1,81.1-172.5,182.4-172.5v77.2C5456.8,184.4,5397.8,210.4,5397.8,279.7z"/>
	<path d="M5509.4,380.5c0-69.3-59-95.4-117.5-95.4V208c101.3,0,182.4,64.4,182.4,172.5H5509.4z"/>
	<polygon points="5687.8,373.1 5687.8,452.2 5515.2,452.2 5510.3,373.1 	"/>
	<path d="M5397.8,279.7c0,69.3,59,95.4,117.5,95.4v77.2c-101.3,0-182.4-64.4-182.4-172.5H5397.8z"/>
	<path d="M5365.8,83.6V0.5c27,0,53.6,4.9,77.2,12.8c23.6,8.8,43.7,20.2,61.4,36.4c17.7,16.2,31.5,34.9,41.3,58
		c10.3,23.1,15.2,49.6,15.2,77.2h-69.8c0-18.2-3.4-32.9-10.3-46.2c-7.4-13.3-16.7-23.6-28.5-32.4c-11.8-7.9-26.1-13.8-40.3-18.2
		C5396.3,84.6,5381.6,83.6,5365.8,83.6z"/>
</g>
<g id="C_00000112622374827432275670000003417328206733987971_">
	<path d="M5303.6,219.4h-74.5c-5.4-34.8-38.7-61.3-76.4-61.3c-69.1,0-95.1,58.8-95.1,120.1c0,58.3,26,117.1,95.1,117.1
		c47,0,73.5-31.9,79.4-78.4h74.5c-7.8,87.7-67.6,143.1-153.9,143.1c-107.8,0-172-80.9-172-181.8c0-103.9,64.2-184.7,172-184.7
		C5229.1,93.4,5294.3,138.5,5303.6,219.4z"/>
</g>
<g id="N_00000117657359395406629260000008490405748572120458_">
	<path d="M4668.4,452.2h76.9V102.6h-76.9V452.2z"/>
	<polygon points="4886.3,452.2 4979.8,102.6 4911.2,102.6 4851,340.6 4850,340.6 4793.7,102.6 4716.4,102.6 4674.8,255.4 
		4745.3,255.4 4755.1,213.8 4756,213.8 4815.3,452.2 	"/>
</g>
<g id="A_00000070819818803741320060000005539798163125646774_">
	<path d="M4486.2,203.9l-3,70.3l30,6.9v1l-247.3,61v75.2l121.9,33.4l15.2-61l-22.1-9.3v-1l244.4-61v-78.2L4486.2,203.9z"/>
	<polygon points="4310.6,430.6 4388.3,451.7 4394.2,451.7 4452.7,212.8 4453.7,212.8 4513.2,451.7 4589.9,451.7 4625.3,319.5 
		4557,317.5 4551.1,342.6 4550.1,342.6 4490.1,101.1 4417.8,101.1 4356.8,339.6 4355.8,339.6 	"/>
</g>
<g id="N_00000129165096651451788460000006894638935768142516_">
	<path d="M4009.9,452.2h-72V102.4h76.4l146,234.7h1V102.4h72v349.9h-76.9L4010.9,218h-1V452.2z"/>
</g>
<g id="E_00000096737436898591806260000014476501128100374183_">
	<path d="M3790.6,452.2V156.6h-63.8v295.6H3790.6z"/>
	<path d="M3668.3,353.5h140.9c0,0,13.3-74.6,23.6-132.1H3771l-11.8,74.6h-90.8V353.5z"/>
	<path d="M3726.8,452.2h140.9c0,0,13.3-74.6,23.6-132.1h-61.9l-11.8,74.6h-90.8V452.2z"/>
	<path d="M3822,186.5h60.9c-7.9-43.7-15.2-84.5-15.2-84.5h-140.9v57.5h90.8L3822,186.5z"/>
</g>
<g id="T_00000040572434587172107020000003403572265167091088_">
	<path d="M3425.9,452.1h65.4V179.8h208.9V102h-274.3V452.1z"/>
	<polygon points="3520.5,452.2 3612,102 3546.2,102 3485.3,340.7 3484.8,340.7 3453.6,452.1 	"/>
</g>
<g id="N_00000162323512888102647520000008162614129556769983_">
	<rect x="3298.7" y="102.4" width="76.8" height="349.2"/>
	<path d="M3033.6,451.6h77.8l92.9-263.1h1l90.5,263.1h79.7l-130.6-349.2h-78.7L3033.6,451.6z"/>
</g>
<g id="I_00000075868811598525912980000008971315367424001668_">
	
		<text transform="matrix(1 0 0 1 2890.2964 451.5694)" style="font-family:'SH-Maintenance-V2'; font-size:490px; letter-spacing:-19;">I</text>
</g>
<g id="A_00000047767008426511249760000015642639169606536113_">
	<polygon points="2796.1,451.6 2889.8,451.6 2889.8,398.1 2859.8,398.1 2859.8,161.6 2796.1,161.6 	"/>
	<polygon points="2681.7,348.1 2846.6,348.1 2846.6,167 2859.8,167 2859.8,103.2 2681.7,103.2 2681.7,167 2793.1,167 2793.1,284.3 
		2681.7,284.3 	"/>
	<path d="M2591,451.6h75.6c0.5-23.1,3.4-48.1,8.3-75.1c5.4-27,12.8-53.5,22.1-80c9.3-26,21.1-50.5,35.3-74.1
		c14.2-23.1,30.4-42.7,48.6-58.4v-60.8h-238V169h165.4c-33.4,40.2-60.4,84.4-80.5,132.5C2607.1,349.6,2594.9,399.6,2591,451.6z"/>
</g>
<g id="M_00000030454837118209363920000004010763359709145015_">
	<path d="M2265.5,158.9h-153.8l0.5,216.7h-133.3v76.6h197.7l-0.5-217.2h89.3V158.9z"/>
	<polygon points="2516.3,103.7 2440.2,103.7 2440.2,452.2 2576.4,452.2 2576.4,388.3 2516.3,388.3 	"/>
	<polygon points="2287.4,103.7 2210.3,103.7 2168.8,256.5 2239.1,256 2249.4,215 2250.3,215 2308.9,452.2 2380.2,452.2 
		2441.2,213.1 2442.2,213.1 2481.7,103.7 2406,103.7 2345,341 2344,341 	"/>
</g>
<g id="R_00000005247159732225481780000017538744411482086332_">
	<path d="M1581.1,179.2v-77c45.1,0,119.2,12.3,119.2,116.7c0,58.4-31.9,115.2-108.4,115.2h-30.4v-69.6h15.7
		c33.8,0,58.4-8.3,58.4-44.6C1635.6,179.2,1603.2,179.2,1581.1,179.2z"/>
	<polygon points="1507.6,452.3 1507.6,102.2 1584.6,102.2 1584.6,452.2 	"/>
	<path d="M1695.9,592.6h-70.6c18.1-74,53.9-143.7,103-203h-162.8v-64.7h234.4v59.8C1745.9,431.7,1711.1,515.1,1695.9,592.6z"/>
</g>
<g id="O_00000139989076900347810750000014339682335261473418_">
	<g>
		<path d="M1142.3,278.6c0-103.9,64.2-184.7,172-184.7c107.8,0,172,80.9,172,184.7c0,100.9-64.2,181.8-172,181.8
			C1206.5,460.4,1142.3,379.5,1142.3,278.6z M1219.2,278.6c0,58.3,26,117.1,95.1,117.1c69.1,0,95.1-58.8,95.1-117.1
			c0-61.3-26-120.1-95.1-120.1C1245.2,158.6,1219.2,217.4,1219.2,278.6z"/>
	</g>
</g>
<g id="F_00000112611114215638550990000001535627271961867692_">
	<path d="M942.9,452.3h132.8V170h-54.9v217.1h-77.9V452.3z"/>
	<path d="M975,452.5c0-18,2.9-33.6,10.7-46.8c6.8-12.2,16.6-23.4,28.3-31.2s25.4-13.7,40-17.6c14.6-3.9,30.2-5.9,70.2-5.9v-81.4
		c-52.2,0-76.6,3.9-100,12.2c-23.4,8.8-44.4,20-61.9,36.1c-17.6,16.6-31.2,35.1-41.4,57.5c-9.8,22.9-14.1,48.8-14.1,77H975z"/>
	<polygon points="1124.3,101.4 1020.9,101.4 1020.9,383.7 1075.8,383.7 1075.8,166.6 1124.3,166.6 	"/>
</g>
<g id="N_00000099642370421911350830000011672063677233731245_">
	<path d="M372.4,298.6l9.7,41.7h1l60.8-238.2h72l59.8,241.1h1L634,102.1h75.5l-94.1,350H539l-59.3-238.2h-1L420.3,452h-77.9
		l-40.8-154.3L372.4,298.6z"/>
</g>
<g id="E_00000111172922047511655530000000589010560551726259_">
	<path d="M289.9,452H24.3V102.1H286v64.7H101.3v75h169.5v59.8H101.3v85.8h188.7V452z"/>
</g>
<g id="P_00000129171892025599386490000003898456772564684721_" class="st0">
	<path class="st1" d="M-263.2,461.2c104.6,0,116.8-73.6,116.8-118.8V220.2h-77.1c0,98.2,0,118.8,0,118.8c0,25,0,57.4-40.7,57.4
		c-36.3,0-44.7-24.5-44.7-58.4v-15.7h-69.7v30.4C-378.6,429.3-321.6,461.2-263.2,461.2z"/>
	<polygon class="st1" points="-223.4,344.9 -146.3,344.9 -146.3,167.1 -19.7,167.1 -19.7,102.3 -223.4,102.3 	"/>
	<path class="st1" d="M-19.7,112.3h-77.1v177.7h-126.7v64.8h203.7V112.3z"/>
</g>
<g id="O_00000039126086928192479570000000753659908774239892_" class="st0">
	<polygon class="st1" points="-408.4,103 -485.2,103 -485.2,387.5 -655.3,387.5 -655.3,452.1 -408.4,452.1 	"/>
	<polygon class="st1" points="-484.2,103 -837.7,103 -837.7,349.9 -768.8,349.9 -768.8,179.7 -484.2,179.7 	"/>
	<polygon class="st1" points="-833.3,103 -910.1,103 -910.1,452.1 -638.7,452.1 -638.7,387.5 -833.3,387.5 	"/>
</g>
</svg>
