<?xml version="1.0" encoding="utf-8"?>
<!-- Generator: Adobe Illustrator 27.0.1, SVG Export Plug-In . SVG Version: 6.00 Build 0)  -->
<svg version="1.1" id="Ebene_1" xmlns="http://www.w3.org/2000/svg" xmlns:xlink="http://www.w3.org/1999/xlink" x="0px" y="0px"
	 viewBox="0 0 335.8 800" style="enable-background:new 0 0 335.8 800;" xml:space="preserve">
<g>
	<path d="M125.4,632.1c-13.9-2.3-26.8-7.6-38.9-15.8c-12-8.3-22.1-20.1-30.2-35.6c-8.1-15.5-12.1-36.5-12.1-62.9
		c0-14.8,2.1-29.2,6.2-43.1c4.1-13.9,10.6-26.2,19.3-37.1c8.7-10.9,20-19.6,33.7-26.2c13.7-6.6,30.3-12.2,49.7-12.2h30.7v76.2H168
		c-8.6,0-16.5,0.7-23.8,2c-7.3,1.3-13.4,3.6-18.6,6.9c-5.1,3.3-9.2,7.8-12.1,13.6c-3,5.8-4.5,13.3-4.5,22.5
		c0,10.2,1.8,14.6,5.4,20.2c3.6,5.6,8.3,9.7,14.1,12.1c5.8,2.5,12,4,18.8,4.5c6.8,0.5,13.3,0.7,19.6,0.7h162.4v77.7H163.5
		C152,635.6,139.3,634.4,125.4,632.1"/>
</g>
<polygon points="150.7,398.1 262.9,398.1 262.9,366.5 127.2,366.5 127.2,288.7 328.4,288.7 328.7,474.6 150.7,475.9 "/>
<g>
	<path d="M91.8,248.1l-0.4,78.3l-87.1-0.6l-0.4,53c12.2-0.2,24,0.7,35.4,3c11.4,2.2,21.6,6.1,30.6,11.6c9,5.5,16.7,12.7,22.9,21.7
		c6.2,9,10.3,20,12.1,33.2l55.9,0.4l0-200L91.8,248.1z"/>
</g>
</svg>
