<?xml version="1.0" encoding="utf-8"?>
<!-- Generator: Adobe Illustrator 27.0.1, SVG Export Plug-In . SVG Version: 6.00 Build 0)  -->
<svg version="1.1" xmlns="http://www.w3.org/2000/svg" xmlns:xlink="http://www.w3.org/1999/xlink" x="0px" y="0px"
	 viewBox="0 0 298.4 530" style="enable-background:new 0 0 298.4 530;" xml:space="preserve">
<style type="text/css">
	.st0{display:none;fill:#010202;}
</style>
<g id="E_00000051360959627468142820000017544460044616440767_">
	<g>
		<path d="M285.8,440.8H20.3V90.9h261.6v64.7H97.2v75h169.5v59.8H97.2v85.7h188.6V440.8z"/>
	</g>
</g>
<g id="C">
	<g>
		<path d="M5365.3,209.6h-74.5c-5.4-34.8-38.7-61.3-76.5-61.3c-69.1,0-95.1,58.8-95.1,120.1c0,58.3,26,117.1,95.1,117.1
			c47,0,73.5-31.9,79.4-78.4h74.5c-7.8,87.7-67.6,143.1-153.9,143.1c-107.8,0-172-80.9-172-181.8c0-103.9,64.2-184.8,172-184.8
			C5290.8,83.7,5356,128.8,5365.3,209.6z"/>
	</g>
</g>
<g id="N_x5F_3">
	<polygon points="4744.6,90 4702.8,243.8 4773.6,243.8 4783.4,202 4784.4,202 4843.4,440.8 4915.1,441.3 5009,91.9 4940.2,91 
		4879.7,329.3 4878.7,329.3 4822.2,90.5 	"/>
	<polygon points="4777.2,90.2 4700.6,89.7 4699.6,241.1 4699.1,305.9 4698.1,440.1 4774.8,440.6 	"/>
</g>
<g id="A">
	<path d="M4619.1,323.3c0-9.8-1-20.6-2.9-32.4c-2-12.3-6.4-23.1-13.7-33.4c-6.9-10.3-17.2-19.1-30.4-26c-13.3-6.9-31.4-10.3-54-10.3
		c-12.8,0-25,1.5-36.8,5.4c-11.8,3.4-22.6,8.8-31.9,16.2c-9.3,7.9-16.7,17.2-22.6,29c-5.4,11.8-8.3,26-8.3,42.7v126.1h60.4V327.2
		c0-7.4,0.5-14.2,1.5-20.6c1.5-5.9,3.4-11.3,5.9-15.7c2.9-4.4,6.9-7.9,11.8-10.3c4.9-2.5,11.3-3.9,19.1-3.9c8.8,0,15.7,1.5,20.6,4.9
		c4.9,2.9,8.3,6.9,10.3,11.8c2,4.9,3.4,10.3,3.9,16.2s0.5,11.3,0.5,16.7v114.3h66.7V323.3z"/>
	<polygon points="4619,440.6 4675,440.6 4675.5,157.4 4675.5,90.7 4424.2,90.7 4424.2,157.4 4619,157.4 	"/>
	<polygon points="4434.6,440.5 4490.5,440.5 4491,157.4 4491,90.8 4387.1,90.8 4387.1,157.4 4434.6,157.4 	"/>
</g>
<g id="N_00000054254949360326627830000005329152182886584764_">
	<g>
		<path d="M4292.7,441.3V156.1h-170.6V91.4h247.5v349.9H4292.7z"/>
	</g>
	<path d="M4066.1,385c10.1,0,18-1.8,23.5-5.4c5.6-3.6,9.6-8.2,12-14c2.5-5.7,3.9-11.9,4.4-18.6c0.5-6.7,0.7-13.1,0.7-19.4V91.4h76.9
		v239.7c0,11.4-1.1,24-3.4,37.7c-2.3,13.7-7.5,26.5-15.7,38.5c-8.2,11.9-19.9,21.9-35.3,29.9c-15.4,8-36.1,12-62.2,12L4066.1,385z"
		/>
</g>
<g id="e">
	<g>
		<path d="M3837.1,436.9c-14-2.3-27-7.7-39.2-16c-12.2-8.3-22.3-20.3-30.4-35.9c-8.2-15.6-12.2-36.8-12.2-63.4
			c0-15,2.1-29.4,6.2-43.4c4.2-14,10.6-26.5,19.5-37.4c8.8-11,20.1-19.8,33.9-26.5c13.8-6.7,30.5-12.3,50.2-12.3h30.9v76.8h-16
			c-8.7,0-16.6,0.7-24,2c-7.3,1.3-13.6,3.7-18.7,7c-5.2,3.3-9.2,7.9-12.2,13.7c-3,5.8-4.5,13.4-4.5,22.7c0,10.3,1.8,14.7,5.5,20.4
			c3.7,5.7,8.4,9.7,14.2,12.2c5.8,2.5,12.1,4,19,4.5c6.8,0.5,13.4,0.7,19.7,0.7h163.8v78.4h-167.3
			C3863.9,440.4,3851.1,439.2,3837.1,436.9"/>
	</g>
	<polygon points="3862.6,201 3975.7,201 3975.7,169 3838.9,169 3838.9,90.7 4041.8,90.7 4042.1,278.1 3862.6,279.3 	"/>
	<g>
		<path d="M3803.2,49.7l-0.4,78.9L3715,128l-0.4,53.4c12.3-0.3,24.2,0.7,35.7,3c11.5,2.2,21.7,6.1,30.9,11.7
			c9.1,5.6,16.8,12.8,23.1,21.9c6.3,9,10.3,20.2,12.2,33.5l56.4,0.4l0-201.7L3803.2,49.7z"/>
	</g>
</g>
<g id="T">
	<text transform="matrix(1 0 0 1 3400.5354 440.035)" style="font-family:'SHBDA23V1'; font-size:489px;">T</text>
</g>
<g id="N_00000127748963548567887910000006918738376549339794_">
	<g>
		<path d="M3143.8,440.6h-72V90.8h76.4l146,234.7h1V90.8h72v349.9h-76.9l-145.5-234.2h-1V440.6z"/>
	</g>
</g>
<g id="I">
	<g>
		<path d="M3005,440.4h-76.9V90.9h76.9V440.4z"/>
	</g>
</g>
<g id="A1">
	<path d="M2619.4,90.5h178.9v64h-13.4v117.8h0.2v64h-165.7v-64H2731V154.5h-111.7V90.5z"/>
	<path d="M2734.4,149.3h64v237.2h29.7v53.8h-93.7V149.3z"/>
	<path d="M2670,210.4c-14.2,23.3-26,48.1-35.5,74.5c-9.5,26.3-16.8,53-22,79.9c-5.2,27-7.9,52.1-8.2,75.5h-76
		c4-52.3,16.2-102.6,36.7-150.9c20.5-48.3,47.4-92.6,80.7-132.9h-165.9v-66h238.8v61C2700.4,167.5,2684.1,187.1,2670,210.4z"/>
</g>
<g id="M">
	<path d="M2048.7,244.2l41.8-154.1l78,0.5l56.9,238.8l1,0l60.8-238l76.5,0.5l-39.4,108.7l-1,0l-61.3,241l-72.1-0.4l-59.4-238.8l-1,0
		l-10,41.6L2048.7,244.2z"/>
	<path d="M1991.8,144.9l154-0.1l0.1,77l-89.8,0.1l0.4,218.8l-199.4,0.1l-0.1-77l134.4-0.1L1991.8,144.9z"/>
	<path d="M2399,91.5l0.2,284.7l60.3,0l0,64.8l-137.4,0.1L2322,91.6L2399,91.5z"/>
	<rect x="3913.7" y="8106.9" class="st0" width="151" height="77"/>
	<rect x="4003.2" y="7887.8" class="st0" width="61.4" height="77"/>
	<rect x="3713.9" y="7888.2" class="st0" width="135.3" height="77"/>
	<polygon class="st0" points="3906.1,7989.8 3891.3,8041.4 3890.3,8041.4 3832.6,7836 3756.7,7836 3851.3,8187.9 3928.2,8187.9 
		3977,7989.8 	"/>
	<rect x="4316.8" y="8122.2" class="st0" width="110.7" height="64.8"/>
</g>
<g id="R">
	<g>
		<path d="M1493.6,441.2h-96.5V385h30.6V137.6h65.9V441.2z"/>
	</g>
	<g>
		<path d="M1696.7,319.9v211.8h-55.4v-146h-244.1v-65.9H1696.7z"/>
	</g>
	<g>
		<path d="M1427.8,91.8c21.8,0,42.2,3.4,61,10.1c18.9,6.7,35.3,16.4,49.3,28.9c14,12.6,25,28,32.9,46.4c8,18.3,12,38.9,12,61.9
			c0,18.5-2.8,35.4-8.4,50.8c-5.6,15.4-13.7,28.8-24.3,40.3c-10.6,11.5-23.5,20.7-38.6,27.7c-15.1,7-32,11.3-50.8,13V307
			c20.1-2.5,36.4-9.4,48.7-20.8c12.3-11.3,18.5-27.1,18.5-47.2c0-14.8-2.9-27.4-8.6-37.8c-5.7-10.3-13.4-18.7-22.9-25.2
			c-9.5-6.4-20.2-11.1-32.1-14.1c-11.9-2.9-24.1-4.4-36.7-4.4"/>
	</g>
</g>
<g id="O_00000083778567647030904660000008843847121500168630_">
	<g>
		<path d="M1038.8,266.6c0-103.1,63.7-183.3,170.6-183.3c106.9,0,170.6,80.2,170.6,183.3c0,100.1-63.7,180.3-170.6,180.3
			C1102.5,446.9,1038.8,366.7,1038.8,266.6z M1115.1,266.6c0,57.8,25.8,116.2,94.3,116.2s94.3-58.3,94.3-116.2
			c0-60.8-25.8-119.1-94.3-119.1S1115.1,205.8,1115.1,266.6z"/>
	</g>
</g>
<g id="F">
	<path d="M854.7,440.1c0-18,2.9-33.5,10.7-46.7c6.8-12.2,16.5-23.3,28.2-31.1c11.7-7.8,25.3-13.6,39.9-17.5
		c14.6-3.9,30.1-5.8,70-5.8v-81.2c-52,0-76.3,3.9-99.7,12.2c-23.3,8.8-44.2,19.9-61.7,36c-17.5,16.5-31.1,35-41.3,57.4
		c-9.7,22.8-14.1,48.6-14.1,76.8H854.7z"/>
	<polygon points="1004.5,90.5 902,90.5 902,370.5 956.4,370.5 956.4,155.1 1004.5,155.1 	"/>
	<polygon points="824.6,439.9 956.3,439.9 956.3,159.9 901.9,159.9 901.9,375.2 824.6,375.2 	"/>
</g>
<g id="N">
	<polygon class="st0" points="2360.3,7137.8 2284.8,7137.8 2337.9,7335.1 2407.2,7335.1 	"/>
	<path d="M385.4,286.9l9.7,41.7h1l60.8-238.2h72l59.8,241.1h1L647,90.4h75.5l-94.1,349.9h-76.4l-59.3-238.2h-1l-58.3,238.2h-77.9
		L314.6,286L385.4,286.9z"/>
</g>
<g id="E">
	<path d="M5683.4,440.8h-265V91.7h261.1v64.5h-184.4v74.8h169.2v59.7h-169.2v85.6h188.3V440.8z"/>
</g>
<g id="P">
	<polygon points="-25.9,90.8 -102.6,90.8 -102.6,267.6 -228.6,267.6 -228.6,332.1 -25.9,332.1 	"/>
	<polygon points="-228.6,331.8 -151.9,331.8 -151.9,155 -25.9,155 -25.9,90.5 -228.6,90.5 	"/>
	<path d="M-268.4,448.5c104,0,116.2-73.3,116.2-118.2V208.7h-76.7c0,97.7,0,118.2,0,118.2c0,24.9,0,57.1-40.5,57.1
		c-36.1,0-44.4-24.4-44.4-58.1v-15.6h-69.4v30.3C-383.2,416.7-326.6,448.5-268.4,448.5z"/>
</g>
<g id="O">
	<g>
		<path d="M-730.4,187.9c-4.4-7-9.8-13.1-16.3-18.4c-6.5-5.3-13.9-9.4-22.1-12.4c-8.2-3-16.9-4.4-25.9-4.4c-16.5,0-30.5,3.2-42,9.6
			c-11.5,6.4-20.8,14.9-28,25.6c-7.2,10.7-12.4,22.9-15.6,36.6c-3.3,13.7-4.9,27.8-4.9,42.4c0,14,1.6,27.6,4.9,40.8
			c3.3,13.2,8.5,25.1,15.6,35.7c7.1,10.6,16.5,19,28,25.4c11.5,6.4,25.5,9.6,42,9.6c22.4,0,39.9-6.8,52.5-20.5
			c12.6-13.7,20.3-31.7,23.1-54.1h70.9c-1.9,20.8-6.7,39.6-14.5,56.4c-7.8,16.8-18,31.1-30.8,42.9c-12.8,11.8-27.7,20.8-44.8,27
			c-17.1,6.2-35.9,9.3-56.4,9.3c-25.5,0-48.4-4.4-68.8-13.3c-20.4-8.9-37.5-21.1-51.5-36.6c-14-15.5-24.7-33.8-32.2-54.8
			c-7.5-21-11.2-43.6-11.2-67.8c0-24.9,3.7-47.9,11.2-69.2c7.5-21.3,18.2-39.9,32.2-55.7c14-15.9,32.3-28.3,52.7-37.3
			c20.4-9,42.1-13.5,67.6-13.5c18.3,0,35.7,2.6,52,7.9c16.3,5.3,30.9,13,43.8,23.1c12.9,10.1,23.5,22.6,31.9,37.5
			c8.4,14.9,13.7,32,15.9,51.3H-722C-723.3,202.5-726.1,194.9-730.4,187.9z"/>
	</g>
	<g>
		<path d="M-647.6,211h-70.9c2.2-19.3,7.5-36.4,15.9-51.3c8.4-14.9,19-27.4,31.9-37.5c12.9-10.1,27.5-17.8,43.8-23.1
			c16.3-5.3,33.7-7.9,52-7.9c25.5,0,47.3,4.5,67.6,13.5c20.4,9,38.7,21.4,52.7,37.3c14,15.9,24.7,34.4,32.2,55.7
			c7.5,21.3,11.2,44.4,11.2,69.2c0,24.2-3.7,46.9-11.2,67.8c-7.5,21-18.2,39.2-32.2,54.8c-14,15.5-31.2,27.7-51.5,36.6
			c-20.4,8.9-43.3,13.3-68.8,13.3c-20.5,0-39.3-3.1-56.4-9.3c-17.1-6.2-32-15.2-44.8-27c-12.7-11.8-23-26.1-30.8-42.9
			c-7.8-16.8-12.6-35.6-14.5-56.4h70.9c2.8,22.4,10.5,40.4,23.1,54.1c12.6,13.7,30.1,20.5,52.5,20.5c16.5,0,30.5-3.2,42-9.6
			c11.5-6.4,20.8-14.8,28-25.4c7.2-10.6,12.4-22.5,15.6-35.7c3.3-13.2,4.9-26.8,4.9-40.8c0-14.6-1.6-28.7-4.9-42.4
			c-3.3-13.7-8.5-25.9-15.6-36.6c-7.1-10.7-16.5-19.3-28-25.6c-11.5-6.4-25.5-9.6-42-9.6c-9,0-17.6,1.5-25.9,4.4
			c-8.2,3-15.6,7.1-22.1,12.4c-6.5,5.3-12,11.4-16.3,18.4C-643.6,194.9-646.4,202.6-647.6,211z"/>
	</g>
</g>
<g id="Hilfslinien">
	<rect x="-972.9" y="-505" style="fill:none;" width="7398.2" height="466.4"/>
	<text transform="matrix(1 0 0 1 -972.8697 -155.8952)"><tspan x="0" y="0" style="font-family:'SHBDA23V1'; font-size:489px;">OPEN</tspan><tspan x="1707.6" y="0" style="font-family:'SHBDA23V1'; font-size:489px; letter-spacing:-95;"> </tspan><tspan x="1748.2" y="0" style="font-family:'SHBDA23V1'; font-size:489px;">FOR MAINTENANCE</tspan></text>
</g>
</svg>
