<?xml version="1.0" encoding="utf-8"?>
<!-- Generator: Adobe Illustrator 27.0.1, SVG Export Plug-In . SVG Version: 6.00 Build 0)  -->
<svg version="1.1" xmlns="http://www.w3.org/2000/svg" xmlns:xlink="http://www.w3.org/1999/xlink" x="0px" y="0px"
	 viewBox="0 0 102.2 593" style="enable-background:new 0 0 102.2 593;" xml:space="preserve">
<style type="text/css">
	.st0{font-family:'SH-Maintenance-V2';}
	.st1{font-size:490px;}
	.st2{letter-spacing:-19;}
	.st3{display:none;}
	.st4{display:inline;}
</style>
<g id="_x5F_V1">
	<g id="E_00000051360959627468142820000017544460044616440767_">
	</g>
	<g id="C">
	</g>
	<g id="N_x5F_3">
	</g>
	<g id="A">
	</g>
	<g id="N_00000054254949360326627830000005329152182886584764_">
	</g>
	<g id="e">
	</g>
	<g id="T">
	</g>
	<g id="N_00000127748963548567887910000006918738376549339794_">
	</g>
	<g id="I">
	</g>
	<g id="A1">
	</g>
	<g id="M">
	</g>
	<g id="R">
	</g>
	<g id="O_00000083778567647030904660000008843847121500168630_">
	</g>
	<g id="F">
	</g>
	<g id="N">
	</g>
	<g id="E">
	</g>
	<g id="P">
	</g>
	<g id="O">
	</g>
</g>
<g id="Ebene_20">
	<text transform="matrix(1 0 0 1 -966.8696 1054.6337)"><tspan x="0" y="0" class="st0 st1 st2" style="fill:#E30613;">M</tspan><tspan x="604.7" y="0" class="st0 st1" style="fill:#E30613;">A</tspan><tspan x="965.8" y="0" class="st0 st1 st2" style="fill:#E30613;">I</tspan><tspan x="1090.7" y="0" class="st0 st1" style="fill:#E30613;">NTENANCE</tspan></text>
	<rect x="-4005.3" y="709.6" style="fill:none;" width="1722.6" height="412.6"/>
	<text transform="matrix(1 0 0 1 -4005.2817 1059.489)"><tspan x="0" y="0" class="st0 st1" style="fill:#E30613;">OPEN</tspan><tspan x="1660.1" y="0" class="st0" style="fill:#E30613; font-size:485px; letter-spacing:-9;"> </tspan></text>
	<text transform="matrix(1 0 0 1 -2169.2861 1069.1068)"><tspan x="0" y="0" class="st0 st1 st2" style="fill:#E30613;">F</tspan><tspan x="252.8" y="0" class="st0 st1" style="fill:#E30613;">O</tspan><tspan x="634.1" y="0" class="st0 st1" style="fill:#E30613; letter-spacing:-167;"> </tspan><tspan x="602.7" y="0" class="st0 st1" style="fill:#E30613;">R</tspan></text>
</g>
<g id="Hilfslinien">
	<rect x="3285.3" y="682.7" style="fill:none;" width="7398.2" height="466.4"/>
	<text transform="matrix(1 0 0 1 3285.2817 1031.8804)"><tspan x="0" y="0" class="st0 st2" style="fill:#E30613; font-size:489px;">WE</tspan><tspan x="739.4" y="0" class="st0" style="fill:#E30613; font-size:489px; letter-spacing:-29;">G</tspan><tspan x="1081.2" y="0" class="st0" style="fill:#E30613; font-size:489px; letter-spacing:-9;">E</tspan><tspan x="1468.4" y="0" class="st0" style="fill:#E30613; font-size:489px;">N </tspan><tspan x="1939.8" y="0" class="st0" style="fill:#E30613; font-size:489px; letter-spacing:9;">U</tspan><tspan x="2312" y="0" class="st0" style="fill:#E30613; font-size:489px; letter-spacing:-9;">M</tspan><tspan x="2736.9" y="0" class="st0" style="fill:#E30613; font-size:489px;">B</tspan><tspan x="3081.2" y="0" class="st0 st2" style="fill:#E30613; font-size:489px;">A</tspan><tspan x="3439.1" y="0" class="st0" style="fill:#E30613; font-size:489px;">U </tspan><tspan x="3910" y="0" class="st0" style="fill:#E30613; font-size:489px; letter-spacing:-29;">G</tspan><tspan x="4268.4" y="0" class="st0" style="fill:#E30613; font-size:489px;">E</tspan><tspan x="4585.3" y="0" class="st0" style="fill:#E30613; font-size:489px; letter-spacing:-39;">Ö</tspan><tspan x="4926.6" y="0" class="st0" style="fill:#E30613; font-size:489px;">FFNET</tspan></text>
</g>
<g id="T_00000151528559115874515910000005984389023753216649_">
	<path d="M9238.7,452.2V102.4h76.9v349.8H9238.7z"/>
	<path d="M9169.1,102.4h146.5c94.6,0,140.6,55.9,140.6,149.4h-64.7c0-54.9-23.5-72.5-75.9-72.5h-146.5V102.4z"/>
</g>
<g id="E_00000150082740960534394650000001756674408269680310_">
	<path d="M9049.9,452.1V156.4H8986v295.6H9049.9z"/>
	<path d="M8927.6,353.3h140.9c0,0,13.3-74.6,23.6-132.1h-61.9l-11.8,74.6h-90.8V353.3z"/>
	<path d="M8986,452.1H9127c0,0,13.3-74.6,23.6-132.1h-61.9l-11.8,74.6H8986V452.1z"/>
	<path d="M9081.3,186.3h60.9c-7.9-43.7-15.2-84.5-15.2-84.5H8986v57.5h90.8L9081.3,186.3z"/>
</g>
<g id="N_00000099632580371903072950000016892054108610634910_">
	<path d="M8809.9,451.9l93.9-349.3h-69l-60.2,237.7h-1l-56.3-237.7h-77.3l-41.6,152.6h70.4l9.8-41.6h1l58.7,237.7L8809.9,451.9z"/>
	<rect x="8592.7" y="102.6" width="76.8" height="349.3"/>
</g>
<g id="F_00000114769032895886322120000014247326199313495697_">
	<path d="M8400.4,451.9h-76.8V102.7h245.5v64.5h-168.7V248h146.2v59.7h-146.2V451.9z"/>
</g>
<g id="F_00000173141720675959051990000004486108456543280518_">
	<path d="M8114,451.6h132.8V169.3H8192v217.1H8114V451.6z"/>
	<path d="M8146.1,451.7c0-18,2.9-33.6,10.7-46.8c6.8-12.2,16.6-23.4,28.3-31.2c11.7-7.8,25.4-13.7,40-17.6
		c14.6-3.9,30.2-5.9,70.2-5.9v-81.4c-52.2,0-76.6,3.9-100,12.2c-23.4,8.8-44.4,20-61.9,36.1c-17.6,16.6-31.2,35.1-41.4,57.5
		c-9.8,22.9-14.1,48.8-14.1,77H8146.1z"/>
	<polygon points="8295.4,100.7 8192,100.7 8192,383 8246.9,383 8246.9,165.8 8295.4,165.8 	"/>
</g>
<g id="Ö">
	<path d="M7732.1,278.8c0-103.7,64.1-184.4,171.6-184.4c107.6,0,171.6,80.7,171.6,184.4c0,100.7-64.1,181.4-171.6,181.4
		C7796.1,460.2,7732.1,379.5,7732.1,278.8z M7808.9,278.8c0,58.2,25.9,116.9,94.9,116.9c68.9,0,94.9-58.7,94.9-116.9
		c0-61.1-25.9-119.8-94.9-119.8C7834.8,159,7808.9,217.6,7808.9,278.8z M7870.5,248.9v-57.2h66v57.2H7870.5z M7870.5,336v-57.2h66
		V336H7870.5z"/>
</g>
<g id="E_00000056408675155028286430000005814045595369560991_">
	<path d="M7703.1,452.2h-265V103.1h261.1v64.5h-184.4v74.8H7684v59.7h-169.2v85.6h188.3V452.2z"/>
</g>
<g id="G_00000142136150640176763200000005464168929300255362_">
	<path d="M7060.7,368h76.4V178.8l98-1.5l-1.5-75h-174L7060.7,368z M7060.7,452.2l267.6-0.5v-63.2l-190.1,1l-1-98l-75,1.5
		L7060.7,452.2z M7228.3,451.8h101c10.8-7.4,23-15.2,33.8-22.5c11.8-8.3,21.1-17.2,30.9-26.5c8.3-8.3,15.2-18.6,21.6-32.3
		c4.4-11.8,8.3-26,8.3-42.6c0-16.7-3.9-30.9-9.3-44.6c-6.4-12.7-14.7-23.5-25.5-32.3c-10.8-8.8-23-16.2-36.8-21.1
		c-13.2-4.9-28.9-6.9-43.1-6.9c-20.6,0-37.7,3.4-53.9,10.8c-15.2,6.4-28.9,16.2-37.7,27.9c-10.8,12.7-18.1,27-23,43.1
		c-5.9,17.2-8.3,35.3-6.9,53.9h64.2c0-9.8,1.5-17.6,3.4-27.4c1.5-9.3,3.4-16.7,8.8-25c2.9-7.4,9.3-13.2,16.2-17.6
		c6.4-5.4,14.7-7.4,25.5-7.4c14.2,0,26,4.9,35.8,14.7c9.3,7.8,14.2,21.1,14.2,36.8c0,10.3-2.5,20.1-6.9,27
		c-5.4,8.3-10.8,15.7-17.2,21.6c-6.9,7.4-15.2,12.3-22.5,18.1c-8.3,4.9-16.7,10.8-24,15.7C7271.4,423.8,7241,443.4,7228.3,451.8z"/>
</g>
<g id="U_00000122691519521168774280000013841469757125651126_">
	<path d="M6905.9,463.6c-102.4-1.5-114.8-74.7-114.8-119.8v-242h77.7v238.5c0,24.3,0,55.9,37.1,57.9V463.6z"/>
	<path d="M6627.8,101.9h77.7v238.5c0,25.2,0,57.9,41.1,57.9c36.6,0,45-24.7,45-58.9v-15.8h70.3v30.7c0,77.2-57.4,109.4-116.3,109.4
		c-105.4,0-117.8-74.2-117.8-119.8V101.9z"/>
</g>
<g id="A_00000004505667569094896160000014532079075801900974_">
	<path d="M6472.4,203.9l-3,70.3l30,6.9v1l-247.3,61v75.2l121.9,33.4l15.2-61l-22.1-9.3v-1l244.4-61v-78.2L6472.4,203.9z"/>
	<polygon points="6296.8,430.6 6374.5,451.7 6380.4,451.7 6438.9,212.8 6439.9,212.8 6499.4,451.7 6576.1,451.7 6611.5,319.5 
		6543.2,317.5 6537.3,342.6 6536.3,342.6 6476.3,101.1 6404,101.1 6343,339.6 6342.1,339.6 	"/>
</g>
<g id="B">
	<path d="M5933.5,452.2V103.1h164.3c66.5,0,111.5,21.5,111.5,86.6c0,34.7-16.6,57.7-47.4,72.9c43,12.2,64.1,45,64.1,88.5
		c0,70.9-60.1,101.2-123.2,101.2H5933.5z M6082.1,162.8h-71.9v81.7h77.8c27.4,0,46.9-12.2,46.9-41.6
		C6134.9,170.1,6109.5,162.8,6082.1,162.8z M6010.2,392.6h82.2c29.8,0,56.7-9.8,56.7-46c0-35.7-22-49.9-55.3-49.9h-83.6V392.6z"/>
</g>
<g id="M_00000134250281029563310950000003257287664879667615_">
	<path d="M5676.2,335.1h75.5c-12.8-20.6-144.7-232.9-144.7-232.9h-77v350.1h72.1V217.4h1C5603.1,217.4,5639.9,276.2,5676.2,335.1z"
		/>
	<path d="M5752.2,335.1c36.3-58.8,73.1-117.7,73.1-117.7h1v234.9h72.1V102.1h-77c0,0-131.9,212.3-144.7,232.9H5752.2z"/>
</g>
<g id="U">
	<path d="M5480.3,452.2H5233v-64.6h170.4v-285h76.9V452.2z M5186,452.2V102.6h76.9v285h170.4v64.6H5186z"/>
</g>
<g id="N_00000154425763484525918430000008508601231558086807_">
	<path d="M4935.5,452.2l93.9-349.3h-69l-60.2,237.7h-1L4843,103h-77.3l-41.6,152.6h70.4l9.8-41.6h1l58.7,237.7L4935.5,452.2z"/>
	<rect x="4718.2" y="103" width="76.8" height="349.3"/>
</g>
<g id="E_00000165205204584183719570000002201050886193303485_">
	<path d="M4404.4,281.2h-64.3c0-107.2,80.4-171.1,180.8-171.1v76.5C4462.9,186.6,4404.4,212.5,4404.4,281.2z"/>
	<path d="M4512.4,381.1c0-68.7-58.5-94.5-116.5-94.5V210c100.4,0,180.8,63.8,180.8,171.1H4512.4z"/>
	<polygon points="4689.3,373.8 4689.3,452.2 4518.2,452.2 4513.3,373.8 	"/>
	<path d="M4404.4,281.2c0,68.7,58.5,94.5,116.5,94.5v76.5c-100.4,0-180.8-63.8-180.8-171.1H4404.4z"/>
	<path d="M4370.1,86.7V4.4c26.8,0,53.1,4.9,76.5,12.7c23.4,8.8,43.4,20,60.9,36.1s31.2,34.6,40.9,57.5
		c10.2,22.9,15.1,49.2,15.1,76.5h-69.2c0-18-3.4-32.7-10.2-45.8c-7.3-13.2-16.6-23.4-28.3-32.2c-11.7-7.8-25.8-13.6-40-18
		C4400.3,87.7,4385.7,86.7,4370.1,86.7z"/>
</g>
<g id="G">
	<path d="M4324.4,452.8h-48.9l-7.8-39.6c-27.4,35.2-62.1,47.9-95.8,47.9c-107.6,0-171.6-80.7-171.6-181.4
		c0-103.7,64.1-184.4,171.6-184.4c71.4,0,139.4,43.5,147.2,123.2h-73.4c-9.3-39.1-37.2-58.7-73.8-58.7c-68.9,0-94.9,58.7-94.9,119.8
		c0,58.2,25.9,116.9,94.9,116.9c50.4,0,78.7-26.4,83.1-75.3h-77.3v-57.2h146.7V452.8z"/>
</g>
<g id="E_00000005963599347184841430000018193220976272044449_">
	<path d="M3984.6,452.2h-265V103.1h261.1v64.5h-184.4v74.8h169.2v59.7h-169.2v85.6h188.3V452.2z"/>
</g>
<g id="W">
	<path d="M3453.2,219.2c-36.3,58.9-73.1,117.7-73.1,117.7h-1V102h-72.1v350.3h77c0,0,132-212.4,144.7-233H3453.2z M3529.3,219.2
		h-75.5c12.8,20.6,144.7,233,144.7,233h77V102h-72.1v235h-1C3602.4,337,3565.6,278.1,3529.3,219.2z"/>
</g>
<g id="E_00000113322483045279252990000013609696148037364875_">
	<path d="M2524.2,279.7h-64.9c0-108.1,81.1-172.5,182.4-172.5v77.2C2583.2,184.4,2524.2,210.4,2524.2,279.7z"/>
	<path d="M2635.8,380.5c0-69.3-59-95.4-117.5-95.4V208c101.3,0,182.4,64.4,182.4,172.5H2635.8z"/>
	<polygon points="2814.2,373.1 2814.2,452.2 2641.7,452.2 2636.8,373.1 	"/>
	<path d="M2524.2,279.7c0,69.3,59,95.4,117.5,95.4v77.2c-101.3,0-182.4-64.4-182.4-172.5H2524.2z"/>
	<path d="M2492.3,83.6V0.5c27,0,53.6,4.9,77.2,12.8c23.6,8.8,43.7,20.2,61.4,36.4s31.5,34.9,41.3,58c10.3,23.1,15.2,49.6,15.2,77.2
		h-69.8c0-18.2-3.4-32.9-10.3-46.2c-7.4-13.3-16.7-23.6-28.5-32.4c-11.8-7.9-26.1-13.8-40.3-18.2C2522.8,84.6,2508,83.6,2492.3,83.6
		z"/>
</g>
<g id="C_00000112622374827432275670000003417328206733987971_">
	<path d="M2430.1,219.4h-74.5c-5.4-34.8-38.7-61.3-76.4-61.3c-69.1,0-95.1,58.8-95.1,120.1c0,58.3,26,117.1,95.1,117.1
		c47,0,73.5-31.9,79.4-78.4h74.5c-7.8,87.7-67.6,143.1-153.9,143.1c-107.8,0-172-80.9-172-181.8c0-103.9,64.2-184.7,172-184.7
		C2355.6,93.4,2420.8,138.5,2430.1,219.4z"/>
</g>
<g id="N_00000117657359395406629260000008490405748572120458_">
	<path d="M1794.8,452.2h76.9V102.6h-76.9V452.2z"/>
	<polygon points="2012.7,452.2 2106.3,102.6 2037.7,102.6 1977.5,340.6 1976.5,340.6 1920.2,102.6 1842.8,102.6 1801.2,255.4 
		1871.7,255.4 1881.5,213.8 1882.5,213.8 1941.7,452.2 	"/>
</g>
<g id="A_00000070819818803741320060000005539798163125646774_">
	<path d="M1612.6,203.9l-3,70.3l30,6.9v1l-247.3,61v75.2l121.9,33.4l15.2-61l-22.1-9.3v-1l244.4-61v-78.2L1612.6,203.9z"/>
	<polygon points="1437.1,430.6 1514.8,451.7 1520.7,451.7 1579.2,212.8 1580.2,212.8 1639.7,451.7 1716.4,451.7 1751.8,319.5 
		1683.4,317.5 1677.5,342.6 1676.5,342.6 1616.5,101.1 1544.3,101.1 1483.3,339.6 1482.3,339.6 	"/>
</g>
<g id="N_00000129165096651451788460000006894638935768142516_">
	<path d="M1136.4,452.2h-72V102.4h76.4l146,234.7h1V102.4h72v349.9h-76.9L1137.4,218h-1V452.2z"/>
</g>
<g id="E_00000096737436898591806260000014476501128100374183_">
	<path d="M917.1,452.2V156.6h-63.8v295.6H917.1z"/>
	<path d="M794.8,353.5h140.9c0,0,13.3-74.6,23.6-132.1h-61.9l-11.8,74.6h-90.8V353.5z"/>
	<path d="M853.2,452.2h140.9c0,0,13.3-74.6,23.6-132.1h-61.9l-11.8,74.6h-90.8V452.2z"/>
	<path d="M948.5,186.5h60.9c-7.9-43.7-15.2-84.5-15.2-84.5H853.2v57.5h90.8L948.5,186.5z"/>
</g>
<g id="T_00000040572434587172107020000003403572265167091088_">
	<path d="M519.9,452.1h65.4V179.8h208.9V102H519.9V452.1z"/>
	<polygon points="614.6,452.2 706.1,102 640.2,102 579.3,340.7 578.8,340.7 547.7,452.1 	"/>
</g>
<g id="N_00000162323512888102647520000008162614129556769983_">
	<rect x="392.8" y="102.4" width="76.8" height="349.2"/>
	<path d="M127.7,451.6h77.8l92.9-263.1h1l90.5,263.1h79.7L339,102.4h-78.7L127.7,451.6z"/>
</g>
<g id="I_00000075868811598525912980000008971315367424001668_">
	<text transform="matrix(1 0 0 1 -15.6377 451.5694)" class="st0 st1 st2">I</text>
</g>
<g id="A_00000047767008426511249760000015642639169606536113_" class="st3">
	<polygon class="st4" points="-109.9,451.6 -16.2,451.6 -16.2,398.1 -46.1,398.1 -46.1,161.6 -109.9,161.6 	"/>
	<polygon class="st4" points="-224.2,348.1 -59.3,348.1 -59.3,167 -46.1,167 -46.1,103.2 -224.2,103.2 -224.2,167 -112.8,167 
		-112.8,284.3 -224.2,284.3 	"/>
	<path class="st4" d="M-315,451.6h75.6c0.5-23.1,3.4-48.1,8.3-75.1c5.4-27,12.8-53.5,22.1-80c9.3-26,21.1-50.5,35.3-74.1
		c14.2-23.1,30.4-42.7,48.6-58.4v-60.8h-238V169h165.4c-33.4,40.2-60.4,84.4-80.5,132.5C-298.8,349.6-311.1,399.6-315,451.6z"/>
</g>
<g id="M_00000030454837118209363920000004010763359709145015_" class="st3">
	<path class="st4" d="M-674,158.9h-153.8l0.5,216.7h-133.3v76.6h197.7l-0.5-217.2h89.3V158.9z"/>
	<polygon class="st4" points="-423.1,103.7 -499.2,103.7 -499.2,452.2 -363.1,452.2 -363.1,388.3 -423.1,388.3 	"/>
	<polygon class="st4" points="-652,103.7 -729.1,103.7 -770.6,256.5 -700.4,256 -690.1,215 -689.1,215 -630.6,452.2 -559.3,452.2 
		-498.3,213.1 -497.3,213.1 -457.8,103.7 -533.4,103.7 -594.4,341 -595.4,341 	"/>
</g>
<g id="R_00000005247159732225481780000017538744411482086332_" class="st3">
	<path class="st4" d="M-1458.6,179.2v-77c45.1,0,119.2,12.3,119.2,116.7c0,58.4-31.9,115.2-108.4,115.2h-30.4v-69.6h15.7
		c33.8,0,58.4-8.3,58.4-44.6C-1404.2,179.2-1436.6,179.2-1458.6,179.2z"/>
	<polygon class="st4" points="-1532.2,452.3 -1532.2,102.2 -1455.2,102.2 -1455.2,452.2 	"/>
	<path class="st4" d="M-1343.9,592.6h-70.6c18.1-74,53.9-143.7,103-203h-162.8v-64.7h234.4v59.8
		C-1293.9,431.7-1328.7,515.1-1343.9,592.6z"/>
</g>
<g id="O_00000139989076900347810750000014339682335261473418_" class="st3">
	<g class="st4">
		<path d="M-1897.5,278.6c0-103.9,64.2-184.7,172-184.7c107.8,0,172,80.9,172,184.7c0,100.9-64.2,181.8-172,181.8
			C-1833.3,460.4-1897.5,379.5-1897.5,278.6z M-1820.5,278.6c0,58.3,26,117.1,95.1,117.1c69.1,0,95.1-58.8,95.1-117.1
			c0-61.3-26-120.1-95.1-120.1C-1794.6,158.6-1820.5,217.4-1820.5,278.6z"/>
	</g>
</g>
<g id="F_00000112611114215638550990000001535627271961867692_" class="st3">
	<path class="st4" d="M-2096.9,452.3h132.8V170h-54.9v217.1h-77.9V452.3z"/>
	<path class="st4" d="M-2064.8,452.5c0-18,2.9-33.6,10.7-46.8c6.8-12.2,16.6-23.4,28.3-31.2c11.7-7.8,25.4-13.7,40-17.6
		s30.2-5.9,70.2-5.9v-81.4c-52.2,0-76.6,3.9-100,12.2c-23.4,8.8-44.4,20-61.9,36.1c-17.6,16.6-31.2,35.1-41.4,57.5
		c-9.8,22.9-14.1,48.8-14.1,77H-2064.8z"/>
	<polygon class="st4" points="-1915.5,101.4 -2018.9,101.4 -2018.9,383.7 -1964,383.7 -1964,166.6 -1915.5,166.6 	"/>
</g>
<g id="N_00000099642370421911350830000011672063677233731245_" class="st3">
	<path class="st4" d="M-2667.4,298.6l9.7,41.7h1l60.8-238.2h72l59.8,241.1h1l57.3-241.1h75.5l-94.1,350h-76.5l-59.3-238.2h-1
		l-58.3,238.2h-77.9l-40.8-154.3L-2667.4,298.6z"/>
</g>
<g id="E_00000111172922047511655530000000589010560551726259_" class="st3">
	<path class="st4" d="M-2749.9,452h-265.6V102.1h261.7v64.7h-184.7v75h169.5v59.8h-169.5v85.8h188.7V452z"/>
</g>
<g id="P_00000129171892025599386490000003898456772564684721_" class="st3">
	<path class="st4" d="M-3303,461.2c104.6,0,116.8-73.6,116.8-118.8V220.2h-77.1c0,98.2,0,118.8,0,118.8c0,25,0,57.4-40.7,57.4
		c-36.3,0-44.7-24.5-44.7-58.4v-15.7h-69.7v30.4C-3418.3,429.3-3361.4,461.2-3303,461.2z"/>
	<polygon class="st4" points="-3263.2,344.9 -3186.1,344.9 -3186.1,167.1 -3059.5,167.1 -3059.5,102.3 -3263.2,102.3 	"/>
	<path class="st4" d="M-3059.5,112.3h-77.1v177.7h-126.7v64.8h203.7V112.3z"/>
</g>
<g id="O_00000039126086928192479570000000753659908774239892_" class="st3">
	<polygon class="st4" points="-3448.2,103 -3525,103 -3525,387.5 -3695.1,387.5 -3695.1,452.1 -3448.2,452.1 	"/>
	<polygon class="st4" points="-3524,103 -3877.4,103 -3877.4,349.9 -3808.5,349.9 -3808.5,179.7 -3524,179.7 	"/>
	<polygon class="st4" points="-3873.1,103 -3949.8,103 -3949.8,452.1 -3678.5,452.1 -3678.5,387.5 -3873.1,387.5 	"/>
</g>
</svg>
