<?xml version="1.0" encoding="utf-8"?>
<!-- Generator: Adobe Illustrator 27.0.1, SVG Export Plug-In . SVG Version: 6.00 Build 0)  -->
<svg version="1.1" xmlns="http://www.w3.org/2000/svg" xmlns:xlink="http://www.w3.org/1999/xlink" x="0px" y="0px"
	 viewBox="0 0 323.1 530" style="enable-background:new 0 0 323.1 530;" xml:space="preserve">
<style type="text/css">
	.st0{display:none;}
	.st1{display:inline;}
	.st2{display:none;fill:#010202;}
	.st3{fill:#010202;}
</style>
<g id="E_00000051360959627468142820000017544460044616440767_">
	<g>
		<path d="M-691,7488.1h-265.5v-349.8h261.6v64.7h-184.7v75h169.5v59.8h-169.5v85.7H-691V7488.1z"/>
	</g>
</g>
<g id="C">
	<g>
		<path d="M1342.3,738.1h-72.7c-5.3-33.9-37.8-59.8-74.6-59.8c-67.4,0-92.8,57.4-92.8,117.1c0,56.9,25.3,114.3,92.8,114.3
			c45.9,0,71.7-31.1,77.5-76.5h72.7c-7.6,85.6-66,139.6-150.1,139.6c-105.2,0-167.8-78.9-167.8-177.4
			c0-101.4,62.6-180.3,167.8-180.3C1269.7,615.2,1333.3,659.2,1342.3,738.1z"/>
	</g>
</g>
<g id="N_x5F_3">
	<polygon points="732.5,1379.8 690.7,1533.6 761.5,1533.6 771.3,1491.8 772.3,1491.8 831.3,1730.6 903,1731.1 996.9,1381.8 
		928.1,1380.8 867.7,1619.1 866.7,1619.1 810.2,1380.3 	"/>
	<polygon points="765.1,1380 688.5,1379.5 687.5,1530.9 687,1595.8 686,1729.9 762.7,1730.4 	"/>
</g>
<g id="A">
	<path d="M587.5,1375.1c0-9.8-1-20.6-2.9-32.4c-2-12.3-6.4-23.1-13.7-33.4c-6.9-10.3-17.2-19.1-30.4-26c-13.3-6.9-31.4-10.3-54-10.3
		c-12.8,0-25,1.5-36.8,5.4c-11.8,3.4-22.6,8.8-31.9,16.2c-9.3,7.9-16.7,17.2-22.6,29c-5.4,11.8-8.3,26-8.3,42.7v126.2h60.4V1379
		c0-7.4,0.5-14.2,1.5-20.6c1.5-5.9,3.4-11.3,5.9-15.7c2.9-4.4,6.9-7.9,11.8-10.3s11.3-3.9,19.1-3.9c8.8,0,15.7,1.5,20.6,4.9
		c4.9,2.9,8.3,6.9,10.3,11.8c2,4.9,3.4,10.3,3.9,16.2c0.5,5.9,0.5,11.3,0.5,16.7v114.4h66.8V1375.1z"/>
	<polygon points="587.4,1492.4 643.4,1492.4 643.9,1209.2 643.9,1142.4 392.5,1142.4 392.5,1209.2 587.4,1209.2 	"/>
	<polygon points="403,1492.4 458.8,1492.4 459.3,1209.2 459.3,1142.5 355.5,1142.5 355.5,1209.2 403,1209.2 	"/>
</g>
<g id="N_00000054254949360326627830000005329152182886584764_">
	<g class="st0">
		<path class="st1" d="M238.7,441.3V156.1H68.1V91.4h247.5v349.9H238.7z"/>
	</g>
	<path d="M12.1,385c10.1,0,18-1.8,23.5-5.4c5.6-3.6,9.6-8.2,12-14c2.5-5.7,3.9-11.9,4.4-18.6c0.5-6.7,0.7-13.1,0.7-19.4V91.4h76.9
		v239.7c0,11.4-1.1,24-3.4,37.7c-2.3,13.7-7.5,26.5-15.7,38.5c-8.2,11.9-19.9,21.9-35.3,29.9c-15.4,8-36.1,12-62.2,12L12.1,385z"/>
</g>
<g id="e">
	<g>
		<path d="M-216.9,436.9c-14-2.3-27-7.7-39.2-16c-12.2-8.3-22.3-20.3-30.4-35.9c-8.2-15.6-12.2-36.8-12.2-63.4
			c0-15,2.1-29.4,6.2-43.4c4.2-14,10.6-26.5,19.5-37.4c8.8-11,20.1-19.8,33.9-26.5c13.8-6.7,30.5-12.3,50.2-12.3h30.9v76.8h-16
			c-8.7,0-16.6,0.7-24,2c-7.3,1.3-13.6,3.7-18.7,7c-5.2,3.3-9.2,7.9-12.2,13.7c-3,5.8-4.5,13.4-4.5,22.7c0,10.3,1.8,14.7,5.5,20.4
			c3.7,5.7,8.4,9.7,14.2,12.2c5.8,2.5,12.1,4,19,4.5c6.8,0.5,13.4,0.7,19.7,0.7h163.8v78.4h-167.3
			C-190.2,440.4-203,439.2-216.9,436.9"/>
	</g>
	<polygon points="-191.4,201 -78.3,201 -78.3,169 -215.1,169 -215.1,90.7 -12.2,90.7 -11.9,278.1 -191.4,279.3 	"/>
	<g>
		<path d="M-250.8,49.7l-0.4,78.9l-87.8-0.6l-0.4,53.4c12.3-0.3,24.2,0.7,35.7,3c11.5,2.2,21.7,6.1,30.9,11.7
			c9.1,5.6,16.8,12.8,23.1,21.9c6.3,9,10.3,20.2,12.2,33.5l56.4,0.4l0-201.7L-250.8,49.7z"/>
	</g>
	<g class="st0">
		<path class="st1" d="M-251.5,693.2l-0.4,78.9l-87.8-0.6l-0.4,53.4c12.3-0.3,24.2,0.7,35.7,3c11.5,2.2,21.7,6.1,30.9,11.7
			c9.1,5.6,16.8,12.8,23.1,21.9c6.3,9,10.3,20.2,12.2,33.5l56.4,0.4l0-201.7L-251.5,693.2z"/>
	</g>
</g>
<g id="T">
	<text transform="matrix(1 0 0 1 -653.4888 440.035)" style="font-family:'SHBDA23V1'; font-size:489px;">T</text>
</g>
<g id="N_00000127748963548567887910000006918738376549339794_">
	<g>
		<path d="M-910.3,440.6h-72V90.8h76.4l146,234.7h1V90.8h72v349.9h-76.9l-145.5-234.2h-1V440.6z"/>
	</g>
</g>
<g id="I">
	<g>
		<path d="M-878.5,7488h-76.9v-349.6h76.9V7488z"/>
	</g>
</g>
<g id="A1">
	<path class="st0" d="M-975.4,7138.6h178.9v64h-13.4v117.8h0.2v64h-165.7v-64h111.7v-117.8h-111.7V7138.6z"/>
	<path class="st0" d="M-860.3,7197.3h64v237.2h29.7v53.8h-93.7V7197.3z"/>
	<path class="st0" d="M-924.7,7258.5c-14.2,23.3-26,48.1-35.5,74.5c-9.5,26.3-16.8,53-22,79.9c-5.2,27-7.9,52.1-8.2,75.5h-76
		c4-52.3,16.2-102.6,36.7-150.9c20.5-48.3,47.4-92.6,80.7-132.9h-165.9v-66H-876v61C-894.3,7215.5-910.6,7235.2-924.7,7258.5z"/>
	<rect x="-797.6" y="7138.5" class="st2" width="112.1" height="64"/>
	<polygon class="st2" points="-796.3,7201.3 -810.5,7201.3 -810.5,7384.3 -684.6,7384.3 -684.6,7320.3 -796.3,7320.3 	"/>
	<rect x="-766.6" y="7434.5" class="st3" width="111.9" height="53.8"/>
</g>
<g id="M">
	<path d="M-800.5,7291.4l41.8-154.1l78,0.5l56.9,238.8l1,0l60.8-238l76.5,0.5l-39.4,108.7l-1,0l-61.3,241l-72.1-0.4l-59.4-238.8
		l-1,0l-10,41.6L-800.5,7291.4z"/>
	<path d="M-857.4,7192.1l154-0.1l0.1,77l-89.8,0.1l0.4,218.8l-199.4,0.1l-0.1-77l134.4-0.1L-857.4,7192.1z"/>
	<path d="M-450.2,7138.7l0.2,284.7l60.3,0l0,64.8l-137.4,0.1l-0.2-349.5L-450.2,7138.7z"/>
	<rect x="-888.7" y="7407.8" class="st2" width="151" height="77"/>
	<rect x="-799.2" y="7188.7" class="st2" width="61.4" height="77"/>
	<rect x="-1088.4" y="7189.1" class="st2" width="135.3" height="77"/>
	<polygon class="st2" points="-896.3,7290.7 -911.1,7342.3 -912.1,7342.3 -969.8,7136.9 -1045.6,7136.9 -951,7488.8 -874.2,7488.8 
		-825.4,7290.7 	"/>
	<rect x="-485.6" y="7423.1" class="st2" width="110.7" height="64.8"/>
</g>
<g id="R">
	<g>
		<path d="M-912.3,7487.8h-96.5v-56.1h30.6v-247.5h65.9V7487.8z"/>
	</g>
	<g>
		<path d="M-709.2,7366.5v211.8h-55.4v-146h-244.1v-65.9H-709.2z"/>
	</g>
	<g>
		<path d="M-978.1,7138.5c21.8,0,42.2,3.4,61,10.1c18.9,6.7,35.3,16.4,49.3,28.9c14,12.6,25,28,32.9,46.4c8,18.3,12,38.9,12,61.9
			c0,18.5-2.8,35.4-8.4,50.8c-5.6,15.4-13.7,28.8-24.3,40.3c-10.6,11.5-23.5,20.7-38.6,27.7c-15.1,7-32,11.3-50.8,13v-63.8
			c20.1-2.5,36.4-9.4,48.7-20.8c12.3-11.3,18.5-27.1,18.5-47.2c0-14.8-2.9-27.4-8.6-37.8c-5.7-10.3-13.4-18.7-22.9-25.2
			c-9.5-6.4-20.2-11.1-32.1-14.1c-11.9-2.9-24.1-4.4-36.7-4.4"/>
	</g>
</g>
<g id="O_00000083778567647030904660000008843847121500168630_">
	<g>
		<path d="M-994.2,7314.2c0-100.4,62.1-178.6,166.3-178.6c104.2,0,166.3,78.2,166.3,178.6c0,97.6-62.1,175.8-166.3,175.8
			C-932.1,7490-994.2,7411.8-994.2,7314.2z M-919.8,7314.2c0,56.4,25.1,113.2,91.9,113.2s91.9-56.8,91.9-113.2
			c0-59.2-25.1-116.1-91.9-116.1S-919.8,7255-919.8,7314.2z"/>
	</g>
</g>
<g id="F">
	<path d="M-926.9,7488c0-18,2.9-33.5,10.7-46.7c6.8-12.2,16.5-23.3,28.2-31.1c11.7-7.8,25.3-13.6,39.9-17.5
		c14.6-3.9,30.1-5.8,70-5.8v-81.2c-52,0-76.3,3.9-99.7,12.2c-23.3,8.8-44.2,19.9-61.7,36c-17.5,16.5-31.1,35-41.3,57.4
		c-9.7,22.8-14.1,48.6-14.1,76.8H-926.9z"/>
	<polygon points="-777.1,7138.4 -879.6,7138.4 -879.6,7418.4 -825.2,7418.4 -825.2,7203.1 -777.1,7203.1 	"/>
	<polygon points="-957,7487.8 -825.3,7487.8 -825.3,7207.8 -879.7,7207.8 -879.7,7423.1 -957,7423.1 	"/>
</g>
<g id="N">
	<g class="st0">
		<path class="st1" d="M-920.5,7334l9.6,41.4h1l60.4-236.9h71.7l59.5,239.9h1l57-239.9h75.1l-93.6,348.1h-76l-59-236.9h-1l-58,236.9
			h-77.5l-40.6-153.4L-920.5,7334z"/>
	</g>
	<polygon class="st2" points="-913.8,7137.8 -989.2,7137.8 -936.2,7335.1 -866.8,7335.1 	"/>
	<path d="M-866.3,7334.7l9.7,41.7h1l60.8-238.2h72l59.8,241.1h1l57.3-241.1h75.5l-94.1,349.9h-76.4l-59.3-238.2h-1l-58.3,238.2
		h-77.9l-40.8-154.2L-866.3,7334.7z"/>
</g>
<g id="E">
	<g>
		<path d="M1665.1,1541.1h-265V1192h261.1v64.5h-184.4v74.8H1646v59.7h-169.2v85.6h188.3V1541.1z"/>
	</g>
</g>
<g id="P">
	<polygon class="st0" points="-636.6,7137.6 -712.4,7137.6 -712.4,7312.5 -837.1,7312.5 -837.1,7376.2 -636.6,7376.2 	"/>
	<polygon class="st0" points="-837.1,7376 -761.3,7376 -761.3,7201.1 -636.6,7201.1 -636.6,7137.3 -837.1,7137.3 	"/>
	<path d="M-876.5,7491.4c102.9,0,115-72.5,115-116.9v-120.3h-75.9c0,96.6,0,116.9,0,116.9c0,24.6,0,56.5-40.1,56.5
		c-35.8,0-44-24.2-44-57.5v-15.5H-990v30C-990,7460-934,7491.4-876.5,7491.4z"/>
</g>
<g id="O">
	<g class="st0">
		<path class="st1" d="M-759.8,7235.1c-4.4-7-9.8-13.1-16.3-18.4c-6.5-5.3-13.9-9.4-22.1-12.4c-8.2-3-16.9-4.4-25.9-4.4
			c-16.5,0-30.5,3.2-42,9.6c-11.5,6.4-20.8,14.9-28,25.6c-7.2,10.7-12.4,22.9-15.6,36.6c-3.3,13.7-4.9,27.8-4.9,42.4
			c0,14,1.6,27.6,4.9,40.8c3.3,13.2,8.5,25.1,15.6,35.7c7.1,10.6,16.5,19,28,25.4c11.5,6.4,25.5,9.6,42,9.6
			c22.4,0,39.9-6.8,52.5-20.5c12.6-13.7,20.3-31.7,23.1-54.1h70.9c-1.9,20.8-6.7,39.6-14.5,56.4c-7.8,16.8-18,31.1-30.8,42.9
			c-12.8,11.8-27.7,20.8-44.8,27c-17.1,6.2-35.9,9.3-56.4,9.3c-25.5,0-48.4-4.4-68.8-13.3c-20.4-8.9-37.5-21.1-51.5-36.6
			c-14-15.5-24.7-33.8-32.2-54.8c-7.5-21-11.2-43.6-11.2-67.8c0-24.9,3.7-47.9,11.2-69.2c7.5-21.3,18.2-39.9,32.2-55.7
			c14-15.9,32.3-28.3,52.7-37.3c20.4-9,42.1-13.5,67.6-13.5c18.3,0,35.7,2.6,52,7.9c16.3,5.3,30.9,13,43.8,23.1
			c12.9,10.1,23.5,22.6,31.9,37.5c8.4,14.9,13.7,32,15.9,51.3h-70.9C-752.7,7249.8-755.5,7242.1-759.8,7235.1z"/>
	</g>
	<g>
		<path d="M-677,7258.2h-70.9c2.2-19.3,7.5-36.4,15.9-51.3c8.4-14.9,19-27.4,31.9-37.5c12.9-10.1,27.5-17.8,43.8-23.1
			c16.3-5.3,33.7-7.9,52-7.9c25.5,0,47.3,4.5,67.6,13.5c20.4,9,38.7,21.4,52.7,37.3c14,15.9,24.7,34.4,32.2,55.7
			c7.5,21.3,11.2,44.4,11.2,69.2c0,24.2-3.7,46.9-11.2,67.8c-7.5,21-18.2,39.2-32.2,54.8c-14,15.5-31.2,27.7-51.5,36.6
			c-20.4,8.9-43.3,13.3-68.8,13.3c-20.5,0-39.3-3.1-56.4-9.3c-17.1-6.2-32-15.2-44.8-27c-12.7-11.8-23-26.1-30.8-42.9
			c-7.8-16.8-12.6-35.6-14.5-56.4h70.9c2.8,22.4,10.5,40.4,23.1,54.1c12.6,13.7,30.1,20.5,52.5,20.5c16.5,0,30.5-3.2,42-9.6
			c11.5-6.4,20.8-14.8,28-25.4c7.2-10.6,12.4-22.5,15.6-35.7c3.3-13.2,4.9-26.8,4.9-40.8c0-14.6-1.6-28.8-4.9-42.4
			c-3.3-13.7-8.5-25.9-15.6-36.6c-7.1-10.7-16.5-19.3-28-25.6c-11.5-6.4-25.5-9.6-42-9.6c-9,0-17.6,1.5-25.9,4.4
			c-8.2,3-15.6,7.1-22.1,12.4c-6.5,5.3-12,11.4-16.3,18.4C-672.9,7242.2-675.7,7249.9-677,7258.2z"/>
	</g>
</g>
<g id="Hilfslinien">
	<rect x="-5026.9" y="-505" style="fill:none;" width="7398.2" height="466.4"/>
	<text transform="matrix(1 0 0 1 -5026.8936 -155.8952)" style="font-family:'SHBDA23V1'; font-size:489px;">OPEN FOR MAINTENANCE</text>
</g>
</svg>
