<?xml version="1.0" encoding="utf-8"?>
<!-- Generator: Adobe Illustrator 27.0.1, SVG Export Plug-In . SVG Version: 6.00 Build 0)  -->
<svg version="1.1" xmlns="http://www.w3.org/2000/svg" xmlns:xlink="http://www.w3.org/1999/xlink" x="0px" y="0px"
	 viewBox="0 0 412 593" style="enable-background:new 0 0 412 593;" xml:space="preserve">
<style type="text/css">
	.st0{display:none;}
	.st1{display:inline;}
	.st2{font-family:'SH-Maintenance-V2';}
	.st3{font-size:490px;}
	.st4{letter-spacing:-19;}
</style>
<g id="_x5F_V1">
	<g id="E_00000051360959627468142820000017544460044616440767_">
	</g>
	<g id="C">
	</g>
	<g id="N_x5F_3">
	</g>
	<g id="A">
	</g>
	<g id="N_00000054254949360326627830000005329152182886584764_">
	</g>
	<g id="e">
	</g>
	<g id="T">
	</g>
	<g id="N_00000127748963548567887910000006918738376549339794_">
	</g>
	<g id="I">
	</g>
	<g id="A1">
	</g>
	<g id="M">
	</g>
	<g id="R">
	</g>
	<g id="O_00000083778567647030904660000008843847121500168630_">
	</g>
	<g id="F">
	</g>
	<g id="N">
	</g>
	<g id="E">
	</g>
	<g id="P">
	</g>
	<g id="O">
	</g>
</g>
<g id="Ebene_20">
	<text transform="matrix(1 0 0 1 -1069.2485 1054.6337)"><tspan x="0" y="0" class="st2 st3 st4" style="fill:#E30613;">M</tspan><tspan x="604.7" y="0" class="st2 st3" style="fill:#E30613;">A</tspan><tspan x="965.8" y="0" class="st2 st3 st4" style="fill:#E30613;">I</tspan><tspan x="1090.7" y="0" class="st2 st3" style="fill:#E30613;">NTENANCE</tspan></text>
	<rect x="-4107.7" y="709.6" style="fill:none;" width="1722.6" height="412.6"/>
	<text transform="matrix(1 0 0 1 -4107.6606 1059.489)"><tspan x="0" y="0" class="st2 st3" style="fill:#E30613;">OPEN</tspan><tspan x="1660.1" y="0" class="st2" style="fill:#E30613; font-size:485px; letter-spacing:-9;"> </tspan></text>
	<text transform="matrix(1 0 0 1 -2271.6653 1069.1068)"><tspan x="0" y="0" class="st2 st3 st4" style="fill:#E30613;">F</tspan><tspan x="252.8" y="0" class="st2 st3" style="fill:#E30613;">O</tspan><tspan x="634.1" y="0" class="st2 st3" style="fill:#E30613; letter-spacing:-167;"> </tspan><tspan x="602.7" y="0" class="st2 st3" style="fill:#E30613;">R</tspan></text>
</g>
<g id="Hilfslinien">
	<rect x="3182.9" y="682.7" style="fill:none;" width="7398.2" height="466.4"/>
	<text transform="matrix(1 0 0 1 3182.9028 1031.8804)"><tspan x="0" y="0" class="st2 st4" style="fill:#E30613; font-size:489px;">WE</tspan><tspan x="739.4" y="0" class="st2" style="fill:#E30613; font-size:489px; letter-spacing:-29;">G</tspan><tspan x="1081.2" y="0" class="st2" style="fill:#E30613; font-size:489px; letter-spacing:-9;">E</tspan><tspan x="1468.4" y="0" class="st2" style="fill:#E30613; font-size:489px;">N </tspan><tspan x="1939.8" y="0" class="st2" style="fill:#E30613; font-size:489px; letter-spacing:9;">U</tspan><tspan x="2312" y="0" class="st2" style="fill:#E30613; font-size:489px; letter-spacing:-9;">M</tspan><tspan x="2736.9" y="0" class="st2" style="fill:#E30613; font-size:489px;">B</tspan><tspan x="3081.2" y="0" class="st2 st4" style="fill:#E30613; font-size:489px;">A</tspan><tspan x="3439.1" y="0" class="st2" style="fill:#E30613; font-size:489px;">U </tspan><tspan x="3910" y="0" class="st2" style="fill:#E30613; font-size:489px; letter-spacing:-29;">G</tspan><tspan x="4268.4" y="0" class="st2" style="fill:#E30613; font-size:489px;">E</tspan><tspan x="4585.3" y="0" class="st2" style="fill:#E30613; font-size:489px; letter-spacing:-39;">Ö</tspan><tspan x="4926.6" y="0" class="st2" style="fill:#E30613; font-size:489px;">FFNET</tspan></text>
</g>
<g id="T_00000151528559115874515910000005984389023753216649_">
	<path d="M9136.3,452.2V102.4h76.9v349.8H9136.3z"/>
	<path d="M9066.7,102.4h146.5c94.6,0,140.6,55.9,140.6,149.4h-64.7c0-54.9-23.5-72.5-75.9-72.5h-146.5V102.4z"/>
</g>
<g id="E_00000150082740960534394650000001756674408269680310_">
	<path d="M8947.5,452.1V156.4h-63.8v295.6H8947.5z"/>
	<path d="M8825.2,353.3h140.9c0,0,13.3-74.6,23.6-132.1h-61.9l-11.8,74.6h-90.8V353.3z"/>
	<path d="M8883.7,452.1h140.9c0,0,13.3-74.6,23.6-132.1h-61.9l-11.8,74.6h-90.8V452.1z"/>
	<path d="M8978.9,186.3h60.9c-7.9-43.7-15.2-84.5-15.2-84.5h-140.9v57.5h90.8L8978.9,186.3z"/>
</g>
<g id="N_00000099632580371903072950000016892054108610634910_">
	<path d="M8707.5,451.9l93.9-349.3h-69l-60.2,237.7h-1l-56.3-237.7h-77.3l-41.6,152.6h70.4l9.8-41.6h1l58.7,237.7L8707.5,451.9z"/>
	<rect x="8490.3" y="102.6" width="76.8" height="349.3"/>
</g>
<g id="F_00000114769032895886322120000014247326199313495697_">
	<path d="M8298,451.9h-76.8V102.7h245.5v64.5H8298V248h146.2v59.7H8298V451.9z"/>
</g>
<g id="F_00000173141720675959051990000004486108456543280518_">
	<path d="M8011.7,451.6h132.8V169.3h-54.9v217.1h-77.9V451.6z"/>
	<path d="M8043.7,451.7c0-18,2.9-33.6,10.7-46.8c6.8-12.2,16.6-23.4,28.3-31.2c11.7-7.8,25.4-13.7,40-17.6
		c14.6-3.9,30.2-5.9,70.2-5.9v-81.4c-52.2,0-76.6,3.9-100,12.2c-23.4,8.8-44.4,20-61.9,36.1c-17.6,16.6-31.2,35.1-41.4,57.5
		c-9.8,22.9-14.1,48.8-14.1,77H8043.7z"/>
	<polygon points="8193,100.7 8089.6,100.7 8089.6,383 8144.5,383 8144.5,165.8 8193,165.8 	"/>
</g>
<g id="Ö">
	<path d="M7629.7,278.8c0-103.7,64.1-184.4,171.6-184.4c107.6,0,171.6,80.7,171.6,184.4c0,100.7-64.1,181.4-171.6,181.4
		C7693.8,460.2,7629.7,379.5,7629.7,278.8z M7706.5,278.8c0,58.2,25.9,116.9,94.9,116.9c68.9,0,94.9-58.7,94.9-116.9
		c0-61.1-25.9-119.8-94.9-119.8C7732.4,159,7706.5,217.6,7706.5,278.8z M7768.1,248.9v-57.2h66v57.2H7768.1z M7768.1,336v-57.2h66
		V336H7768.1z"/>
</g>
<g id="E_00000056408675155028286430000005814045595369560991_">
	<path d="M7600.7,452.2h-265V103.1h261.1v64.5h-184.4v74.8h169.2v59.7h-169.2v85.6h188.3V452.2z"/>
</g>
<g id="G_00000142136150640176763200000005464168929300255362_">
	<path d="M6958.3,368h76.4V178.8l98-1.5l-1.5-75h-174L6958.3,368z M6958.3,452.2l267.6-0.5v-63.2l-190.1,1l-1-98l-75,1.5
		L6958.3,452.2z M7125.9,451.8h101c10.8-7.4,23-15.2,33.8-22.5c11.8-8.3,21.1-17.2,30.9-26.5c8.3-8.3,15.2-18.6,21.6-32.3
		c4.4-11.8,8.3-26,8.3-42.6c0-16.7-3.9-30.9-9.3-44.6c-6.4-12.7-14.7-23.5-25.5-32.3c-10.8-8.8-23-16.2-36.8-21.1
		c-13.2-4.9-28.9-6.9-43.1-6.9c-20.6,0-37.7,3.4-53.9,10.8c-15.2,6.4-28.9,16.2-37.7,27.9c-10.8,12.7-18.1,27-23,43.1
		c-5.9,17.2-8.3,35.3-6.9,53.9h64.2c0-9.8,1.5-17.6,3.4-27.4c1.5-9.3,3.4-16.7,8.8-25c2.9-7.4,9.3-13.2,16.2-17.6
		c6.4-5.4,14.7-7.4,25.5-7.4c14.2,0,26,4.9,35.8,14.7c9.3,7.8,14.2,21.1,14.2,36.8c0,10.3-2.5,20.1-6.9,27
		c-5.4,8.3-10.8,15.7-17.2,21.6c-6.9,7.4-15.2,12.3-22.5,18.1c-8.3,4.9-16.7,10.8-24,15.7C7169,423.8,7138.6,443.4,7125.9,451.8z"/>
</g>
<g id="U_00000122691519521168774280000013841469757125651126_">
	<path d="M6803.6,463.6c-102.4-1.5-114.8-74.7-114.8-119.8v-242h77.7v238.5c0,24.3,0,55.9,37.1,57.9V463.6z"/>
	<path d="M6525.4,101.9h77.7v238.5c0,25.2,0,57.9,41.1,57.9c36.6,0,45-24.7,45-58.9v-15.8h70.3v30.7c0,77.2-57.4,109.4-116.3,109.4
		c-105.4,0-117.8-74.2-117.8-119.8V101.9z"/>
</g>
<g id="A_00000004505667569094896160000014532079075801900974_">
	<path d="M6370,203.9l-3,70.3l30,6.9v1l-247.3,61v75.2l121.9,33.4l15.2-61l-22.1-9.3v-1l244.4-61v-78.2L6370,203.9z"/>
	<polygon points="6194.4,430.6 6272.1,451.7 6278,451.7 6336.6,212.8 6337.5,212.8 6397,451.7 6473.7,451.7 6509.2,319.5 
		6440.8,317.5 6434.9,342.6 6433.9,342.6 6373.9,101.1 6301.6,101.1 6240.7,339.6 6239.7,339.6 	"/>
</g>
<g id="B">
	<path d="M5831.1,452.2V103.1h164.3c66.5,0,111.5,21.5,111.5,86.6c0,34.7-16.6,57.7-47.4,72.9c43,12.2,64.1,45,64.1,88.5
		c0,70.9-60.1,101.2-123.2,101.2H5831.1z M5979.7,162.8h-71.9v81.7h77.8c27.4,0,46.9-12.2,46.9-41.6
		C6032.5,170.1,6007.1,162.8,5979.7,162.8z M5907.9,392.6h82.2c29.8,0,56.7-9.8,56.7-46c0-35.7-22-49.9-55.3-49.9h-83.6V392.6z"/>
</g>
<g id="M_00000134250281029563310950000003257287664879667615_">
	<path d="M5573.8,335.1h75.5c-12.8-20.6-144.7-232.9-144.7-232.9h-77v350.1h72.1V217.4h1C5500.8,217.4,5537.5,276.2,5573.8,335.1z"
		/>
	<path d="M5649.8,335.1c36.3-58.8,73.1-117.7,73.1-117.7h1v234.9h72.1V102.1h-77c0,0-131.9,212.3-144.7,232.9H5649.8z"/>
</g>
<g id="U">
	<path d="M5377.9,452.2h-247.3v-64.6H5301v-285h76.9V452.2z M5083.6,452.2V102.6h76.9v285h170.4v64.6H5083.6z"/>
</g>
<g id="N_00000154425763484525918430000008508601231558086807_">
	<path d="M4833.1,452.2L4927,103h-69l-60.2,237.7h-1L4740.6,103h-77.3l-41.6,152.6h70.4l9.8-41.6h1l58.7,237.7L4833.1,452.2z"/>
	<rect x="4615.9" y="103" width="76.8" height="349.3"/>
</g>
<g id="E_00000165205204584183719570000002201050886193303485_">
	<path d="M4302,281.2h-64.3c0-107.2,80.4-171.1,180.8-171.1v76.5C4360.5,186.6,4302,212.5,4302,281.2z"/>
	<path d="M4410,381.1c0-68.7-58.5-94.5-116.5-94.5V210c100.4,0,180.8,63.8,180.8,171.1H4410z"/>
	<polygon points="4586.9,373.8 4586.9,452.2 4415.8,452.2 4411,373.8 	"/>
	<path d="M4302,281.2c0,68.7,58.5,94.5,116.5,94.5v76.5c-100.4,0-180.8-63.8-180.8-171.1H4302z"/>
	<path d="M4267.7,86.7V4.4c26.8,0,53.1,4.9,76.5,12.7c23.4,8.8,43.4,20,60.9,36.1s31.2,34.6,40.9,57.5
		c10.2,22.9,15.1,49.2,15.1,76.5H4392c0-18-3.4-32.7-10.2-45.8c-7.3-13.2-16.6-23.4-28.3-32.2c-11.7-7.8-25.8-13.6-40-18
		C4297.9,87.7,4283.3,86.7,4267.7,86.7z"/>
</g>
<g id="G">
	<path d="M4222,452.8h-48.9l-7.8-39.6c-27.4,35.2-62.1,47.9-95.8,47.9c-107.6,0-171.6-80.7-171.6-181.4
		c0-103.7,64.1-184.4,171.6-184.4c71.4,0,139.4,43.5,147.2,123.2h-73.4c-9.3-39.1-37.2-58.7-73.8-58.7c-68.9,0-94.9,58.7-94.9,119.8
		c0,58.2,25.9,116.9,94.9,116.9c50.4,0,78.7-26.4,83.1-75.3h-77.3v-57.2H4222V452.8z"/>
</g>
<g id="E_00000005963599347184841430000018193220976272044449_">
	<path d="M3882.3,452.2h-265V103.1h261.1v64.5H3694v74.8h169.2v59.7H3694v85.6h188.3V452.2z"/>
</g>
<g id="W">
	<path d="M3350.9,219.2c-36.3,58.9-73.1,117.7-73.1,117.7h-1V102h-72.1v350.3h77c0,0,132-212.4,144.7-233H3350.9z M3426.9,219.2
		h-75.5c12.8,20.6,144.7,233,144.7,233h77V102H3501v235h-1C3500,337,3463.2,278.1,3426.9,219.2z"/>
</g>
<g id="E_00000113322483045279252990000013609696148037364875_">
	<path d="M2421.9,279.7H2357c0-108.1,81.1-172.5,182.4-172.5v77.2C2480.8,184.4,2421.9,210.4,2421.9,279.7z"/>
	<path d="M2533.4,380.5c0-69.3-59-95.4-117.5-95.4V208c101.3,0,182.4,64.4,182.4,172.5H2533.4z"/>
	<polygon points="2711.8,373.1 2711.8,452.2 2539.3,452.2 2534.4,373.1 	"/>
	<path d="M2421.9,279.7c0,69.3,59,95.4,117.5,95.4v77.2c-101.3,0-182.4-64.4-182.4-172.5H2421.9z"/>
	<path d="M2389.9,83.6V0.5c27,0,53.6,4.9,77.2,12.8c23.6,8.8,43.7,20.2,61.4,36.4s31.5,34.9,41.3,58c10.3,23.1,15.2,49.6,15.2,77.2
		h-69.8c0-18.2-3.4-32.9-10.3-46.2c-7.4-13.3-16.7-23.6-28.5-32.4c-11.8-7.9-26.1-13.8-40.3-18.2
		C2420.4,84.6,2405.6,83.6,2389.9,83.6z"/>
</g>
<g id="C_00000112622374827432275670000003417328206733987971_">
	<path d="M2327.7,219.4h-74.5c-5.4-34.8-38.7-61.3-76.4-61.3c-69.1,0-95.1,58.8-95.1,120.1c0,58.3,26,117.1,95.1,117.1
		c47,0,73.5-31.9,79.4-78.4h74.5c-7.8,87.7-67.6,143.1-153.9,143.1c-107.8,0-172-80.9-172-181.8c0-103.9,64.2-184.7,172-184.7
		C2253.2,93.4,2318.4,138.5,2327.7,219.4z"/>
</g>
<g id="N_00000117657359395406629260000008490405748572120458_">
	<path d="M1692.5,452.2h76.9V102.6h-76.9V452.2z"/>
	<polygon points="1910.4,452.2 2003.9,102.6 1935.3,102.6 1875.1,340.6 1874.1,340.6 1817.8,102.6 1740.4,102.6 1698.8,255.4 
		1769.3,255.4 1779.1,213.8 1780.1,213.8 1839.4,452.2 	"/>
</g>
<g id="A_00000070819818803741320060000005539798163125646774_">
	<path d="M1510.2,203.9l-3,70.3l30,6.9v1l-247.3,61v75.2l121.9,33.4l15.2-61l-22.1-9.3v-1l244.4-61v-78.2L1510.2,203.9z"/>
	<polygon points="1334.7,430.6 1412.4,451.7 1418.3,451.7 1476.8,212.8 1477.8,212.8 1537.3,451.7 1614,451.7 1649.4,319.5 
		1581,317.5 1575.1,342.6 1574.2,342.6 1514.2,101.1 1441.9,101.1 1380.9,339.6 1379.9,339.6 	"/>
</g>
<g id="N_00000129165096651451788460000006894638935768142516_">
	<path d="M1034,452.2h-72V102.4h76.4l146,234.7h1V102.4h72v349.9h-76.9L1035,218h-1V452.2z"/>
</g>
<g id="E_00000096737436898591806260000014476501128100374183_">
	<path d="M814.7,452.2V156.6h-63.8v295.6H814.7z"/>
	<path d="M692.4,353.5h140.9c0,0,13.3-74.6,23.6-132.1H795l-11.8,74.6h-90.8V353.5z"/>
	<path d="M750.8,452.2h140.9c0,0,13.3-74.6,23.6-132.1h-61.9l-11.8,74.6h-90.8V452.2z"/>
	<path d="M846.1,186.5H907c-7.9-43.7-15.2-84.5-15.2-84.5H750.8v57.5h90.8L846.1,186.5z"/>
</g>
<g id="T_00000040572434587172107020000003403572265167091088_">
	<path d="M417.5,452.1h65.4V179.8h208.9V102H417.5V452.1z"/>
	<polygon points="512.2,452.2 603.7,102 537.9,102 477,340.7 476.5,340.7 445.3,452.1 	"/>
</g>
<g id="N_00000162323512888102647520000008162614129556769983_">
	<rect x="290.4" y="102.4" width="76.8" height="349.2"/>
	<path d="M25.3,451.6h77.8L196,188.5h1l90.5,263.1h79.7L236.6,102.4h-78.7L25.3,451.6z"/>
</g>
<g id="I_00000075868811598525912980000008971315367424001668_" class="st0">
	<text transform="matrix(1 0 0 1 -118.0168 451.5694)" class="st1 st2 st3 st4">I</text>
</g>
<g id="A_00000047767008426511249760000015642639169606536113_" class="st0">
	<polygon class="st1" points="-212.3,451.6 -118.5,451.6 -118.5,398.1 -148.5,398.1 -148.5,161.6 -212.3,161.6 	"/>
	<polygon class="st1" points="-326.6,348.1 -161.7,348.1 -161.7,167 -148.5,167 -148.5,103.2 -326.6,103.2 -326.6,167 -215.2,167 
		-215.2,284.3 -326.6,284.3 	"/>
	<path class="st1" d="M-417.4,451.6h75.6c0.5-23.1,3.4-48.1,8.3-75.1c5.4-27,12.8-53.5,22.1-80c9.3-26,21.1-50.5,35.3-74.1
		c14.2-23.1,30.4-42.7,48.6-58.4v-60.8h-238V169h165.4c-33.4,40.2-60.4,84.4-80.5,132.5C-401.2,349.6-413.4,399.6-417.4,451.6z"/>
</g>
<g id="M_00000030454837118209363920000004010763359709145015_" class="st0">
	<path class="st1" d="M-776.4,158.9h-153.8l0.5,216.7h-133.3v76.6h197.7l-0.5-217.2h89.3V158.9z"/>
	<polygon class="st1" points="-525.5,103.7 -601.6,103.7 -601.6,452.2 -465.4,452.2 -465.4,388.3 -525.5,388.3 	"/>
	<polygon class="st1" points="-754.4,103.7 -831.5,103.7 -873,256.5 -802.7,256 -792.5,215 -791.5,215 -732.9,452.2 -661.7,452.2 
		-600.7,213.1 -599.7,213.1 -560.1,103.7 -635.8,103.7 -696.8,341 -697.8,341 	"/>
</g>
<g id="R_00000005247159732225481780000017538744411482086332_" class="st0">
	<path class="st1" d="M-1561,179.2v-77c45.1,0,119.2,12.3,119.2,116.7c0,58.4-31.9,115.2-108.4,115.2h-30.4v-69.6h15.7
		c33.8,0,58.4-8.3,58.4-44.6C-1506.6,179.2-1539,179.2-1561,179.2z"/>
	<polygon class="st1" points="-1634.6,452.3 -1634.6,102.2 -1557.6,102.2 -1557.6,452.2 	"/>
	<path class="st1" d="M-1446.3,592.6h-70.6c18.1-74,53.9-143.7,103-203h-162.8v-64.7h234.4v59.8
		C-1396.3,431.7-1431.1,515.1-1446.3,592.6z"/>
</g>
<g id="O_00000139989076900347810750000014339682335261473418_" class="st0">
	<g class="st1">
		<path d="M-1999.9,278.6c0-103.9,64.2-184.7,172-184.7c107.8,0,172,80.9,172,184.7c0,100.9-64.2,181.8-172,181.8
			C-1935.7,460.4-1999.9,379.5-1999.9,278.6z M-1922.9,278.6c0,58.3,26,117.1,95.1,117.1c69.1,0,95.1-58.8,95.1-117.1
			c0-61.3-26-120.1-95.1-120.1C-1897,158.6-1922.9,217.4-1922.9,278.6z"/>
	</g>
</g>
<g id="F_00000112611114215638550990000001535627271961867692_" class="st0">
	<path class="st1" d="M-2199.2,452.3h132.8V170h-54.9v217.1h-77.9V452.3z"/>
	<path class="st1" d="M-2167.2,452.5c0-18,2.9-33.6,10.7-46.8c6.8-12.2,16.6-23.4,28.3-31.2s25.4-13.7,40-17.6
		c14.6-3.9,30.2-5.9,70.2-5.9v-81.4c-52.2,0-76.6,3.9-100,12.2c-23.4,8.8-44.4,20-61.9,36.1c-17.6,16.6-31.2,35.1-41.4,57.5
		c-9.8,22.9-14.1,48.8-14.1,77H-2167.2z"/>
	<polygon class="st1" points="-2017.9,101.4 -2121.3,101.4 -2121.3,383.7 -2066.4,383.7 -2066.4,166.6 -2017.9,166.6 	"/>
</g>
<g id="N_00000099642370421911350830000011672063677233731245_" class="st0">
	<path class="st1" d="M-2769.7,298.6l9.7,41.7h1l60.8-238.2h72l59.8,241.1h1l57.3-241.1h75.5l-94.1,350h-76.5l-59.3-238.2h-1
		l-58.3,238.2h-77.9l-40.8-154.3L-2769.7,298.6z"/>
</g>
<g id="E_00000111172922047511655530000000589010560551726259_" class="st0">
	<path class="st1" d="M-2852.3,452h-265.6V102.1h261.7v64.7h-184.7v75h169.5v59.8h-169.5v85.8h188.7V452z"/>
</g>
<g id="P_00000129171892025599386490000003898456772564684721_" class="st0">
	<path class="st1" d="M-3405.3,461.2c104.6,0,116.8-73.6,116.8-118.8V220.2h-77.1c0,98.2,0,118.8,0,118.8c0,25,0,57.4-40.7,57.4
		c-36.3,0-44.7-24.5-44.7-58.4v-15.7h-69.7v30.4C-3520.7,429.3-3463.8,461.2-3405.3,461.2z"/>
	<polygon class="st1" points="-3365.6,344.9 -3288.5,344.9 -3288.5,167.1 -3161.8,167.1 -3161.8,102.3 -3365.6,102.3 	"/>
	<path class="st1" d="M-3161.8,112.3h-77.1v177.7h-126.7v64.8h203.7V112.3z"/>
</g>
<g id="O_00000039126086928192479570000000753659908774239892_" class="st0">
	<polygon class="st1" points="-3550.6,103 -3627.3,103 -3627.3,387.5 -3797.5,387.5 -3797.5,452.1 -3550.6,452.1 	"/>
	<polygon class="st1" points="-3626.4,103 -3979.8,103 -3979.8,349.9 -3910.9,349.9 -3910.9,179.7 -3626.4,179.7 	"/>
	<polygon class="st1" points="-3975.5,103 -4052.2,103 -4052.2,452.1 -3780.9,452.1 -3780.9,387.5 -3975.5,387.5 	"/>
</g>
</svg>
