<?xml version="1.0" encoding="utf-8"?>
<!-- Generator: Adobe Illustrator 27.0.1, SVG Export Plug-In . SVG Version: 6.00 Build 0)  -->
<svg version="1.1" xmlns="http://www.w3.org/2000/svg" xmlns:xlink="http://www.w3.org/1999/xlink" x="0px" y="0px"
	 viewBox="0 0 351.5 530" style="enable-background:new 0 0 351.5 530;" xml:space="preserve">
<style type="text/css">
	.st0{display:none;}
	.st1{display:inline;}
	.st2{fill:#010202;}
</style>
<g id="Ebene_15">
	<g>
		<path d="M246.8,438.8V153.5H76.3V88.8h247.5v349.9H246.8z"/>
	</g>
	<path d="M20.2,382.4c10.1,0,18-1.8,23.5-5.4c5.6-3.6,9.6-8.2,12-14c2.5-5.7,3.9-11.9,4.4-18.6c0.5-6.7,0.7-13.1,0.7-19.4V88.8h76.9
		v239.7c0,11.4-1.1,24-3.4,37.7c-2.3,13.7-7.5,26.5-15.7,38.5c-8.2,11.9-19.9,21.9-35.3,29.9c-15.4,8-36.1,12-62.2,12L20.2,382.4z"
		/>
</g>
<g id="e" class="st0">
	<g class="st1">
		<path d="M132.6,435.7c-14-2.3-27-7.7-39.2-16c-12.2-8.3-22.3-20.3-30.4-35.9c-8.2-15.6-12.2-36.8-12.2-63.4
			c0-15,2.1-29.4,6.2-43.4c4.2-14,10.6-26.5,19.5-37.4c8.8-11,20.1-19.8,33.9-26.5c13.8-6.7,30.5-12.3,50.2-12.3h30.9v76.8h-16
			c-8.7,0-16.6,0.7-24,2c-7.3,1.3-13.6,3.7-18.7,7c-5.2,3.3-9.2,7.9-12.2,13.7c-3,5.8-4.5,13.4-4.5,22.7c0,10.3,1.8,14.7,5.5,20.4
			c3.7,5.7,8.4,9.7,14.2,12.2c5.8,2.5,12.1,4,19,4.5c6.8,0.5,13.4,0.7,19.7,0.7h163.8v78.4H171C159.4,439.2,146.6,438,132.6,435.7"
			/>
	</g>
	<polygon class="st1" points="158.1,199.7 271.2,199.7 271.2,167.8 134.5,167.8 134.5,89.4 337.3,89.4 337.7,276.9 158.1,278.1 	"/>
	<g class="st1">
		<path d="M98.7,48.5l-0.4,78.9l-87.8-0.6l-0.4,53.4c12.3-0.3,24.2,0.7,35.7,3c11.5,2.2,21.7,6.1,30.9,11.7
			c9.1,5.6,16.8,12.8,23.1,21.9c6.3,9,10.3,20.2,12.2,33.5l56.4,0.4l0-201.7L98.7,48.5z"/>
	</g>
</g>
<g id="T" class="st0">
	<g class="st1">
		<path d="M205.9,439.2H129V154H24.1V89.4h286.6V154H205.9V439.2z"/>
	</g>
</g>
<g id="N_00000127748963548567887910000006918738376549339794_" class="st0">
	<g class="st1">
		<path d="M92,439.2h-72V89.4h76.4l146,234.7h1V89.4h72v349.9h-76.9L93,205h-1V439.2z"/>
	</g>
</g>
<g id="I" class="st0">
	<g class="st1">
		<path d="M122.3,439.1H45.4V89.5h76.9V439.1z"/>
	</g>
</g>
<g id="A1" class="st0">
	<path class="st1" d="M149.4,89.6h178.9v64h-13.4v117.8h0.2v64H149.4v-64H261V153.6H149.4V89.6z"/>
	<path class="st1" d="M264.4,148.4h64v237.2h29.7v53.8h-93.7V148.4z"/>
	<path class="st1" d="M200,209.5c-14.2,23.3-26,48.1-35.5,74.5c-9.5,26.3-16.8,53-22,79.9c-5.2,27-7.9,52.1-8.2,75.5h-76
		c4-52.3,16.2-102.6,36.7-150.9c20.5-48.3,47.4-92.6,80.7-132.9H9.9v-66h238.8v61C230.4,166.6,214.1,186.2,200,209.5z"/>
	<rect x="327.1" y="89.6" class="st2" width="112.1" height="64"/>
	<polygon class="st2" points="328.5,152.3 314.3,152.3 314.3,335.4 440.1,335.4 440.1,271.4 328.5,271.4 	"/>
	<rect x="358.2" y="385.6" class="st2" width="111.9" height="53.8"/>
</g>
<g id="M" class="st0">
	<path class="st1" d="M200.2,242.5l41.8-154.1l78,0.5L377,327.6l1,0l60.8-238l76.5,0.5l-39.4,108.7l-1,0l-61.3,241l-72.1-0.4
		l-59.4-238.8l-1,0l-10,41.6L200.2,242.5z"/>
	<path class="st1" d="M143.3,143.1l154-0.1l0.1,77l-89.8,0.1l0.4,218.8L8.6,439l-0.1-77l134.4-0.1L143.3,143.1z"/>
	<path class="st1" d="M550.5,89.8l0.2,284.7l60.3,0l0,64.8l-137.4,0.1l-0.2-349.5L550.5,89.8z"/>
	<rect x="112.1" y="358.8" class="st2" width="151" height="77"/>
	<rect x="201.6" y="139.8" class="st2" width="61.4" height="77"/>
	<rect x="-87.7" y="140.1" class="st2" width="135.3" height="77"/>
	<polygon class="st2" points="104.4,241.8 89.6,293.4 88.6,293.4 31,88 -44.9,88 49.7,439.8 126.6,439.8 175.3,241.8 	"/>
	<rect x="515.1" y="374.2" class="st2" width="110.7" height="64.8"/>
</g>
<g id="R" class="st0">
	<g class="st1">
		<path d="M103.9,433.6h-95V379h30.2V138.6h64.9V433.6z"/>
	</g>
	<g class="st1">
		<path d="M304,314.1v208.6h-54.5V379H9v-64.9H304z"/>
	</g>
	<g class="st1">
		<path d="M39.2,89.5c21.5,0,41.5,3.3,60.1,9.9c18.6,6.6,34.8,16.1,48.5,28.5c13.8,12.4,24.6,27.6,32.4,45.7
			c7.8,18,11.8,38.4,11.8,60.9c0,18.2-2.8,34.8-8.3,50c-5.5,15.1-13.5,28.4-24,39.7c-10.5,11.3-23.1,20.4-38,27.3
			c-14.9,6.9-31.5,11.2-50,12.8v-62.8c19.8-2.5,35.8-9.3,47.9-20.5c12.1-11.2,18.2-26.6,18.2-46.5c0-14.6-2.8-27-8.5-37.2
			c-5.6-10.2-13.1-18.5-22.5-24.8c-9.4-6.3-19.9-10.9-31.6-13.8c-11.7-2.9-23.8-4.3-36.1-4.3"/>
	</g>
</g>
<g id="O_00000083778567647030904660000008843847121500168630_" class="st0">
	<g class="st1">
		<path d="M6.6,265.3c0-100.4,62.1-178.6,166.3-178.6c104.2,0,166.3,78.2,166.3,178.6c0,97.6-62.1,175.8-166.3,175.8
			C68.6,441,6.6,362.9,6.6,265.3z M80.9,265.3c0,56.4,25.1,113.2,91.9,113.2s91.9-56.8,91.9-113.2c0-59.2-25.1-116.1-91.9-116.1
			S80.9,206.1,80.9,265.3z"/>
	</g>
</g>
<g id="F" class="st0">
	<path class="st1" d="M73.9,439.1c0-18,2.9-33.5,10.7-46.7c6.8-12.2,16.5-23.3,28.2-31.1c11.7-7.8,25.3-13.6,39.9-17.5
		c14.6-3.9,30.1-5.8,70-5.8v-81.2c-52,0-76.3,3.9-99.7,12.2c-23.3,8.8-44.2,19.9-61.7,36c-17.5,16.5-31.1,35-41.3,57.4
		c-9.7,22.8-14.1,48.6-14.1,76.8H73.9z"/>
	<polygon class="st1" points="223.7,89.5 121.1,89.5 121.1,369.5 175.5,369.5 175.5,154.1 223.7,154.1 	"/>
	<polygon class="st1" points="43.7,438.9 175.5,438.9 175.5,158.9 121,158.9 121,374.2 43.7,374.2 	"/>
</g>
<g id="N" class="st0">
	<g class="st1">
		<path d="M80.2,285l9.6,41.4h1l60.4-236.9h71.7l59.5,239.8h1l57-239.8h75.1l-93.6,348.1h-76l-59-236.9h-1l-58,236.9H50.3L9.7,284.2
			L80.2,285z"/>
	</g>
</g>
<g id="E" class="st0">
	<g class="st1">
		<path d="M282.9,438.8h-265V89.7H279v64.5H94.7V229h169.2v59.7H94.7v85.6h188.3V438.8z"/>
	</g>
</g>
<g id="P" class="st0">
	<polygon class="st1" points="364.1,88.6 288.3,88.6 288.3,263.5 163.6,263.5 163.6,327.3 364.1,327.3 	"/>
	<polygon class="st1" points="163.6,327 239.5,327 239.5,152.1 364.1,152.1 364.1,88.4 163.6,88.4 	"/>
	<path class="st1" d="M124.2,442.5c102.9,0,115-72.5,115-116.9V205.2h-75.9c0,96.6,0,116.9,0,116.9c0,24.6,0,56.5-40.1,56.5
		c-35.8,0-44-24.2-44-57.5v-15.5H10.7v30C10.7,411.1,66.7,442.5,124.2,442.5z"/>
</g>
<g id="O" class="st0">
	<g class="st1">
		<path d="M240.9,186.1c-4.4-7-9.8-13.1-16.3-18.4c-6.5-5.3-13.9-9.4-22.1-12.4c-8.2-3-16.9-4.4-25.9-4.4c-16.5,0-30.5,3.2-42,9.6
			c-11.5,6.4-20.8,14.9-28,25.6c-7.2,10.7-12.4,22.9-15.6,36.6c-3.3,13.7-4.9,27.8-4.9,42.4c0,14,1.6,27.6,4.9,40.8
			c3.3,13.2,8.5,25.1,15.6,35.7c7.1,10.6,16.5,19,28,25.4c11.5,6.4,25.5,9.6,42,9.6c22.4,0,39.9-6.8,52.5-20.5
			c12.6-13.7,20.3-31.7,23.1-54.1H323c-1.9,20.8-6.7,39.6-14.5,56.4c-7.8,16.8-18,31.1-30.8,42.9c-12.8,11.8-27.7,20.8-44.8,27
			c-17.1,6.2-35.9,9.3-56.4,9.3c-25.5,0-48.4-4.4-68.8-13.3c-20.4-8.9-37.5-21.1-51.5-36.6c-14-15.5-24.7-33.8-32.2-54.8
			c-7.5-21-11.2-43.6-11.2-67.8c0-24.9,3.7-47.9,11.2-69.2c7.5-21.3,18.2-39.9,32.2-55.7c14-15.9,32.3-28.3,52.7-37.3
			c20.4-9,42.1-13.5,67.6-13.5c18.3,0,35.7,2.6,52,7.9c16.3,5.3,30.9,13,43.8,23.1c12.9,10.1,23.5,22.6,31.9,37.5
			c8.4,14.9,13.7,32,15.9,51.3h-70.9C248.1,200.8,245.3,193.1,240.9,186.1z"/>
	</g>
	<g class="st1">
		<path d="M323.7,209.3h-70.9c2.2-19.3,7.5-36.4,15.9-51.3c8.4-14.9,19-27.4,31.9-37.5c12.9-10.1,27.5-17.8,43.8-23.1
			c16.3-5.3,33.7-7.9,52-7.9c25.5,0,47.3,4.5,67.6,13.5c20.4,9,38.7,21.4,52.7,37.3c14,15.9,24.7,34.4,32.2,55.7
			c7.5,21.3,11.2,44.4,11.2,69.2c0,24.2-3.7,46.9-11.2,67.8c-7.5,21-18.2,39.2-32.2,54.8c-14,15.5-31.2,27.7-51.5,36.6
			c-20.4,8.9-43.3,13.3-68.8,13.3c-20.5,0-39.3-3.1-56.4-9.3c-17.1-6.2-32-15.2-44.8-27c-12.7-11.8-23-26.1-30.8-42.9
			c-7.8-16.8-12.6-35.6-14.5-56.4h70.9c2.8,22.4,10.5,40.4,23.1,54.1c12.6,13.7,30.1,20.5,52.5,20.5c16.5,0,30.5-3.2,42-9.6
			c11.5-6.4,20.8-14.8,28-25.4c7.2-10.6,12.4-22.5,15.6-35.7c3.3-13.2,4.9-26.8,4.9-40.8c0-14.6-1.6-28.7-4.9-42.4
			c-3.3-13.7-8.5-25.9-15.6-36.6c-7.1-10.7-16.5-19.3-28-25.6c-11.5-6.4-25.5-9.6-42-9.6c-9,0-17.6,1.5-25.9,4.4
			c-8.2,3-15.6,7.1-22.1,12.4c-6.5,5.3-12,11.4-16.3,18.4C327.8,193.2,325,200.9,323.7,209.3z"/>
	</g>
</g>
<g id="Hilfslinien">
</g>
</svg>
