<?xml version="1.0" encoding="utf-8"?>
<!-- Generator: Adobe Illustrator 27.0.1, SVG Export Plug-In . SVG Version: 6.00 Build 0)  -->
<svg version="1.1" xmlns="http://www.w3.org/2000/svg" xmlns:xlink="http://www.w3.org/1999/xlink" x="0px" y="0px"
	 viewBox="0 0 363.6 530" style="enable-background:new 0 0 363.6 530;" xml:space="preserve">
<style type="text/css">
	.st0{display:none;}
	.st1{display:none;fill:#010202;}
	.st2{fill:#010202;}
	.st3{display:inline;}
</style>
<g id="E_00000051360959627468142820000017544460044616440767_">
	<g>
		<path d="M-1663.4,7486.4H-1929v-349.8h261.6v64.7h-184.7v75h169.5v59.8h-169.5v85.7h188.6V7486.4z"/>
	</g>
</g>
<g id="C">
	<g>
		<path d="M338.9,207.9h-74.5c-5.4-34.8-38.7-61.3-76.5-61.3c-69.1,0-95.1,58.8-95.1,120.1c0,58.3,26,117.1,95.1,117.1
			c47,0,73.5-31.9,79.4-78.4h74.5c-7.8,87.7-67.6,143.1-153.9,143.1c-107.8,0-172-80.9-172-181.8C15.9,162.8,80.1,82,187.9,82
			C264.4,82,329.6,127.1,338.9,207.9z"/>
	</g>
</g>
<g id="N_x5F_3">
	<polygon points="-281.8,88.3 -323.6,242.1 -252.8,242.1 -243,200.3 -242,200.3 -183.1,439.1 -111.3,439.6 -17.5,90.2 -86.3,89.2 
		-146.7,327.6 -147.7,327.6 -204.2,88.8 	"/>
	<polygon points="-249.2,88.5 -325.9,88 -326.9,239.4 -327.3,304.2 -328.3,438.4 -251.7,438.9 	"/>
</g>
<g id="A">
	<path d="M-407.3,321.6c0-9.8-1-20.6-2.9-32.4c-2-12.3-6.4-23.1-13.7-33.4c-6.9-10.3-17.2-19.1-30.4-26c-13.3-6.9-31.4-10.3-54-10.3
		c-12.8,0-25,1.5-36.8,5.4c-11.8,3.4-22.6,8.8-31.9,16.2c-9.3,7.9-16.7,17.2-22.6,29c-5.4,11.8-8.3,26-8.3,42.7v126.1h60.4V325.5
		c0-7.4,0.5-14.2,1.5-20.6c1.5-5.9,3.4-11.3,5.9-15.7c2.9-4.4,6.9-7.9,11.8-10.3c4.9-2.5,11.3-3.9,19.1-3.9c8.8,0,15.7,1.5,20.6,4.9
		c4.9,2.9,8.3,6.9,10.3,11.8c2,4.9,3.4,10.3,3.9,16.2s0.5,11.3,0.5,16.7v114.3h66.7V321.6z"/>
	<polygon points="-407.4,438.9 -351.4,438.9 -351,155.7 -351,89 -602.2,89 -602.2,155.7 -407.4,155.7 	"/>
	<polygon points="-591.8,438.8 -535.9,438.8 -535.5,155.7 -535.5,89.1 -639.3,89.1 -639.3,155.7 -591.8,155.7 	"/>
</g>
<g id="N_00000054254949360326627830000005329152182886584764_">
	<g>
		<path d="M-733.7,439.6V154.4h-170.6V89.7h247.5v349.9H-733.7z"/>
	</g>
	<path d="M-960.3,383.3c10.1,0,18-1.8,23.5-5.4c5.6-3.6,9.6-8.2,12-14c2.5-5.7,3.9-11.9,4.4-18.6c0.5-6.7,0.7-13.1,0.7-19.4V89.7
		h76.9v239.7c0,11.4-1.1,24-3.4,37.7c-2.3,13.7-7.5,26.5-15.7,38.5c-8.2,11.9-19.9,21.9-35.3,29.9c-15.4,8-36.1,12-62.2,12
		L-960.3,383.3z"/>
</g>
<g id="e">
	<g>
		<path d="M-1189.3,435.2c-14-2.3-27-7.7-39.2-16c-12.2-8.3-22.3-20.3-30.4-35.9c-8.2-15.6-12.2-36.8-12.2-63.4
			c0-15,2.1-29.4,6.2-43.4c4.2-14,10.6-26.5,19.5-37.4c8.8-11,20.1-19.8,33.9-26.5c13.8-6.7,30.5-12.3,50.2-12.3h30.9V277h-16
			c-8.7,0-16.6,0.7-24,2c-7.3,1.3-13.6,3.7-18.7,7c-5.2,3.3-9.2,7.9-12.2,13.7c-3,5.8-4.5,13.4-4.5,22.7c0,10.3,1.8,14.7,5.5,20.4
			c3.7,5.7,8.4,9.7,14.2,12.2c5.8,2.5,12.1,4,19,4.5c6.8,0.5,13.4,0.7,19.7,0.7h163.8v78.4h-167.3
			C-1162.6,438.7-1175.4,437.5-1189.3,435.2"/>
	</g>
	<polygon points="-1163.8,199.3 -1050.7,199.3 -1050.7,167.3 -1187.5,167.3 -1187.5,89 -984.6,89 -984.3,276.4 -1163.8,277.6 	"/>
	<g>
		<path d="M-1223.2,48l-0.4,78.9l-87.8-0.6l-0.4,53.4c12.3-0.3,24.2,0.7,35.7,3c11.5,2.2,21.7,6.1,30.9,11.7
			c9.1,5.6,16.8,12.8,23.1,21.9c6.3,9,10.3,20.2,12.2,33.5l56.4,0.4l0-201.7L-1223.2,48z"/>
	</g>
</g>
<g id="T">
	<text transform="matrix(1 0 0 1 -1625.886 438.3318)" style="font-family:'SHBDA23V1'; font-size:489px;">T</text>
</g>
<g id="N_00000127748963548567887910000006918738376549339794_">
	<g>
		<path d="M-1882.7,438.9h-72V89.1h76.4l146,234.7h1V89.1h72v349.9h-76.9l-145.5-234.2h-1V438.9z"/>
	</g>
</g>
<g id="I">
	<g>
		<path d="M-1850.9,7486.3h-76.9v-349.6h76.9V7486.3z"/>
	</g>
</g>
<g id="A1">
	<path class="st0" d="M-1947.8,7136.8h178.9v64h-13.4v117.8h0.2v64h-165.7v-64h111.7v-117.8h-111.7V7136.8z"/>
	<path class="st0" d="M-1832.7,7195.6h64v237.2h29.7v53.8h-93.7V7195.6z"/>
	<path class="st0" d="M-1897.1,7256.8c-14.2,23.3-26,48.1-35.5,74.5c-9.5,26.3-16.8,53-22,79.9c-5.2,27-7.9,52.1-8.2,75.5h-76
		c4-52.3,16.2-102.6,36.7-150.9c20.5-48.3,47.4-92.6,80.7-132.9h-165.9v-66h238.8v61C-1866.7,7213.8-1883,7233.5-1897.1,7256.8z"/>
	<rect x="-1770" y="7136.8" class="st1" width="112.1" height="64"/>
	<polygon class="st1" points="-1768.7,7199.6 -1782.9,7199.6 -1782.9,7382.6 -1657,7382.6 -1657,7318.6 -1768.7,7318.6 	"/>
	<rect x="-1739" y="7432.8" class="st2" width="111.9" height="53.8"/>
</g>
<g id="M">
	<path d="M-1772.9,7289.7l41.8-154.1l78,0.5l56.9,238.8l1,0l60.8-238l76.5,0.5l-39.4,108.7l-1,0l-61.3,241l-72.1-0.4l-59.4-238.8
		l-1,0l-10,41.6L-1772.9,7289.7z"/>
	<path d="M-1829.8,7190.4l154-0.1l0.1,77l-89.8,0.1l0.4,218.8l-199.4,0.1l-0.1-77l134.4-0.1L-1829.8,7190.4z"/>
	<path d="M-1422.6,7137l0.2,284.7l60.3,0l0,64.8l-137.4,0.1l-0.2-349.5L-1422.6,7137z"/>
	<rect x="-1861.1" y="7406.1" class="st1" width="151" height="77"/>
	<rect x="-1771.5" y="7187" class="st1" width="61.4" height="77"/>
	<rect x="-2060.8" y="7187.4" class="st1" width="135.3" height="77"/>
	<polygon class="st1" points="-1868.7,7289 -1883.5,7340.6 -1884.5,7340.6 -1942.2,7135.2 -2018,7135.2 -1923.4,7487.1 
		-1846.6,7487.1 -1797.8,7289 	"/>
	<rect x="-1458" y="7421.4" class="st1" width="110.7" height="64.8"/>
</g>
<g id="R">
	<g>
		<path d="M-1884.7,7486.1h-96.5V7430h30.6v-247.5h65.9V7486.1z"/>
	</g>
	<g>
		<path d="M-1681.6,7364.8v211.8h-55.4v-146h-244.1v-65.9H-1681.6z"/>
	</g>
	<g>
		<path d="M-1950.5,7136.8c21.8,0,42.2,3.4,61,10.1c18.9,6.7,35.3,16.4,49.3,28.9c14,12.6,25,28,32.9,46.4c8,18.3,12,38.9,12,61.9
			c0,18.5-2.8,35.4-8.4,50.8c-5.6,15.4-13.7,28.8-24.3,40.3c-10.6,11.5-23.5,20.7-38.6,27.7c-15.1,7-32,11.3-50.8,13V7352
			c20.1-2.5,36.4-9.4,48.7-20.8c12.3-11.3,18.5-27.1,18.5-47.2c0-14.8-2.9-27.4-8.6-37.8c-5.7-10.3-13.4-18.7-22.9-25.2
			c-9.5-6.4-20.2-11.1-32.1-14.1c-11.9-2.9-24.1-4.4-36.7-4.4"/>
	</g>
</g>
<g id="O_00000083778567647030904660000008843847121500168630_">
	<g>
		<path d="M-1966.6,7312.5c0-100.4,62.1-178.6,166.3-178.6c104.2,0,166.3,78.2,166.3,178.6c0,97.6-62.1,175.8-166.3,175.8
			C-1904.5,7488.3-1966.6,7410.1-1966.6,7312.5z M-1892.2,7312.5c0,56.4,25.1,113.2,91.9,113.2s91.9-56.8,91.9-113.2
			c0-59.2-25.1-116.1-91.9-116.1S-1892.2,7253.3-1892.2,7312.5z"/>
	</g>
</g>
<g id="F">
	<path d="M-1899.3,7486.3c0-18,2.9-33.5,10.7-46.7c6.8-12.2,16.5-23.3,28.2-31.1c11.7-7.8,25.3-13.6,39.9-17.5
		c14.6-3.9,30.1-5.8,70-5.8V7304c-52,0-76.3,3.9-99.7,12.2c-23.3,8.8-44.2,19.9-61.7,36c-17.5,16.5-31.1,35-41.3,57.4
		c-9.7,22.8-14.1,48.6-14.1,76.8H-1899.3z"/>
	<polygon points="-1749.5,7136.7 -1852,7136.7 -1852,7416.7 -1797.6,7416.7 -1797.6,7201.4 -1749.5,7201.4 	"/>
	<polygon points="-1929.4,7486.1 -1797.7,7486.1 -1797.7,7206.1 -1852.1,7206.1 -1852.1,7421.4 -1929.4,7421.4 	"/>
</g>
<g id="N">
	<g class="st0">
		<path class="st3" d="M-1892.9,7332.3l9.6,41.4h1l60.4-236.9h71.7l59.5,239.9h1l57-239.9h75.1l-93.6,348.1h-76l-59-236.9h-1
			l-58,236.9h-77.5l-40.6-153.4L-1892.9,7332.3z"/>
	</g>
	<polygon class="st1" points="-1886.2,7136.1 -1961.6,7136.1 -1908.6,7333.4 -1839.2,7333.4 	"/>
	<path d="M-1838.7,7333l9.7,41.7h1l60.8-238.2h72l59.8,241.1h1l57.3-241.1h75.5l-94.1,349.9h-76.4l-59.3-238.2h-1l-58.3,238.2h-77.9
		l-40.8-154.2L-1838.7,7333z"/>
</g>
<g id="E">
	<g>
		<path d="M656.9,439.1h-265V90H653v64.5H468.7v74.8h169.2V289H468.7v85.6h188.3V439.1z"/>
	</g>
</g>
<g id="P">
	<polygon class="st0" points="-1609,7135.9 -1684.8,7135.9 -1684.8,7310.8 -1809.5,7310.8 -1809.5,7374.5 -1609,7374.5 	"/>
	<polygon class="st0" points="-1809.5,7374.3 -1733.7,7374.3 -1733.7,7199.4 -1609,7199.4 -1609,7135.6 -1809.5,7135.6 	"/>
	<path d="M-1848.9,7489.7c102.9,0,115-72.5,115-116.9v-120.3h-75.9c0,96.6,0,116.9,0,116.9c0,24.6,0,56.5-40.1,56.5
		c-35.8,0-44-24.2-44-57.5V7353h-68.6v30C-1962.4,7458.3-1906.4,7489.7-1848.9,7489.7z"/>
</g>
<g id="O">
	<g class="st0">
		<path class="st3" d="M-1732.2,7233.4c-4.4-7-9.8-13.1-16.3-18.4c-6.5-5.3-13.9-9.4-22.1-12.4c-8.2-3-16.9-4.4-25.9-4.4
			c-16.5,0-30.5,3.2-42,9.6c-11.5,6.4-20.8,14.9-28,25.6c-7.2,10.7-12.4,22.9-15.6,36.6c-3.3,13.7-4.9,27.8-4.9,42.4
			c0,14,1.6,27.6,4.9,40.8c3.3,13.2,8.5,25.1,15.6,35.7c7.1,10.6,16.5,19,28,25.4c11.5,6.4,25.5,9.6,42,9.6
			c22.4,0,39.9-6.8,52.5-20.5c12.6-13.7,20.3-31.7,23.1-54.1h70.9c-1.9,20.8-6.7,39.6-14.5,56.4c-7.8,16.8-18,31.1-30.8,42.9
			c-12.8,11.8-27.7,20.8-44.8,27c-17.1,6.2-35.9,9.3-56.4,9.3c-25.5,0-48.4-4.4-68.8-13.3c-20.4-8.9-37.5-21.1-51.5-36.6
			c-14-15.5-24.7-33.8-32.2-54.8c-7.5-21-11.2-43.6-11.2-67.8c0-24.9,3.7-47.9,11.2-69.2c7.5-21.3,18.2-39.9,32.2-55.7
			c14-15.9,32.3-28.3,52.7-37.3c20.4-9,42.1-13.5,67.6-13.5c18.3,0,35.7,2.6,52,7.9c16.3,5.3,30.9,13,43.8,23.1
			c12.9,10.1,23.5,22.6,31.9,37.5c8.4,14.9,13.7,32,15.9,51.3h-70.9C-1725.1,7248.1-1727.9,7240.4-1732.2,7233.4z"/>
	</g>
	<g>
		<path d="M-1649.4,7256.5h-70.9c2.2-19.3,7.5-36.4,15.9-51.3c8.4-14.9,19-27.4,31.9-37.5c12.9-10.1,27.5-17.8,43.8-23.1
			c16.3-5.3,33.7-7.9,52-7.9c25.5,0,47.3,4.5,67.6,13.5c20.4,9,38.7,21.4,52.7,37.3c14,15.9,24.7,34.4,32.2,55.7
			c7.5,21.3,11.2,44.4,11.2,69.2c0,24.2-3.7,46.9-11.2,67.8c-7.5,21-18.2,39.2-32.2,54.8c-14,15.5-31.2,27.7-51.5,36.6
			c-20.4,8.9-43.3,13.3-68.8,13.3c-20.5,0-39.3-3.1-56.4-9.3c-17.1-6.2-32-15.2-44.8-27c-12.7-11.8-23-26.1-30.8-42.9
			c-7.8-16.8-12.6-35.6-14.5-56.4h70.9c2.8,22.4,10.5,40.4,23.1,54.1c12.6,13.7,30.1,20.5,52.5,20.5c16.5,0,30.5-3.2,42-9.6
			c11.5-6.4,20.8-14.8,28-25.4c7.2-10.6,12.4-22.5,15.6-35.7c3.3-13.2,4.9-26.8,4.9-40.8c0-14.6-1.6-28.7-4.9-42.4
			c-3.3-13.7-8.5-25.9-15.6-36.6c-7.1-10.7-16.5-19.3-28-25.6c-11.5-6.4-25.5-9.6-42-9.6c-9,0-17.6,1.5-25.9,4.4
			c-8.2,3-15.6,7.1-22.1,12.4c-6.5,5.3-12,11.4-16.3,18.4C-1645.3,7240.5-1648.1,7248.2-1649.4,7256.5z"/>
	</g>
</g>
<g id="Hilfslinien">
	<rect x="-5999.3" y="-506.7" style="fill:none;" width="7398.2" height="466.4"/>
	<text transform="matrix(1 0 0 1 -5999.291 -157.5984)" style="font-family:'SHBDA23V1'; font-size:489px;">OPEN FOR MAINTENANCE</text>
</g>
</svg>
