<?xml version="1.0" encoding="utf-8"?>
<!-- Generator: Adobe Illustrator 27.0.1, SVG Export Plug-In . SVG Version: 6.00 Build 0)  -->
<svg version="1.1" xmlns="http://www.w3.org/2000/svg" xmlns:xlink="http://www.w3.org/1999/xlink" x="0px" y="0px"
	 viewBox="0 0 312.9 530" style="enable-background:new 0 0 312.9 530;" xml:space="preserve">
<style type="text/css">
	.st0{display:none;}
	.st1{display:none;fill:#010202;}
	.st2{fill:#010202;}
	.st3{display:inline;}
	.st4{font-family:'SHBDA23V1';}
	.st5{font-size:489px;}
</style>
<g id="E_00000051360959627468142820000017544460044616440767_">
	<g>
		<path d="M-25.5,7488.1h-265.6v-349.8h261.6v64.7h-184.7v75h169.5v59.8h-169.5v85.7h188.6V7488.1z"/>
	</g>
</g>
<g id="C">
	<g>
		<path d="M-5.3,7256.3H-78c-5.3-33.9-37.8-59.8-74.6-59.8c-67.4,0-92.8,57.4-92.8,117.1c0,56.9,25.3,114.3,92.8,114.3
			c45.9,0,71.7-31.1,77.5-76.5h72.7c-7.6,85.6-66,139.6-150.1,139.6c-105.2,0-167.8-78.9-167.8-177.4
			c0-101.4,62.6-180.3,167.8-180.3C-78,7133.4-14.4,7177.4-5.3,7256.3z"/>
	</g>
</g>
<g id="N_x5F_3">
	<polygon points="-263,7137.6 -304.7,7291.4 -234,7291.4 -224.1,7249.6 -223.1,7249.6 -164.2,7488.5 -92.4,7489 1.4,7139.6 
		-67.4,7138.6 -127.8,7376.9 -128.8,7376.9 -185.3,7138.1 	"/>
	<polygon points="-230.3,7137.9 -307,7137.4 -308,7288.7 -308.5,7353.6 -309.5,7487.7 -232.8,7488.2 	"/>
</g>
<g id="A">
	<path d="M-74.1,7370.8c0-9.8-1-20.6-2.9-32.4c-2-12.3-6.4-23.1-13.7-33.4c-6.9-10.3-17.2-19.1-30.4-26s-31.4-10.3-54-10.3
		c-12.8,0-25,1.5-36.8,5.4c-11.8,3.4-22.6,8.8-31.9,16.2c-9.3,7.9-16.7,17.2-22.6,29c-5.4,11.8-8.3,26-8.3,42.7v126.2h60.4v-113.4
		c0-7.4,0.5-14.2,1.5-20.6c1.5-5.9,3.4-11.3,5.9-15.7c2.9-4.4,6.9-7.9,11.8-10.3c4.9-2.5,11.3-3.9,19.1-3.9c8.8,0,15.7,1.5,20.6,4.9
		c4.9,2.9,8.3,6.9,10.3,11.8c2,4.9,3.4,10.3,3.9,16.2s0.5,11.3,0.5,16.7v114.4h66.8V7370.8z"/>
	<polygon points="-74.2,7488.1 -18.2,7488.1 -17.7,7204.8 -17.7,7138.1 -269.1,7138.1 -269.1,7204.8 -74.2,7204.8 	"/>
	<polygon points="-258.6,7488 -202.8,7488 -202.3,7204.8 -202.3,7138.2 -306.2,7138.2 -306.2,7204.8 -258.6,7204.8 	"/>
</g>
<g id="N_00000054254949360326627830000005329152182886584764_">
	<g>
		<path d="M-88.4,7487.7v-285.2H-259v-64.7h247.5v349.9H-88.4z"/>
	</g>
	<path d="M-315,7431.3c10.1,0,18-1.8,23.5-5.4c5.6-3.6,9.6-8.2,12-14c2.5-5.7,3.9-11.9,4.4-18.6c0.5-6.7,0.7-13.1,0.7-19.4v-236.2
		h76.9v239.7c0,11.4-1.1,24-3.4,37.7c-2.3,13.7-7.5,26.5-15.7,38.5c-8.2,11.9-19.9,21.9-35.3,29.9c-15.4,8-36.1,12-62.2,12
		L-315,7431.3z"/>
</g>
<g id="e">
	<g>
		<path d="M-202.6,7484.6c-14-2.3-27-7.7-39.2-16c-12.2-8.3-22.3-20.3-30.4-35.9c-8.2-15.6-12.2-36.8-12.2-63.4
			c0-15,2.1-29.4,6.2-43.4c4.2-14,10.6-26.5,19.5-37.4c8.8-11,20.1-19.8,33.9-26.5c13.8-6.7,30.5-12.3,50.2-12.3h30.9v76.8h-16
			c-8.7,0-16.6,0.7-24,2c-7.3,1.3-13.6,3.7-18.7,7c-5.2,3.3-9.2,7.9-12.2,13.7c-3,5.8-4.5,13.4-4.5,22.7c0,10.3,1.8,14.7,5.5,20.4
			c3.7,5.7,8.4,9.7,14.2,12.2c5.8,2.5,12.1,4,19,4.5c6.8,0.5,13.4,0.7,19.7,0.7H3.1v78.4h-167.3
			C-175.9,7488.1-188.7,7486.9-202.6,7484.6"/>
	</g>
	<polygon points="-177.1,7248.7 -64,7248.7 -64,7216.7 -200.8,7216.7 -200.8,7138.4 2.1,7138.4 2.4,7325.8 -177.1,7327 	"/>
	<g>
		<path d="M-236.5,7097.4l-0.4,78.9l-87.8-0.6l-0.4,53.4c12.3-0.3,24.2,0.7,35.7,3c11.5,2.2,21.7,6.1,30.9,11.7
			c9.1,5.6,16.8,12.8,23.1,21.9c6.3,9,10.3,20.2,12.2,33.5l56.4,0.4l0-201.7L-236.5,7097.4z"/>
	</g>
</g>
<g id="T">
	<g>
		<path d="M-129.3,7488.1h-76.9V7203h-104.8v-64.7h286.6v64.7h-104.8V7488.1z"/>
	</g>
</g>
<g id="N_00000127748963548567887910000006918738376549339794_">
	<g>
		<path d="M-705.4,439.3h-72V89.4h76.4l146,234.7h1V89.4h72v349.9h-76.9l-145.5-234.2h-1V439.3z"/>
	</g>
</g>
<g id="I">
	<g>
		<path d="M-213,7488h-76.9v-349.6h76.9V7488z"/>
	</g>
</g>
<g id="A1">
	<path class="st0" d="M-309.9,7138.6H-131v64h-13.4v117.8h0.2v64h-165.7v-64h111.7v-117.8h-111.7V7138.6z"/>
	<path class="st0" d="M-194.8,7197.3h64v237.2h29.7v53.8h-93.7V7197.3z"/>
	<path class="st0" d="M-259.2,7258.5c-14.2,23.3-26,48.1-35.5,74.5c-9.5,26.3-16.8,53-22,79.9c-5.2,27-7.9,52.1-8.2,75.5h-76
		c4-52.3,16.2-102.6,36.7-150.9c20.5-48.3,47.4-92.6,80.7-132.9h-165.9v-66h238.8v61C-228.9,7215.5-245.1,7235.2-259.2,7258.5z"/>
	<rect x="-132.1" y="7138.5" class="st1" width="112.1" height="64"/>
	<polygon class="st1" points="-130.8,7201.3 -145,7201.3 -145,7384.3 -19.1,7384.3 -19.1,7320.3 -130.8,7320.3 	"/>
	<rect x="-101.1" y="7434.5" class="st2" width="111.9" height="53.8"/>
</g>
<g id="M">
	<path d="M-135,7291.4l41.8-154.1l78,0.5l56.9,238.8l1,0l60.8-238l76.5,0.5l-39.4,108.7l-1,0l-61.3,241l-72.1-0.4l-59.4-238.8l-1,0
		l-10,41.6L-135,7291.4z"/>
	<path d="M-191.9,7192.1l154-0.1l0.1,77l-89.8,0.1l0.4,218.8l-199.4,0.1l-0.1-77l134.4-0.1L-191.9,7192.1z"/>
	<path d="M215.2,7138.7l0.2,284.7l60.3,0l0,64.8l-137.4,0.1l-0.2-349.5L215.2,7138.7z"/>
	<rect x="-223.2" y="7407.8" class="st1" width="151" height="77"/>
	<rect x="-133.7" y="7188.7" class="st1" width="61.4" height="77"/>
	<rect x="-422.9" y="7189.1" class="st1" width="135.3" height="77"/>
	<polygon class="st1" points="-230.8,7290.7 -245.6,7342.3 -246.6,7342.3 -304.3,7136.9 -380.2,7136.9 -285.5,7488.8 -208.7,7488.8 
		-159.9,7290.7 	"/>
	<rect x="179.9" y="7423.1" class="st1" width="110.7" height="64.8"/>
</g>
<g id="R">
	<g>
		<path d="M-246.8,7487.8h-96.5v-56.1h30.6v-247.5h65.9V7487.8z"/>
	</g>
	<g>
		<path d="M-43.7,7366.5v211.8h-55.4v-146h-244.1v-65.9H-43.7z"/>
	</g>
	<g>
		<path d="M-312.6,7138.5c21.8,0,42.2,3.4,61,10.1c18.9,6.7,35.3,16.4,49.3,28.9c14,12.6,25,28,32.9,46.4c8,18.3,12,38.9,12,61.9
			c0,18.5-2.8,35.4-8.4,50.8c-5.6,15.4-13.7,28.8-24.3,40.3c-10.6,11.5-23.5,20.7-38.6,27.7c-15.1,7-32,11.3-50.8,13v-63.8
			c20.1-2.5,36.4-9.4,48.7-20.8c12.3-11.3,18.5-27.1,18.5-47.2c0-14.8-2.9-27.4-8.6-37.8c-5.7-10.3-13.4-18.7-22.9-25.2
			c-9.5-6.4-20.2-11.1-32.1-14.1c-11.9-2.9-24.1-4.4-36.7-4.4"/>
	</g>
</g>
<g id="O_00000083778567647030904660000008843847121500168630_">
	<g>
		<path d="M-328.7,7314.2c0-100.4,62.1-178.6,166.3-178.6c104.2,0,166.3,78.2,166.3,178.6c0,97.6-62.1,175.8-166.3,175.8
			C-266.6,7490-328.7,7411.8-328.7,7314.2z M-254.3,7314.2c0,56.4,25.1,113.2,91.9,113.2s91.9-56.8,91.9-113.2
			c0-59.2-25.1-116.1-91.9-116.1S-254.3,7255-254.3,7314.2z"/>
	</g>
</g>
<g id="F">
	<path d="M-261.4,7488c0-18,2.9-33.5,10.7-46.7c6.8-12.2,16.5-23.3,28.2-31.1c11.7-7.8,25.3-13.6,39.9-17.5
		c14.6-3.9,30.1-5.8,70-5.8v-81.2c-52,0-76.3,3.9-99.7,12.2c-23.3,8.8-44.2,19.9-61.7,36c-17.5,16.5-31.1,35-41.3,57.4
		c-9.7,22.8-14.1,48.6-14.1,76.8H-261.4z"/>
	<polygon points="-111.6,7138.4 -214.1,7138.4 -214.1,7418.4 -159.7,7418.4 -159.7,7203.1 -111.6,7203.1 	"/>
	<polygon points="-291.5,7487.8 -159.8,7487.8 -159.8,7207.8 -214.2,7207.8 -214.2,7423.1 -291.5,7423.1 	"/>
</g>
<g id="N">
	<g class="st0">
		<path class="st3" d="M-255.1,7334l9.6,41.4h1l60.4-236.9h71.7l59.5,239.9h1l57-239.9h75.1l-93.6,348.1h-76l-59-236.9h-1l-58,236.9
			h-77.5l-40.6-153.4L-255.1,7334z"/>
	</g>
	<polygon class="st1" points="-248.3,7137.8 -323.7,7137.8 -270.7,7335.1 -201.4,7335.1 	"/>
	<path d="M-200.8,7334.7l9.7,41.7h1l60.8-238.2h72l59.8,241.1h1l57.3-241.1h75.5l-94.1,349.9h-76.4l-59.3-238.2h-1l-58.3,238.2
		h-77.9l-40.8-154.2L-200.8,7334.7z"/>
</g>
<g id="E">
	<g>
		<path d="M-52.3,7487.8h-265v-349.1h261.1v64.5h-184.4v74.8h169.2v59.7h-169.2v85.6h188.3V7487.8z"/>
	</g>
</g>
<g id="P">
	<polygon class="st0" points="28.9,7137.6 -47,7137.6 -47,7312.5 -171.6,7312.5 -171.6,7376.2 28.9,7376.2 	"/>
	<polygon class="st0" points="-171.6,7376 -95.8,7376 -95.8,7201.1 28.9,7201.1 28.9,7137.3 -171.6,7137.3 	"/>
	<path d="M-211,7491.4c102.9,0,115-72.5,115-116.9v-120.3h-75.9c0,96.6,0,116.9,0,116.9c0,24.6,0,56.5-40.1,56.5
		c-35.8,0-44-24.2-44-57.5v-15.5h-68.6v30C-324.6,7460-268.5,7491.4-211,7491.4z"/>
</g>
<g id="O">
	<g class="st0">
		<path class="st3" d="M-94.3,7235.1c-4.4-7-9.8-13.1-16.3-18.4c-6.5-5.3-13.9-9.4-22.1-12.4c-8.2-3-16.9-4.4-25.9-4.4
			c-16.5,0-30.5,3.2-42,9.6c-11.5,6.4-20.8,14.9-28,25.6c-7.2,10.7-12.4,22.9-15.6,36.6c-3.3,13.7-4.9,27.8-4.9,42.4
			c0,14,1.6,27.6,4.9,40.8c3.3,13.2,8.5,25.1,15.6,35.7c7.1,10.6,16.5,19,28,25.4c11.5,6.4,25.5,9.6,42,9.6
			c22.4,0,39.9-6.8,52.5-20.5c12.6-13.7,20.3-31.7,23.1-54.1h70.9c-1.9,20.8-6.7,39.6-14.5,56.4c-7.8,16.8-18,31.1-30.8,42.9
			c-12.8,11.8-27.7,20.8-44.8,27c-17.1,6.2-35.9,9.3-56.4,9.3c-25.5,0-48.4-4.4-68.8-13.3c-20.4-8.9-37.5-21.1-51.5-36.6
			c-14-15.5-24.7-33.8-32.2-54.8c-7.5-21-11.2-43.6-11.2-67.8c0-24.9,3.7-47.9,11.2-69.2c7.5-21.3,18.2-39.9,32.2-55.7
			c14-15.9,32.3-28.3,52.7-37.3c20.4-9,42.1-13.5,67.6-13.5c18.3,0,35.7,2.6,52,7.9c16.3,5.3,30.9,13,43.8,23.1
			c12.9,10.1,23.5,22.6,31.9,37.5c8.4,14.9,13.7,32,15.9,51.3h-70.9C-87.2,7249.8-90,7242.1-94.3,7235.1z"/>
	</g>
	<g>
		<path d="M-11.5,7258.2h-70.9c2.2-19.3,7.5-36.4,15.9-51.3c8.4-14.9,19-27.4,31.9-37.5c12.9-10.1,27.5-17.8,43.8-23.1
			c16.3-5.3,33.7-7.9,52-7.9c25.5,0,47.3,4.5,67.6,13.5c20.4,9,38.7,21.4,52.7,37.3c14,15.9,24.7,34.4,32.2,55.7
			c7.5,21.3,11.2,44.4,11.2,69.2c0,24.2-3.7,46.9-11.2,67.8c-7.5,21-18.2,39.2-32.2,54.8c-14,15.5-31.2,27.7-51.5,36.6
			c-20.4,8.9-43.3,13.3-68.8,13.3c-20.5,0-39.3-3.1-56.4-9.3c-17.1-6.2-32-15.2-44.8-27c-12.7-11.8-23-26.1-30.8-42.9
			c-7.8-16.8-12.6-35.6-14.5-56.4h70.9c2.8,22.4,10.5,40.4,23.1,54.1c12.6,13.7,30.1,20.5,52.5,20.5c16.5,0,30.5-3.2,42-9.6
			c11.5-6.4,20.8-14.8,28-25.4c7.2-10.6,12.4-22.5,15.6-35.7c3.3-13.2,4.9-26.8,4.9-40.8c0-14.6-1.6-28.8-4.9-42.4
			c-3.3-13.7-8.5-25.9-15.6-36.6c-7.1-10.7-16.5-19.3-28-25.6c-11.5-6.4-25.5-9.6-42-9.6c-9,0-17.6,1.5-25.9,4.4
			c-8.2,3-15.6,7.1-22.1,12.4c-6.5,5.3-12,11.4-16.3,18.4C-7.5,7242.2-10.3,7249.9-11.5,7258.2z"/>
	</g>
</g>
<g id="Hilfslinien">
	<rect x="-4361.4" y="-505" style="fill:none;" width="7398.2" height="466.4"/>
	<text transform="matrix(1 0 0 1 -4361.4038 -155.8952)" class="st4 st5">OPEN FOR MAINTENANCE</text>
	<text transform="matrix(1 0 0 1 -4361.4038 -574.9655)" class="st4 st5">T</text>
	<text transform="matrix(1 0 0 1 -4361.4038 -574.9655)" class="st4 st5">T</text>
	<text transform="matrix(1 0 0 1 12.0014 440.035)" class="st4 st5">T</text>
</g>
</svg>
