<?xml version="1.0" encoding="utf-8"?>
<!-- Generator: Adobe Illustrator 27.0.1, SVG Export Plug-In . SVG Version: 6.00 Build 0)  -->
<svg version="1.1" xmlns="http://www.w3.org/2000/svg" xmlns:xlink="http://www.w3.org/1999/xlink" x="0px" y="0px"
	 viewBox="0 0 385.6 530" style="enable-background:new 0 0 385.6 530;" xml:space="preserve">
<style type="text/css">
	.st0{display:none;}
	.st1{fill:#010202;}
	.st2{display:inline;fill:#010202;}
	.st3{display:inline;}
</style>
<g id="A1" class="st0">
	<path d="M241.3,78h175.6v62.8h-13.2v115.6h0.2v62.8H241.3v-62.8h109.6V140.8H241.3V78z"/>
	<path d="M354.3,135.6h62.8v232.8h29.2v52.8h-92V135.6z"/>
	<path d="M291,195.7c-13.9,22.9-25.5,47.2-34.8,73.1c-9.3,25.8-16.5,52-21.6,78.5c-5.1,26.5-7.8,51.2-8.1,74.1H152
		c3.9-51.3,15.9-100.7,36-148.1c20.1-47.4,46.5-90.9,79.2-130.5H104.4V78h234.4v59.8C320.8,153.5,304.9,172.8,291,195.7z"/>
	<rect x="415.8" y="77.9" class="st1" width="110" height="62.8"/>
	<polygon class="st1" points="417.1,139.5 403.2,139.5 403.2,319.2 526.7,319.2 526.7,256.4 417.1,256.4 	"/>
	<rect x="446.3" y="368.4" class="st2" width="109.8" height="52.8"/>
</g>
<g id="M" class="st0">
	<path class="st3" d="M153.2,230l41.3-152.3l77.1,0.5l56.2,236l1,0l60.1-235.2l75.6,0.5l-39,107.4l-1,0L364,424.9l-71.3-0.4
		l-58.7-236l-1,0l-9.8,41.2L153.2,230z"/>
	<path class="st3" d="M96.9,129.2l152.2-0.1l0.1,76.1l-88.7,0.1l0.4,216.2l-197.1,0.1l-0.1-76.1l132.8-0.1L96.9,129.2z"/>
	<path class="st3" d="M499.3,79.1l0.2,281.4l59.6,0l0,64l-135.7,0.1l-0.2-345.4L499.3,79.1z"/>
	<rect x="160.7" y="345.2" class="st2" width="149.2" height="76.1"/>
	<rect x="249.2" y="128.8" class="st2" width="60.6" height="76.1"/>
	<rect x="-36.7" y="129.2" class="st2" width="133.7" height="76.1"/>
	<polygon class="st2" points="153.2,229.6 138.5,280.5 137.6,280.5 80.6,77.6 5.6,77.6 99.1,425.3 175,425.3 223.2,229.6 	"/>
	<rect x="559" y="360.4" class="st2" width="109.4" height="64"/>
</g>
<g id="O">
</g>
<g id="P">
	<polygon points="364.1,88.6 288.3,88.6 288.3,263.5 163.6,263.5 163.6,327.3 364.1,327.3 	"/>
	<polygon points="163.6,327 239.5,327 239.5,152.1 364.1,152.1 364.1,88.4 163.6,88.4 	"/>
	<path d="M124.2,442.5c102.9,0,115-72.5,115-116.9V205.2h-75.9c0,96.6,0,116.9,0,116.9c0,24.6,0,56.5-40.1,56.5
		c-35.8,0-44-24.2-44-57.5v-15.5H10.7v30C10.7,411.1,66.7,442.5,124.2,442.5z"/>
</g>
<g id="E" class="st0">
	<g class="st3">
		<path d="M282.9,438.8h-265V89.7H279v64.5H94.7V229h169.2v59.7H94.7v85.6h188.3V438.8z"/>
	</g>
</g>
<g id="Ebene_7" class="st0">
	<g class="st3">
		<path d="M80.2,285l9.6,41.4h1l60.4-236.9h71.7l59.5,239.8h1l57-239.8h75.1l-93.6,348.1h-76l-59-236.9h-1l-58,236.9H50.3L9.7,284.2
			L80.2,285z"/>
	</g>
</g>
<g id="Hilfslinien">
</g>
</svg>
