<?xml version="1.0" encoding="utf-8"?>
<!-- Generator: Adobe Illustrator 27.0.1, SVG Export Plug-In . SVG Version: 6.00 Build 0)  -->
<svg version="1.1" xmlns="http://www.w3.org/2000/svg" xmlns:xlink="http://www.w3.org/1999/xlink" x="0px" y="0px"
	 viewBox="0 0 177.5 530" style="enable-background:new 0 0 177.5 530;" xml:space="preserve">
<style type="text/css">
	.st0{display:none;fill:#010202;}
	.st1{fill:#010202;}
</style>
<g id="E_00000051360959627468142820000017544460044616440767_">
	<g>
		<path d="M-11094,440.8h-265.5V90.9h261.6v64.7h-184.7v75h169.5v59.8h-169.5v85.7h188.6V440.8z"/>
	</g>
</g>
<g id="C">
	<g>
		<path d="M-6016.3,208.3h-74.5c-5.4-34.8-38.7-61.3-76.5-61.3c-69.1,0-95.1,58.8-95.1,120.1c0,58.3,26,117.1,95.1,117.1
			c47,0,73.5-31.9,79.4-78.4h74.5c-7.8,87.7-67.6,143.1-153.9,143.1c-107.8,0-172-80.9-172-181.8c0-103.9,64.2-184.8,172-184.8
			C-6090.8,82.3-6025.6,127.4-6016.3,208.3z"/>
	</g>
</g>
<g id="N_x5F_3">
	<polygon points="-6635.2,90 -6677,243.8 -6606.2,243.8 -6596.4,202 -6595.4,202 -6536.5,440.8 -6464.7,441.3 -6370.9,91.9 
		-6439.7,91 -6500.1,329.3 -6501.1,329.3 -6557.6,90.5 	"/>
	<polygon points="-6602.6,90.2 -6679.3,89.7 -6680.3,241.1 -6680.8,305.9 -6681.7,440.1 -6605.1,440.6 	"/>
</g>
<g id="A">
	<path d="M-6760.7,323.3c0-9.8-1-20.6-2.9-32.4c-2-12.3-6.4-23.1-13.7-33.4c-6.9-10.3-17.2-19.1-30.4-26
		c-13.3-6.9-31.4-10.3-54-10.3c-12.8,0-25,1.5-36.8,5.4c-11.8,3.4-22.6,8.8-31.9,16.2c-9.3,7.9-16.7,17.2-22.6,29
		c-5.4,11.8-8.3,26-8.3,42.7v126.1h60.4V327.2c0-7.4,0.5-14.2,1.5-20.6c1.5-5.9,3.4-11.3,5.9-15.7c2.9-4.4,6.9-7.9,11.8-10.3
		c4.9-2.5,11.3-3.9,19.1-3.9c8.8,0,15.7,1.5,20.6,4.9c4.9,2.9,8.3,6.9,10.3,11.8c2,4.9,3.4,10.3,3.9,16.2s0.5,11.3,0.5,16.7v114.3
		h66.7V323.3z"/>
	<polygon points="-6760.8,440.6 -6704.9,440.6 -6704.4,157.4 -6704.4,90.7 -6955.6,90.7 -6955.6,157.4 -6760.8,157.4 	"/>
	<polygon points="-6945.2,440.5 -6889.4,440.5 -6888.9,157.4 -6888.9,90.8 -6992.7,90.8 -6992.7,157.4 -6945.2,157.4 	"/>
</g>
<g id="N_00000054254949360326627830000005329152182886584764_">
	<g>
		<path d="M-7087.1,441.3V156.1h-170.6V91.4h247.5v349.9H-7087.1z"/>
	</g>
	<path d="M-7313.7,385c10.1,0,18-1.8,23.5-5.4c5.6-3.6,9.6-8.2,12-14c2.5-5.7,3.9-11.9,4.4-18.6c0.5-6.7,0.7-13.1,0.7-19.4V91.4
		h76.9v239.7c0,11.4-1.1,24-3.4,37.7c-2.3,13.7-7.5,26.5-15.7,38.5c-8.2,11.9-19.9,21.9-35.3,29.9c-15.4,8-36.1,12-62.2,12
		L-7313.7,385z"/>
</g>
<g id="e">
	<g>
		<path d="M-7542.8,436.9c-14-2.3-27-7.7-39.2-16c-12.2-8.3-22.3-20.3-30.4-35.9c-8.1-15.6-12.2-36.8-12.2-63.4
			c0-15,2.1-29.4,6.2-43.4c4.2-14,10.6-26.5,19.5-37.4c8.8-11,20.1-19.8,33.9-26.5c13.8-6.7,30.5-12.3,50.2-12.3h30.9v76.8h-16
			c-8.7,0-16.6,0.7-24,2c-7.3,1.3-13.6,3.7-18.7,7c-5.2,3.3-9.2,7.9-12.2,13.7c-3,5.8-4.5,13.4-4.5,22.7c0,10.3,1.8,14.7,5.5,20.4
			c3.7,5.7,8.4,9.7,14.2,12.2c5.8,2.5,12.1,4,19,4.5c6.8,0.5,13.4,0.7,19.7,0.7h163.8v78.4h-167.3
			C-7516,440.4-7528.8,439.2-7542.8,436.9"/>
	</g>
	<polygon points="-7517.2,201 -7404.1,201 -7404.1,169 -7540.9,169 -7540.9,90.7 -7338,90.7 -7337.7,278.1 -7517.2,279.3 	"/>
	<g>
		<path d="M-7576.6,49.7l-0.4,78.9l-87.8-0.6l-0.4,53.4c12.3-0.3,24.2,0.7,35.7,3c11.5,2.2,21.7,6.1,30.9,11.7
			c9.1,5.6,16.8,12.8,23.1,21.9c6.3,9,10.3,20.2,12.2,33.5l56.4,0.4l0-201.7L-7576.6,49.7z"/>
	</g>
</g>
<g id="T">
	<text transform="matrix(1 0 0 1 -7979.3027 440.035)" style="font-family:'SHBDA23V1'; font-size:489px;">T</text>
</g>
<g id="N_00000127748963548567887910000006918738376549339794_">
	<g>
		<path d="M-8236.1,440.6h-72V90.8h76.4l146,234.7h1V90.8h72v349.9h-76.9l-145.5-234.2h-1V440.6z"/>
	</g>
</g>
<g id="I">
	<g>
		<path d="M-8374.8,440.4h-76.9V90.9h76.9V440.4z"/>
	</g>
</g>
<g id="A1">
	<path d="M-8760.5,90.5h178.9v64h-13.4v117.8h0.2v64h-165.7v-64h111.7V154.5h-111.7V90.5z"/>
	<path d="M-8645.4,149.3h64v237.2h29.7v53.8h-93.7V149.3z"/>
	<path d="M-8709.8,210.4c-14.2,23.3-26,48.1-35.5,74.5c-9.5,26.3-16.8,53-22,79.9c-5.2,27-7.9,52.1-8.2,75.5h-76
		c4-52.3,16.2-102.6,36.7-150.9c20.5-48.3,47.4-92.6,80.7-132.9H-8900v-66h238.8v61C-8679.4,167.5-8695.7,187.1-8709.8,210.4z"/>
</g>
<g id="M">
	<path d="M-9331.1,244.2l41.8-154.1l78,0.5l56.9,238.8l1,0l60.8-238l76.5,0.5l-39.4,108.7l-1,0l-61.3,241l-72.1-0.4l-59.4-238.8
		l-1,0l-10,41.6L-9331.1,244.2z"/>
	<path d="M-9388.1,144.9l154-0.1l0.1,77l-89.8,0.1l0.4,218.8l-199.4,0.1l-0.1-77l134.4-0.1L-9388.1,144.9z"/>
	<path d="M-8980.9,91.5l0.2,284.7l60.3,0l0,64.8l-137.4,0.1l-0.2-349.5L-8980.9,91.5z"/>
	<rect x="-3822.7" y="8106.9" class="st0" width="151" height="77"/>
	<rect x="-3733.2" y="7887.8" class="st0" width="61.4" height="77"/>
	<rect x="-4022.5" y="7888.2" class="st0" width="135.3" height="77"/>
	<polygon class="st0" points="-3830.4,7989.8 -3845.2,8041.4 -3846.2,8041.4 -3903.8,7836 -3979.7,7836 -3885.1,8187.9 
		-3808.2,8187.9 -3759.5,7989.8 	"/>
	<rect x="-3419.7" y="8122.2" class="st0" width="110.7" height="64.8"/>
</g>
<g id="R">
	<g>
		<path d="M-9886.2,441.2h-96.5V385h30.6V137.6h65.9V441.2z"/>
	</g>
	<g>
		<path d="M-9683.1,319.9v211.8h-55.4v-146h-244.1v-65.9H-9683.1z"/>
	</g>
	<g>
		<path d="M-9952,91.8c21.8,0,42.2,3.4,61,10.1c18.9,6.7,35.3,16.4,49.3,28.9c14,12.6,25,28,32.9,46.4c8,18.3,12,38.9,12,61.9
			c0,18.5-2.8,35.4-8.4,50.8c-5.6,15.4-13.7,28.8-24.3,40.3c-10.6,11.5-23.5,20.7-38.6,27.7c-15.1,7-32,11.3-50.8,13V307
			c20.1-2.5,36.4-9.4,48.7-20.8c12.3-11.3,18.5-27.1,18.5-47.2c0-14.8-2.9-27.4-8.6-37.8c-5.7-10.3-13.4-18.7-22.9-25.2
			c-9.5-6.4-20.2-11.1-32.1-14.1c-11.9-2.9-24.1-4.4-36.7-4.4"/>
	</g>
</g>
<g id="O_00000083778567647030904660000008843847121500168630_">
	<g>
		<path d="M-10341,266.6c0-103.1,63.7-183.3,170.6-183.3c106.9,0,170.6,80.2,170.6,183.3c0,100.1-63.7,180.3-170.6,180.3
			C-10277.3,446.9-10341,366.7-10341,266.6z M-10264.7,266.6c0,57.8,25.8,116.2,94.3,116.2c68.5,0,94.3-58.3,94.3-116.2
			c0-60.8-25.8-119.1-94.3-119.1C-10238.9,147.5-10264.7,205.8-10264.7,266.6z"/>
	</g>
</g>
<g id="F">
	<path d="M-10525.1,440.1c0-18,2.9-33.5,10.7-46.7c6.8-12.2,16.5-23.3,28.2-31.1c11.7-7.8,25.3-13.6,39.9-17.5
		c14.6-3.9,30.1-5.8,70-5.8v-81.2c-52,0-76.3,3.9-99.7,12.2c-23.3,8.8-44.2,19.9-61.7,36c-17.5,16.5-31.1,35-41.3,57.4
		c-9.7,22.8-14.1,48.6-14.1,76.8H-10525.1z"/>
	<polygon points="-10375.3,90.5 -10477.9,90.5 -10477.9,370.5 -10423.4,370.5 -10423.4,155.1 -10375.3,155.1 	"/>
	<polygon points="-10555.2,439.9 -10423.5,439.9 -10423.5,159.9 -10477.9,159.9 -10477.9,375.2 -10555.2,375.2 	"/>
</g>
<g id="N">
	<path d="M-10994.4,286.9l9.7,41.7h1l60.8-238.2h72l59.8,241.1h1l57.3-241.1h75.5l-94.1,349.9h-76.4l-59.3-238.2h-1l-58.3,238.2
		h-77.9l-40.8-154.2L-10994.4,286.9z"/>
</g>
<g id="E">
	<path d="M-5696.5,440.8h-265V91.7h261.1v64.5h-184.4v74.8h169.2v59.7h-169.2v85.6h188.3V440.8z"/>
</g>
<g id="P">
	<polygon points="-11405.7,90.8 -11482.4,90.8 -11482.4,267.6 -11608.4,267.6 -11608.4,332.1 -11405.7,332.1 	"/>
	<polygon points="-11608.5,331.8 -11531.8,331.8 -11531.8,155 -11405.8,155 -11405.8,90.5 -11608.5,90.5 	"/>
	<path d="M-11648.3,448.5c104,0,116.2-73.3,116.2-118.2V208.7h-76.7c0,97.7,0,118.2,0,118.2c0,24.9,0,57.1-40.5,57.1
		c-36.1,0-44.4-24.4-44.4-58.1v-15.6h-69.4v30.3C-11763.1,416.7-11706.4,448.5-11648.3,448.5z"/>
</g>
<g id="O">
	<g>
		<path d="M-12110.3,187.9c-4.4-7-9.8-13.1-16.3-18.4c-6.5-5.3-13.9-9.4-22.1-12.4c-8.2-3-16.9-4.4-25.9-4.4
			c-16.5,0-30.5,3.2-42,9.6c-11.5,6.4-20.8,14.9-28,25.6c-7.2,10.7-12.4,22.9-15.6,36.6c-3.3,13.7-4.9,27.8-4.9,42.4
			c0,14,1.6,27.6,4.9,40.8c3.3,13.2,8.5,25.1,15.6,35.7c7.1,10.6,16.5,19,28,25.4c11.5,6.4,25.5,9.6,42,9.6
			c22.4,0,39.9-6.8,52.5-20.5c12.6-13.7,20.3-31.7,23.1-54.1h70.9c-1.9,20.8-6.7,39.6-14.5,56.4c-7.8,16.8-18,31.1-30.8,42.9
			c-12.8,11.8-27.7,20.8-44.8,27c-17.1,6.2-35.9,9.3-56.4,9.3c-25.5,0-48.4-4.4-68.8-13.3c-20.4-8.9-37.5-21.1-51.5-36.6
			c-14-15.5-24.7-33.8-32.2-54.8c-7.5-21-11.2-43.6-11.2-67.8c0-24.9,3.7-47.9,11.2-69.2c7.5-21.3,18.2-39.9,32.2-55.7
			c14-15.9,32.3-28.3,52.7-37.3c20.4-9,42.1-13.5,67.6-13.5c18.3,0,35.7,2.6,52,7.9c16.3,5.3,30.9,13,43.8,23.1
			c12.9,10.1,23.5,22.6,31.9,37.5c8.4,14.9,13.7,32,15.9,51.3h-70.9C-12103.1,202.5-12105.9,194.9-12110.3,187.9z"/>
	</g>
	<g>
		<path d="M-12027.4,211h-70.9c2.2-19.3,7.5-36.4,15.9-51.3c8.4-14.9,19-27.4,31.9-37.5c12.9-10.1,27.5-17.8,43.8-23.1
			c16.3-5.3,33.7-7.9,52-7.9c25.5,0,47.3,4.5,67.6,13.5c20.4,9,38.7,21.4,52.7,37.3c14,15.9,24.7,34.4,32.2,55.7
			c7.5,21.3,11.2,44.4,11.2,69.2c0,24.2-3.7,46.9-11.2,67.8c-7.5,21-18.2,39.2-32.2,54.8c-14,15.5-31.2,27.7-51.5,36.6
			c-20.4,8.9-43.3,13.3-68.8,13.3c-20.5,0-39.3-3.1-56.4-9.3c-17.1-6.2-32-15.2-44.8-27c-12.7-11.8-23-26.1-30.8-42.9
			c-7.8-16.8-12.6-35.6-14.5-56.4h70.9c2.8,22.4,10.5,40.4,23.1,54.1c12.6,13.7,30.1,20.5,52.5,20.5c16.5,0,30.5-3.2,42-9.6
			c11.5-6.4,20.8-14.8,28-25.4c7.2-10.6,12.4-22.5,15.6-35.7c3.3-13.2,4.9-26.8,4.9-40.8c0-14.6-1.6-28.7-4.9-42.4
			c-3.3-13.7-8.5-25.9-15.6-36.6c-7.1-10.7-16.5-19.3-28-25.6c-11.5-6.4-25.5-9.6-42-9.6c-9,0-17.6,1.5-25.9,4.4
			c-8.2,3-15.6,7.1-22.1,12.4c-6.5,5.3-12,11.4-16.3,18.4C-12023.4,194.9-12026.2,202.6-12027.4,211z"/>
	</g>
</g>
<g id="Ebene_20">
	<path class="st1" d="M-5086.8,385.4l20.5-32.3V92.5h76.8v181.9h57.2l-57.2,85.1v81.2l-142.3-0.5l-97.8-144.3l-97.8,144.7l-61.6-0.5
		v0.5h-76.8v-75.3l-61.6-91h61.6V92h76.8v263.1l18.6,30.3l70.9-111h144.3L-5086.8,385.4z"/>
	<path class="st1" d="M-4621.3,440.6h-265V91.5h261.1V156h-184.4v74.8h169.2v59.7h-169.2v85.6h188.3V440.6z"/>
	<path class="st1" d="M-4523,426.5c-20.5-8.8-38.1-21.5-52.8-37.2c-13.7-16.1-24.9-35.2-32.3-56.2c-8.3-21.5-11.7-44.5-11.7-69.9
		c0-24.9,3.4-48.4,11.7-70.4c7.3-22,18.6-41.1,32.3-57.2c14.7-16.1,32.3-28.9,52.8-38.1c21-9.3,44.5-14.2,70.4-14.2
		c18.1,0,34.7,3.4,51.3,8.3c16.6,5.4,31.3,13.2,44,23c13.7,10.3,24.5,22.5,33.3,37.7c8.3,15.2,13.7,32.3,15.6,51.8h-71.9
		c-4.4-19.6-12.7-33.3-25.4-43c-12.7-9.8-28.4-14.2-46.9-14.2c-16.6,0-30.3,3.4-42.5,9.3c-11.7,6.8-21.5,15.6-28.9,26.9
		c-7.3,10.3-11.7,23-16.1,37.2c-3.4,14.2-4.9,27.9-4.9,43c0,14.7,1.5,28.4,4.9,42.5c4.4,13.2,8.8,25.4,16.1,36.7
		c7.3,10.3,17.1,19.6,28.9,25.4c5.9,2.9,11.7,5.4,18.6,7.3v-58.2h-29.8v-74.8h170.7l-63.6,74.8h-14.2V402h107.1v75.3h-170.2v-38.1
		C-4493.2,437.2-4508.8,433.3-4523,426.5z"/>
	<path class="st1" d="M-4159.2,436.7c-13.7-2-26.4-7.3-39.1-16.1c-11.7-7.8-22.5-19.6-30.3-35.2c-7.8-15.6-12.7-37.2-12.7-63.1
		c0-15.2,2.4-30.3,6.8-44.5c4.4-13.2,10.8-26.9,19.6-37.7c6.4-7.8,14.7-14.7,24-20.5l-1-1.5c-6.4-9.3-14.2-17.1-23-22
		c-9.3-5.9-19.6-10.3-30.8-12.2c-12.2-2.4-23-2.9-36.2-2.9l0.5-53.3l88,0.5V52.9h71.4v38.6h168.7l0.5,186.3h-184.4
		c-11.7,0-17.1,3.4-21.5,5.9c-5.4,3.9-8.8,8.3-11.7,14.7c-3.4,5.4-4.4,13.2-4.4,23s1,17.6,5.4,23c3.4,6.4,7.3,9.8,13.7,12.7
		c5.9,2.9,12.2,4.4,19.6,4.4c6.4,0.5,13.2,0.5,19.6,0.5h164.8v78.7h-168.7C-4131.8,440.6-4145,439.2-4159.2,436.7z M-4020.3,200.5
		v-30.3h-102.2v30.3H-4020.3z"/>
	<path class="st1" d="M-3834,440.6h-71.9V91.5h76.3l145.7,234.2h1V91.5h71.9v349.1h-76.8l-145.2-233.7h-1V440.6z"/>
	<path class="st1" d="M-3429.1,330.6V91.5h76.8v235.7c0,24.9,0,57.2,40.6,57.2c36.2,0,44.5-24.4,44.5-58.2v-15.6h65V92.5h63.6v294.9
		h29.8v53.3h-93.4v-65.5c-14.2,51.8-62.1,73.8-110.5,73.8C-3416.9,449-3429.1,375.6-3429.1,330.6z"/>
	<path class="st1" d="M-2991,440.6h-71.9V91.5h108.1l81.7,240.1h1l77.3-240.1h108.1v349.1h-71.9V193.2h-1l-85.6,247.4h-59.2
		l-85.6-245h-1V440.6z"/>
	<path class="st1" d="M-2508.9,437.7c-12.2-2-23-6.4-33.3-13.7c-10.3-6.8-19.1-17.1-25.9-30.3s-10.3-31.3-10.3-53.8
		c0-12.7,1.5-24.9,5.4-36.7c3.4-11.7,8.8-22.5,16.1-31.8c7.8-9.3,16.6-17.1,28.9-22.5l2.9-1.5V158h-115.9V91.5l291.4,0.5v93.4h67.5
		v188.3h3.4v0.5h8.8v66.5h-206.8C-2486.4,440.6-2497.1,439.7-2508.9,437.7z M-2518.1,359.5c2.9,4.9,6.8,8.3,11.7,10.3
		c4.9,2,10.3,3.4,16.1,3.9c5.9,0.5,11.2,0.5,16.6,0.5h20v-0.5h115.9V251.4H-2459v49.4h-13.7c-7.3,0-14.2,0.5-20.5,1.5
		c-5.9,1.5-11.2,3.4-15.6,5.9c-4.4,2.9-7.8,6.8-10.3,11.7c-2.4,4.9-3.9,11.2-3.9,19.1C-2523,347.7-2521.6,354.6-2518.1,359.5z
		 M-2405.7,185.4V158h-63.6l-12.7,27.4H-2405.7z"/>
	<path class="st1" d="M-2160.7,291c20-47.9,46.9-91.9,80.2-132h-164.8V93.5h315.9v293.9h29.8v53.3h-93.4V337.5h-113.9V336
		c-2.4,9.8-4.9,19.6-6.8,29.8c-4.9,26.9-7.8,51.8-8.3,74.8h-75.3C-2193.5,388.8-2181.2,338.9-2160.7,291z M-1995.9,273.9V157h-15.6
		c-16.6,15.2-31.8,33.7-45,55.3c-11.7,19.6-22,40.1-30.8,61.6H-1995.9z"/>
	<path class="st1" d="M-1578.3,91.5h76.8v217.1c0,94.4-55.7,140.3-149.1,140.3c-94.4,0-148.7-45-148.7-140.3V91.5h76.8v217.1
		c0,38.1,9.8,75.8,71.9,75.8c54.8,0,72.4-23.5,72.4-75.8V91.5z"/>
	<path class="st1" d="M-1082.9,149.7h-168.2v231.8h41.6V181h171.1v58.7h-101.2v231.8h-69.9v-30.8h-111.5V91h238.1V149.7z"/>
	<path class="st1" d="M-891.3,436.7c-13.7-2-26.4-7.3-39.1-16.1c-11.7-7.8-22.5-19.6-30.3-35.2c-7.8-15.6-12.7-37.2-12.7-63.1
		c0-15.2,2.4-30.3,6.8-44.5c4.4-13.2,10.8-26.9,19.6-37.7c6.4-7.8,14.7-14.7,24-20.5l-1-1.5c-6.4-9.3-14.2-17.1-23-22
		c-9.3-5.9-19.6-10.3-30.8-12.2c-12.2-2.4-23-2.9-36.2-2.9l0.5-53.3l88,0.5V52.9h71.4v38.6h168.7l0.5,186.3h-184.4
		c-11.7,0-17.1,3.4-21.5,5.9c-5.4,3.9-8.8,8.3-11.7,14.7c-3.4,5.4-4.4,13.2-4.4,23s1,17.6,5.4,23c3.4,6.4,7.3,9.8,13.7,12.7
		c5.9,2.9,12.2,4.4,19.6,4.4c6.4,0.5,13.2,0.5,19.6,0.5h164.8v78.7h-168.7C-863.9,440.6-877.1,439.2-891.3,436.7z M-752.4,200.5
		v-30.3h-102.2v30.3H-752.4z"/>
	<path class="st1" d="M-653.1,267.5c0-103.7,64.1-184.4,171.6-184.4c107.6,0,171.6,80.7,171.6,184.4c0,100.7-64.1,181.4-171.6,181.4
		C-589.1,449-653.1,368.3-653.1,267.5z M-576.3,267.5c0,58.2,25.9,116.9,94.9,116.9c68.9,0,94.9-58.7,94.9-116.9
		c0-61.1-25.9-119.8-94.9-119.8C-550.4,147.7-576.3,206.4-576.3,267.5z M-566.1,55.3V-1.9h66v57.2H-566.1z M-465.3,55.3V-1.9h66
		v57.2H-465.3z"/>
	<path class="st1" d="M-180.7,440.6h-76.8V91.5H-12V156h-168.7v80.7h146.2v59.7h-146.2V440.6z"/>
	<path class="st1" d="M56.9,94.9c13.2,5.4,24.9,11.7,34.7,21c10.3,8.3,14.7,13.7,23.5,25.4V223c-6.8-10.3-16.1-20-24-30.3
		c-7.8-9.8-16.6-18.1-27.4-25.9v51.8c12.2,1,23.5,3.4,33.3,7.3c13.2,4.9,24.4,11.7,34.7,20c10.3,8.8,14.7,14.7,23.5,25.9v81.7
		c-6.8-10.3-16.1-20.5-24-30.3c-8.3-9.8-17.1-18.6-27.4-25.9v143.3H51V310.1H10.9V87.6C28.5,87.6,43.7,90,56.9,94.9z"/>
	<path class="st1" d="M273,440.6h-71.9V91.5h76.3l145.7,234.2h1V91.5H496v349.1h-76.8L274,206.9h-1V440.6z"/>
	<path class="st1" d="M828.5,440.6h-265V91.5h261.1V156H640.3v74.8h169.2v59.7H640.3v85.6h188.3V440.6z"/>
	<path class="st1" d="M858.9,289.1V227h218.1V91.5h76.8v144.3h56.2h90v59.7h-90h-56.2v80.7h168.7v64.5h-245.5V289.1H858.9z"/>
</g>
<g id="Hilfslinien">
	<rect x="-12354.3" y="-503.8" style="fill:none;" width="6827.8" height="466.4"/>
	<text transform="matrix(1 0 0 1 -12354.2803 -154.7094)"><tspan x="0" y="0" style="font-family:'SHBDA23V1'; font-size:489px;">OPEN</tspan><tspan x="1707.6" y="0" style="font-family:'SHBDA23V1'; font-size:489px; letter-spacing:-95;"> </tspan><tspan x="1748.2" y="0" style="font-family:'SHBDA23V1'; font-size:489px;">FOR MAINTENANCE</tspan></text>
	<rect x="-5572.9" y="-503.9" style="fill:none;" width="7398.2" height="397.2"/>
	<text transform="matrix(1 0 0 1 -5572.8979 -154.8012)" style="font-family:'SHBDA23V1'; font-size:489px;">WEGEN UMBAU GEÖFFNET</text>
</g>
</svg>
