<?xml version="1.0" encoding="utf-8"?>
<!-- Generator: Adobe Illustrator 27.0.1, SVG Export Plug-In . SVG Version: 6.00 Build 0)  -->
<svg version="1.1" xmlns="http://www.w3.org/2000/svg" xmlns:xlink="http://www.w3.org/1999/xlink" x="0px" y="0px"
	 viewBox="0 0 405 530" style="enable-background:new 0 0 405 530;" xml:space="preserve">
<style type="text/css">
	.st0{display:none;}
	.st1{display:none;fill:#010202;}
</style>
<g id="E_00000051360959627468142820000017544460044616440767_">
	<g>
		<path d="M-2183.9,440h-265.6V90.2h261.6v64.7h-184.7v75h169.5v59.8h-169.5v85.7h188.6V440z"/>
	</g>
</g>
<g id="C">
	<g>
		<path d="M2895.6,208.9h-74.5c-5.4-34.8-38.7-61.3-76.5-61.3c-69.1,0-95.1,58.8-95.1,120.1c0,58.3,26,117.1,95.1,117.1
			c47,0,73.5-31.9,79.4-78.4h74.5c-7.8,87.7-67.6,143.1-153.9,143.1c-107.8,0-172-80.9-172-181.8c0-103.9,64.2-184.8,172-184.8
			C2821.1,82.9,2886.2,128,2895.6,208.9z"/>
	</g>
</g>
<g id="N_x5F_3">
	<polygon points="2274.9,89.2 2233.1,243 2303.8,243 2313.7,201.3 2314.7,201.3 2373.6,440.1 2445.4,440.6 2539.2,91.2 2470.4,90.2 
		2410,328.5 2409,328.5 2352.5,89.7 	"/>
	<polygon points="2307.5,89.5 2230.8,89 2229.8,240.3 2229.3,305.2 2228.4,439.3 2305,439.8 	"/>
</g>
<g id="A">
	<path d="M2149.4,322.5c0-9.8-1-20.6-2.9-32.4c-2-12.3-6.4-23.1-13.7-33.4c-6.9-10.3-17.2-19.1-30.4-26c-13.3-6.9-31.4-10.3-54-10.3
		c-12.8,0-25,1.5-36.8,5.4c-11.8,3.4-22.6,8.8-31.9,16.2c-9.3,7.9-16.7,17.2-22.6,29c-5.4,11.8-8.3,26-8.3,42.7v126.1h60.4V326.5
		c0-7.4,0.5-14.2,1.5-20.6c1.5-5.9,3.4-11.3,5.9-15.7c2.9-4.4,6.9-7.9,11.8-10.3c4.9-2.5,11.3-3.9,19.1-3.9c8.8,0,15.7,1.5,20.6,4.9
		c4.9,2.9,8.3,6.9,10.3,11.8c2,4.9,3.4,10.3,3.9,16.2s0.5,11.3,0.5,16.7v114.3h66.7V322.5z"/>
	<polygon points="2149.3,439.8 2205.2,439.8 2205.7,156.7 2205.7,89.9 1954.5,89.9 1954.5,156.7 2149.3,156.7 	"/>
	<polygon points="1964.9,439.8 2020.7,439.8 2021.2,156.7 2021.2,90 1917.4,90 1917.4,156.7 1964.9,156.7 	"/>
</g>
<g id="N_00000054254949360326627830000005329152182886584764_">
	<g>
		<path d="M1822.9,440.6V155.3h-170.6V90.7h247.5v349.9H1822.9z"/>
	</g>
	<path d="M1596.4,384.2c10.1,0,18-1.8,23.5-5.4c5.6-3.6,9.6-8.2,12-14c2.5-5.7,3.9-11.9,4.4-18.6c0.5-6.7,0.7-13.1,0.7-19.4V90.7
		h76.9v239.7c0,11.4-1.1,24-3.4,37.7c-2.3,13.7-7.5,26.5-15.7,38.5c-8.2,11.9-19.9,21.9-35.3,29.9c-15.4,8-36.1,12-62.2,12
		L1596.4,384.2z"/>
</g>
<g id="e">
	<g>
		<path d="M1367.3,436.2c-14-2.3-27-7.7-39.2-16c-12.2-8.3-22.3-20.3-30.4-35.9c-8.2-15.6-12.2-36.8-12.2-63.4
			c0-15,2.1-29.4,6.2-43.4c4.2-14,10.6-26.5,19.5-37.4c8.8-11,20.1-19.8,33.9-26.5c13.8-6.7,30.5-12.3,50.2-12.3h30.9V278h-16
			c-8.7,0-16.6,0.7-24,2c-7.3,1.3-13.6,3.7-18.7,7c-5.2,3.3-9.2,7.9-12.2,13.7c-3,5.8-4.5,13.4-4.5,22.7c0,10.3,1.8,14.7,5.5,20.4
			c3.7,5.7,8.4,9.7,14.2,12.2c5.8,2.5,12.1,4,19,4.5c6.8,0.5,13.4,0.7,19.7,0.7h163.8v78.4h-167.3
			C1394.1,439.7,1381.3,438.5,1367.3,436.2"/>
	</g>
	<polygon points="1392.9,200.2 1505.9,200.2 1505.9,168.3 1369.2,168.3 1369.2,89.9 1572.1,89.9 1572.4,277.3 1392.9,278.6 	"/>
	<g>
		<path d="M1333.5,49l-0.4,78.9l-87.8-0.6l-0.4,53.4c12.3-0.3,24.2,0.7,35.7,3c11.5,2.2,21.7,6.1,30.9,11.7
			c9.1,5.6,16.8,12.8,23.1,21.9c6.3,9,10.3,20.2,12.2,33.5l56.4,0.4l0-201.7L1333.5,49z"/>
	</g>
</g>
<g id="T">
	<text transform="matrix(1 0 0 1 930.7921 439.2824)" style="font-family:'SHBDA23V1'; font-size:489px;">T</text>
</g>
<g id="N_00000127748963548567887910000006918738376549339794_">
	<g>
		<path d="M674,439.9h-72V90h76.4l146,234.7h1V90h72v349.9h-76.9L675,205.6h-1V439.9z"/>
	</g>
</g>
<g id="I">
	<g>
		<path d="M535.3,439.7h-76.9V90.1h76.9V439.7z"/>
	</g>
</g>
<g id="A1">
	<path class="st0" d="M149.6,89.8h178.9v64h-13.4v117.8h0.2v64H149.6v-64h111.7V153.7H149.6V89.8z"/>
	<path d="M264.7,148.5h64v237.2h29.7v53.8h-93.7V148.5z"/>
	<path class="st0" d="M200.3,209.7c-14.2,23.3-26,48.1-35.5,74.5c-9.5,26.3-16.8,53-22,79.9c-5.2,27-7.9,52.1-8.2,75.5h-76
		c4-52.3,16.2-102.6,36.7-150.9c20.5-48.3,47.4-92.6,80.7-132.9H10.1v-66H249v61C230.6,166.7,214.4,186.4,200.3,209.7z"/>
</g>
<g id="M">
	<path d="M-421,243.4l41.8-154.1l78,0.5l56.9,238.8l1,0l60.8-238l76.5,0.5l-39.4,108.7l-1,0l-61.3,241l-72.1-0.4l-59.4-238.8l-1,0
		l-10,41.6L-421,243.4z"/>
	<path d="M-478,144.1l154-0.1l0.1,77l-89.8,0.1l0.4,218.8l-199.4,0.1l-0.1-77l134.4-0.1L-478,144.1z"/>
	<path d="M-70.8,90.7l0.2,284.7l60.3,0l0,64.8l-137.4,0.1l-0.2-349.5L-70.8,90.7z"/>
	<rect x="1444" y="8106.1" class="st1" width="151" height="77"/>
	<rect x="1533.5" y="7887.1" class="st1" width="61.4" height="77"/>
	<rect x="1244.2" y="7887.5" class="st1" width="135.3" height="77"/>
	<polygon class="st1" points="1436.3,7989.1 1421.5,8040.7 1420.5,8040.7 1362.9,7835.3 1287,7835.3 1381.6,8187.1 1458.5,8187.1 
		1507.2,7989.1 	"/>
	<rect x="1847" y="8121.5" class="st1" width="110.7" height="64.8"/>
</g>
<g id="R">
	<g>
		<path d="M-976.1,440.4h-96.5v-56.1h30.6V136.8h65.9V440.4z"/>
	</g>
	<g>
		<path d="M-773,319.1V531h-55.4V385h-244.1v-65.9H-773z"/>
	</g>
	<g>
		<path d="M-1041.9,91.1c21.8,0,42.2,3.4,61,10.1c18.9,6.7,35.3,16.4,49.3,28.9c14,12.6,25,28,32.9,46.4c8,18.3,12,38.9,12,61.9
			c0,18.5-2.8,35.4-8.4,50.8c-5.6,15.4-13.7,28.8-24.3,40.3c-10.6,11.5-23.5,20.7-38.6,27.7c-15.1,7-32,11.3-50.8,13v-63.8
			c20.1-2.5,36.4-9.4,48.7-20.8c12.3-11.3,18.5-27.1,18.5-47.2c0-14.8-2.9-27.4-8.6-37.8c-5.7-10.3-13.4-18.7-22.9-25.2
			c-9.5-6.4-20.2-11.1-32.1-14.1c-11.9-2.9-24.1-4.4-36.7-4.4"/>
	</g>
</g>
<g id="O_00000083778567647030904660000008843847121500168630_">
	<g>
		<path d="M-1430.9,265.8c0-103.1,63.7-183.3,170.6-183.3c106.9,0,170.6,80.2,170.6,183.3c0,100.1-63.7,180.3-170.6,180.3
			C-1367.2,446.2-1430.9,365.9-1430.9,265.8z M-1354.6,265.8c0,57.8,25.8,116.2,94.3,116.2c68.5,0,94.3-58.3,94.3-116.2
			c0-60.8-25.8-119.1-94.3-119.1C-1328.8,146.7-1354.6,205.1-1354.6,265.8z"/>
	</g>
</g>
<g id="F">
	<path d="M-1615,439.3c0-18,2.9-33.5,10.7-46.7c6.8-12.2,16.5-23.3,28.2-31.1c11.7-7.8,25.3-13.6,39.9-17.5
		c14.6-3.9,30.1-5.8,70-5.8V257c-52,0-76.3,3.9-99.7,12.2c-23.3,8.8-44.2,19.9-61.7,36c-17.5,16.5-31.1,35-41.3,57.4
		c-9.7,22.8-14.1,48.6-14.1,76.8H-1615z"/>
	<polygon points="-1465.2,89.7 -1567.8,89.7 -1567.8,369.7 -1513.3,369.7 -1513.3,154.4 -1465.2,154.4 	"/>
	<polygon points="-1645.1,439.1 -1513.4,439.1 -1513.4,159.1 -1567.8,159.1 -1567.8,374.5 -1645.1,374.5 	"/>
</g>
<g id="N">
	<path d="M-2084.3,286.1l9.7,41.7h1l60.8-238.2h72l59.8,241.1h1l57.3-241.1h75.5l-94.1,349.9h-76.4l-59.3-238.2h-1l-58.3,238.2
		h-77.9l-40.8-154.2L-2084.3,286.1z"/>
</g>
<g id="E">
	<path d="M3213.6,440.1h-265V90.9h261.1v64.5h-184.4v74.8h169.2V290h-169.2v85.6h188.3V440.1z"/>
</g>
<g id="P">
	<polygon points="-2495.6,90 -2572.3,90 -2572.3,266.8 -2698.3,266.8 -2698.3,331.3 -2495.6,331.3 	"/>
	<polygon points="-2698.4,331 -2621.7,331 -2621.7,154.2 -2495.7,154.2 -2495.7,89.8 -2698.4,89.8 	"/>
	<path d="M-2738.2,447.7c104,0,116.2-73.3,116.2-118.2V207.9h-76.7c0,97.7,0,118.2,0,118.2c0,24.9,0,57.1-40.5,57.1
		c-36.1,0-44.4-24.4-44.4-58.1v-15.6h-69.4v30.3C-2853,416-2796.3,447.7-2738.2,447.7z"/>
</g>
<g id="O">
	<g>
		<path d="M-3200.2,187.1c-4.4-7-9.8-13.1-16.3-18.4c-6.5-5.3-13.9-9.4-22.1-12.4c-8.2-3-16.9-4.4-25.9-4.4c-16.5,0-30.5,3.2-42,9.6
			c-11.5,6.4-20.8,14.9-28,25.6c-7.2,10.7-12.4,22.9-15.6,36.6c-3.3,13.7-4.9,27.8-4.9,42.4c0,14,1.6,27.6,4.9,40.8
			c3.3,13.2,8.5,25.1,15.6,35.7c7.1,10.6,16.5,19,28,25.4c11.5,6.4,25.5,9.6,42,9.6c22.4,0,39.9-6.8,52.5-20.5
			c12.6-13.7,20.3-31.7,23.1-54.1h70.9c-1.9,20.8-6.7,39.6-14.5,56.4c-7.8,16.8-18,31.1-30.8,42.9c-12.8,11.8-27.7,20.8-44.8,27
			c-17.1,6.2-35.9,9.3-56.4,9.3c-25.5,0-48.4-4.4-68.8-13.3c-20.4-8.9-37.5-21.1-51.5-36.6c-14-15.5-24.7-33.8-32.2-54.8
			c-7.5-21-11.2-43.6-11.2-67.8c0-24.9,3.7-47.9,11.2-69.2c7.5-21.3,18.2-39.9,32.2-55.7c14-15.9,32.3-28.3,52.7-37.3
			c20.4-9,42.1-13.5,67.6-13.5c18.3,0,35.7,2.6,52,7.9c16.3,5.3,30.9,13,43.8,23.1c12.9,10.1,23.5,22.6,31.9,37.5
			c8.4,14.9,13.7,32,15.9,51.3h-70.9C-3193,201.8-3195.8,194.1-3200.2,187.1z"/>
	</g>
	<g>
		<path d="M-3117.3,210.3h-70.9c2.2-19.3,7.5-36.4,15.9-51.3c8.4-14.9,19-27.4,31.9-37.5c12.9-10.1,27.5-17.8,43.8-23.1
			c16.3-5.3,33.7-7.9,52-7.9c25.5,0,47.3,4.5,67.6,13.5c20.4,9,38.7,21.4,52.7,37.3c14,15.9,24.7,34.4,32.2,55.7
			c7.5,21.3,11.2,44.4,11.2,69.2c0,24.2-3.7,46.9-11.2,67.8c-7.5,21-18.2,39.2-32.2,54.8c-14,15.5-31.2,27.7-51.5,36.6
			c-20.4,8.9-43.3,13.3-68.8,13.3c-20.5,0-39.3-3.1-56.4-9.3c-17.1-6.2-32-15.2-44.8-27c-12.7-11.8-23-26.1-30.8-42.9
			c-7.8-16.8-12.6-35.6-14.5-56.4h70.9c2.8,22.4,10.5,40.4,23.1,54.1c12.6,13.7,30.1,20.5,52.5,20.5c16.5,0,30.5-3.2,42-9.6
			c11.5-6.4,20.8-14.8,28-25.4c7.2-10.6,12.4-22.5,15.6-35.7c3.3-13.2,4.9-26.8,4.9-40.8c0-14.6-1.6-28.7-4.9-42.4
			c-3.3-13.7-8.5-25.9-15.6-36.6c-7.1-10.7-16.5-19.3-28-25.6c-11.5-6.4-25.5-9.6-42-9.6c-9,0-17.6,1.5-25.9,4.4
			c-8.2,3-15.6,7.1-22.1,12.4c-6.5,5.3-12,11.4-16.3,18.4C-3113.3,194.2-3116.1,201.9-3117.3,210.3z"/>
	</g>
</g>
<g id="Hilfslinien">
	<rect x="-3442.6" y="-505.8" style="fill:none;" width="7398.2" height="466.4"/>
	<text transform="matrix(1 0 0 1 -3442.613 -156.6477)"><tspan x="0" y="0" style="font-family:'SHBDA23V1'; font-size:489px;">OPEN</tspan><tspan x="1707.6" y="0" style="font-family:'SHBDA23V1'; font-size:489px; letter-spacing:-95;"> </tspan><tspan x="1748.2" y="0" style="font-family:'SHBDA23V1'; font-size:489px;">FOR MAINTENANCE</tspan></text>
</g>
</svg>
