<?xml version="1.0" encoding="utf-8"?>
<!-- Generator: Adobe Illustrator 27.0.1, SVG Export Plug-In . SVG Version: 6.00 Build 0)  -->
<svg version="1.1" xmlns="http://www.w3.org/2000/svg" xmlns:xlink="http://www.w3.org/1999/xlink" x="0px" y="0px"
	 viewBox="0 0 800 800" style="enable-background:new 0 0 800 800;" xml:space="preserve">
<style type="text/css">
	.st0{display:none;}
	.st1{fill:#010202;}
	.st2{display:inline;fill:#010202;}
	.st3{display:inline;}
	.st4{display:none;fill:#010202;}
</style>
<g id="A1" class="st0">
	<path d="M366.3,228.8h175.6v62.8h-13.2v115.6h0.2V470H366.3v-62.8h109.6V291.6H366.3V228.8z"/>
	<path d="M479.3,286.5h62.8v232.8h29.2v52.8h-92V286.5z"/>
	<path d="M416,346.5c-13.9,22.9-25.5,47.2-34.8,73.1c-9.3,25.8-16.5,52-21.6,78.5c-5.1,26.5-7.8,51.2-8.1,74.1H277
		c3.9-51.3,15.9-100.7,36-148.1c20.1-47.4,46.5-90.9,79.2-130.5H229.4v-64.7h234.4v59.8C445.8,304.3,429.9,323.6,416,346.5z"/>
	<rect x="540.8" y="228.8" class="st1" width="110" height="62.8"/>
	<polygon class="st1" points="542.1,290.3 528.1,290.3 528.1,470 651.7,470 651.7,407.2 542.1,407.2 	"/>
	<rect x="571.2" y="519.3" class="st2" width="109.8" height="52.8"/>
</g>
<g id="M">
	<g class="st0">
		<path class="st3" d="M278.1,380.8l41.3-152.3l77.1,0.5l56.2,236l1,0l60.1-235.2l75.6,0.5l-39,107.4l-1,0l-60.6,238.2l-71.3-0.4
			l-58.7-236l-1,0l-9.8,41.2L278.1,380.8z"/>
	</g>
	<g class="st0">
		<path class="st3" d="M221.9,280l152.2-0.1l0.1,76.1l-88.7,0.1l0.4,216.2l-197.1,0.1l-0.1-76.1l132.8-0.1L221.9,280z"/>
	</g>
	<g class="st0">
		<path class="st3" d="M624.3,229.9l0.2,281.4l59.6,0l0,64l-135.7,0.1L548.1,230L624.3,229.9z"/>
	</g>
	<rect x="285.7" y="496.1" class="st4" width="149.2" height="76.1"/>
	<rect x="374.1" y="279.6" class="st4" width="60.6" height="76.1"/>
	<rect x="88.3" y="280" class="st4" width="133.7" height="76.1"/>
	<g>
		<polygon class="st1" points="278.1,380.4 263.5,431.4 262.5,431.4 205.6,228.4 130.6,228.4 224.1,576.1 300,576.1 348.2,380.4 		
			"/>
	</g>
	<rect x="684" y="511.2" class="st4" width="109.4" height="64"/>
</g>
</svg>
