<?xml version="1.0" encoding="utf-8"?>
<!-- Generator: Adobe Illustrator 27.0.1, SVG Export Plug-In . SVG Version: 6.00 Build 0)  -->
<svg version="1.1" xmlns="http://www.w3.org/2000/svg" xmlns:xlink="http://www.w3.org/1999/xlink" x="0px" y="0px"
	 viewBox="0 0 337.2 593" style="enable-background:new 0 0 337.2 593;" xml:space="preserve">
<style type="text/css">
	.st0{fill:none;}
	.st1{fill:#E30613;}
	.st2{font-family:'SH-Maintenance-V2';}
	.st3{font-size:489px;}
	.st4{letter-spacing:-19;}
	.st5{letter-spacing:-29;}
	.st6{letter-spacing:-9;}
	.st7{letter-spacing:9;}
	.st8{letter-spacing:-39;}
	.st9{display:none;}
	.st10{display:inline;}
</style>
<g id="_x5F_V1">
	<g id="E_00000051360959627468142820000017544460044616440767_">
	</g>
	<g id="C">
	</g>
	<g id="N_x5F_3">
	</g>
	<g id="A">
	</g>
	<g id="N_00000054254949360326627830000005329152182886584764_">
	</g>
	<g id="e">
	</g>
	<g id="T">
	</g>
	<g id="N_00000127748963548567887910000006918738376549339794_">
	</g>
	<g id="I">
	</g>
	<g id="A1">
	</g>
	<g id="M">
	</g>
	<g id="R">
	</g>
	<g id="O_00000083778567647030904660000008843847121500168630_">
	</g>
	<g id="F">
	</g>
	<g id="N">
	</g>
	<g id="E">
	</g>
	<g id="P">
	</g>
	<g id="O">
	</g>
</g>
<g id="Ebene_20">
	<text transform="matrix(1 0 0 1 -4963.8291 1054.6337)"><tspan x="0" y="0" class="st1 st2 st4" style="font-size:490px;">M</tspan><tspan x="604.7" y="0" class="st1 st2" style="font-size:490px;">A</tspan><tspan x="965.8" y="0" class="st1 st2 st4" style="font-size:490px;">I</tspan><tspan x="1090.7" y="0" class="st1 st2" style="font-size:490px;">NTENANCE</tspan></text>
	<rect x="-8002.2" y="709.6" class="st0" width="1722.6" height="412.6"/>
	<text transform="matrix(1 0 0 1 -8002.2412 1059.489)"><tspan x="0" y="0" class="st1 st2" style="font-size:490px;">OPEN</tspan><tspan x="1660.1" y="0" class="st1 st2 st6" style="font-size:485px;"> </tspan></text>
	<text transform="matrix(1 0 0 1 -6166.2456 1069.1068)"><tspan x="0" y="0" class="st1 st2 st4" style="font-size:490px;">F</tspan><tspan x="252.8" y="0" class="st1 st2" style="font-size:490px;">O</tspan><tspan x="634.1" y="0" class="st1 st2" style="font-size:490px; letter-spacing:-167;"> </tspan><tspan x="602.7" y="0" class="st1 st2" style="font-size:490px;">R</tspan></text>
</g>
<g id="Hilfslinien">
	<rect x="-711.7" y="682.7" class="st0" width="7398.2" height="466.4"/>
	<text transform="matrix(1 0 0 1 -711.6775 1031.8804)"><tspan x="0" y="0" class="st1 st2 st3 st4">WE</tspan><tspan x="739.4" y="0" class="st1 st2 st3 st5">G</tspan><tspan x="1081.2" y="0" class="st1 st2 st3 st6">E</tspan><tspan x="1468.4" y="0" class="st1 st2 st3">N </tspan><tspan x="1939.8" y="0" class="st1 st2 st3 st7">U</tspan><tspan x="2312" y="0" class="st1 st2 st3 st6">M</tspan><tspan x="2736.9" y="0" class="st1 st2 st3">B</tspan><tspan x="3081.2" y="0" class="st1 st2 st3 st4">A</tspan><tspan x="3439.1" y="0" class="st1 st2 st3">U </tspan><tspan x="3910" y="0" class="st1 st2 st3 st5">G</tspan><tspan x="4268.4" y="0" class="st1 st2 st3">E</tspan><tspan x="4585.3" y="0" class="st1 st2 st3 st8">Ö</tspan><tspan x="4926.6" y="0" class="st1 st2 st3">FFNET</tspan></text>
</g>
<g id="T_00000151528559115874515910000005984389023753216649_">
	<path d="M5241.7,452.2V102.4h76.9v349.8H5241.7z"/>
	<path d="M5172.1,102.4h146.5c94.6,0,140.6,55.9,140.6,149.4h-64.7c0-54.9-23.5-72.5-75.9-72.5h-146.5V102.4z"/>
</g>
<g id="E_00000150082740960534394650000001756674408269680310_">
	<path d="M5052.9,452.1V156.4h-63.8v295.6H5052.9z"/>
	<path d="M4930.6,353.3h140.9c0,0,13.3-74.6,23.6-132.1h-61.9l-11.8,74.6h-90.8V353.3z"/>
	<path d="M4989.1,452.1H5130c0,0,13.3-74.6,23.6-132.1h-61.9l-11.8,74.6h-90.8V452.1z"/>
	<path d="M5084.3,186.3h60.9c-7.9-43.7-15.2-84.5-15.2-84.5h-140.9v57.5h90.8L5084.3,186.3z"/>
</g>
<g id="N_00000099632580371903072950000016892054108610634910_">
	<path d="M4812.9,451.9l93.9-349.3h-69l-60.2,237.7h-1l-56.3-237.7h-77.3l-41.6,152.6h70.4l9.8-41.6h1l58.7,237.7L4812.9,451.9z"/>
	<rect x="4595.7" y="102.6" width="76.8" height="349.3"/>
</g>
<g id="F_00000114769032895886322120000014247326199313495697_">
	<path d="M4403.4,451.9h-76.8V102.7h245.5v64.5h-168.7V248h146.2v59.7h-146.2V451.9z"/>
</g>
<g id="F_00000173141720675959051990000004486108456543280518_">
	<path d="M4117.1,451.6h132.8V169.3H4195v217.1h-77.9V451.6z"/>
	<path d="M4149.1,451.7c0-18,2.9-33.6,10.7-46.8c6.8-12.2,16.6-23.4,28.3-31.2c11.7-7.8,25.4-13.7,40-17.6
		c14.6-3.9,30.2-5.9,70.2-5.9v-81.4c-52.2,0-76.6,3.9-100,12.2c-23.4,8.8-44.4,20-61.9,36.1c-17.6,16.6-31.2,35.1-41.4,57.5
		c-9.8,22.9-14.1,48.8-14.1,77H4149.1z"/>
	<polygon points="4298.4,100.7 4195,100.7 4195,383 4249.9,383 4249.9,165.8 4298.4,165.8 	"/>
</g>
<g id="Ö">
	<path d="M3735.1,278.8c0-103.7,64.1-184.4,171.6-184.4c107.6,0,171.6,80.7,171.6,184.4c0,100.7-64.1,181.4-171.6,181.4
		C3799.2,460.2,3735.1,379.5,3735.1,278.8z M3811.9,278.8c0,58.2,25.9,116.9,94.9,116.9c68.9,0,94.9-58.7,94.9-116.9
		c0-61.1-25.9-119.8-94.9-119.8C3837.8,159,3811.9,217.6,3811.9,278.8z M3873.5,248.9v-57.2h66v57.2H3873.5z M3873.5,336v-57.2h66
		V336H3873.5z"/>
</g>
<g id="E_00000056408675155028286430000005814045595369560991_">
	<path d="M3706.1,452.2h-265V103.1h261.1v64.5h-184.4v74.8H3687v59.7h-169.2v85.6h188.3V452.2z"/>
</g>
<g id="G_00000142136150640176763200000005464168929300255362_">
	<path d="M3063.7,368h76.4V178.8l98-1.5l-1.5-75h-174L3063.7,368z M3063.7,452.2l267.6-0.5v-63.2l-190.1,1l-1-98l-75,1.5
		L3063.7,452.2z M3231.3,451.8h101c10.8-7.4,23-15.2,33.8-22.5c11.8-8.3,21.1-17.2,30.9-26.5c8.3-8.3,15.2-18.6,21.6-32.3
		c4.4-11.8,8.3-26,8.3-42.6c0-16.7-3.9-30.9-9.3-44.6c-6.4-12.7-14.7-23.5-25.5-32.3c-10.8-8.8-23-16.2-36.8-21.1
		c-13.2-4.9-28.9-6.9-43.1-6.9c-20.6,0-37.7,3.4-53.9,10.8c-15.2,6.4-28.9,16.2-37.7,27.9c-10.8,12.7-18.1,27-23,43.1
		c-5.9,17.2-8.3,35.3-6.9,53.9h64.2c0-9.8,1.5-17.6,3.4-27.4c1.5-9.3,3.4-16.7,8.8-25c2.9-7.4,9.3-13.2,16.2-17.6
		c6.4-5.4,14.7-7.4,25.5-7.4c14.2,0,26,4.9,35.8,14.7c9.3,7.8,14.2,21.1,14.2,36.8c0,10.3-2.5,20.1-6.9,27
		c-5.4,8.3-10.8,15.7-17.2,21.6c-6.9,7.4-15.2,12.3-22.5,18.1c-8.3,4.9-16.7,10.8-24,15.7C3274.4,423.8,3244.1,443.4,3231.3,451.8z"
		/>
</g>
<g id="U_00000122691519521168774280000013841469757125651126_">
	<path d="M2909,463.6c-102.4-1.5-114.8-74.7-114.8-119.8v-242h77.7v238.5c0,24.3,0,55.9,37.1,57.9V463.6z"/>
	<path d="M2630.9,101.9h77.7v238.5c0,25.2,0,57.9,41.1,57.9c36.6,0,45-24.7,45-58.9v-15.8h70.3v30.7c0,77.2-57.4,109.4-116.3,109.4
		c-105.4,0-117.8-74.2-117.8-119.8V101.9z"/>
</g>
<g id="A_00000004505667569094896160000014532079075801900974_">
	<path d="M2475.4,203.9l-3,70.3l30,6.9v1l-247.3,61v75.2l121.9,33.4l15.2-61l-22.1-9.3v-1l244.4-61v-78.2L2475.4,203.9z"/>
	<polygon points="2299.9,430.6 2377.6,451.7 2383.5,451.7 2442,212.8 2443,212.8 2502.5,451.7 2579.2,451.7 2614.6,319.5 
		2546.2,317.5 2540.3,342.6 2539.3,342.6 2479.3,101.1 2407.1,101.1 2346.1,339.6 2345.1,339.6 	"/>
</g>
<g id="B">
	<path d="M1936.5,452.2V103.1h164.3c66.5,0,111.5,21.5,111.5,86.6c0,34.7-16.6,57.7-47.4,72.9c43,12.2,64.1,45,64.1,88.5
		c0,70.9-60.1,101.2-123.2,101.2H1936.5z M2085.2,162.8h-71.9v81.7h77.8c27.4,0,46.9-12.2,46.9-41.6
		C2138,170.1,2112.5,162.8,2085.2,162.8z M2013.3,392.6h82.2c29.8,0,56.7-9.8,56.7-46c0-35.7-22-49.9-55.3-49.9h-83.6V392.6z"/>
</g>
<g id="M_00000134250281029563310950000003257287664879667615_">
	<path d="M1679.3,335.1h75.5c-12.8-20.6-144.7-232.9-144.7-232.9h-77v350.1h72.1V217.4h1C1606.2,217.4,1643,276.2,1679.3,335.1z"/>
	<path d="M1755.3,335.1c36.3-58.8,73.1-117.7,73.1-117.7h1v234.9h72.1V102.1h-77c0,0-131.9,212.3-144.7,232.9H1755.3z"/>
</g>
<g id="U">
	<path d="M1483.3,452.2H1236v-64.6h170.4v-285h76.9V452.2z M1189,452.2V102.6h76.9v285h170.4v64.6H1189z"/>
</g>
<g id="N_00000154425763484525918430000008508601231558086807_">
	<path d="M938.5,452.2l93.9-349.3h-69l-60.2,237.7h-1L846,103h-77.3l-41.6,152.6h70.4l9.8-41.6h1l58.7,237.7L938.5,452.2z"/>
	<rect x="721.3" y="103" width="76.8" height="349.3"/>
</g>
<g id="E_00000165205204584183719570000002201050886193303485_">
	<path d="M407.5,281.2h-64.3c0-107.2,80.4-171.1,180.8-171.1v76.5C465.9,186.6,407.5,212.5,407.5,281.2z"/>
	<path d="M515.4,381.1c0-68.7-58.5-94.5-116.5-94.5V210c100.4,0,180.8,63.8,180.8,171.1H515.4z"/>
	<polygon points="692.3,373.8 692.3,452.2 521.3,452.2 516.4,373.8 	"/>
	<path d="M407.5,281.2c0,68.7,58.5,94.5,116.5,94.5v76.5c-100.4,0-180.8-63.8-180.8-171.1H407.5z"/>
	<path d="M373.1,86.7V4.4c26.8,0,53.1,4.9,76.5,12.7c23.4,8.8,43.4,20,60.9,36.1s31.2,34.6,40.9,57.5c10.2,22.9,15.1,49.2,15.1,76.5
		h-69.2c0-18-3.4-32.7-10.2-45.8c-7.3-13.2-16.6-23.4-28.3-32.2c-11.7-7.8-25.8-13.6-40-18C403.3,87.7,388.7,86.7,373.1,86.7z"/>
</g>
<g id="G">
	<path d="M327.4,452.8h-48.9l-7.8-39.6c-27.4,35.2-62.1,47.9-95.8,47.9C67.3,461.1,3.2,380.5,3.2,279.7
		c0-103.7,64.1-184.4,171.6-184.4c71.4,0,139.4,43.5,147.2,123.2h-73.4c-9.3-39.1-37.2-58.7-73.8-58.7c-68.9,0-94.9,58.7-94.9,119.8
		c0,58.2,25.9,116.9,94.9,116.9c50.4,0,78.7-26.4,83.1-75.3h-77.3v-57.2h146.7V452.8z"/>
</g>
<g id="E_00000005963599347184841430000018193220976272044449_">
	<path d="M-12.3,452.2h-265V103.1h261.1v64.5h-184.4v74.8h169.2v59.7h-169.2v85.6h188.3V452.2z"/>
</g>
<g id="W">
	<path d="M-543.7,219.2C-580,278.1-616.8,337-616.8,337h-1V102h-72.1v350.3h77c0,0,132-212.4,144.7-233H-543.7z M-467.7,219.2h-75.5
		c12.8,20.6,144.7,233,144.7,233h77V102h-72.1v235h-1C-394.6,337-431.4,278.1-467.7,219.2z"/>
</g>
<g id="E_00000113322483045279252990000013609696148037364875_" class="st9">
	<path class="st10" d="M-1472.7,279.7h-64.9c0-108.1,81.1-172.5,182.4-172.5v77.2C-1413.7,184.4-1472.7,210.4-1472.7,279.7z"/>
	<path class="st10" d="M-1361.2,380.5c0-69.3-59-95.4-117.5-95.4V208c101.3,0,182.4,64.4,182.4,172.5H-1361.2z"/>
	<polygon class="st10" points="-1182.7,373.1 -1182.7,452.2 -1355.3,452.2 -1360.2,373.1 	"/>
	<path class="st10" d="M-1472.7,279.7c0,69.3,59,95.4,117.5,95.4v77.2c-101.3,0-182.4-64.4-182.4-172.5H-1472.7z"/>
	<path class="st10" d="M-1504.7,83.6V0.5c27,0,53.6,4.9,77.2,12.8c23.6,8.8,43.7,20.2,61.4,36.4c17.7,16.2,31.5,34.9,41.3,58
		c10.3,23.1,15.2,49.6,15.2,77.2h-69.8c0-18.2-3.4-32.9-10.3-46.2c-7.4-13.3-16.7-23.6-28.5-32.4c-11.8-7.9-26.1-13.8-40.3-18.2
		C-1474.2,84.6-1488.9,83.6-1504.7,83.6z"/>
</g>
<g id="C_00000112622374827432275670000003417328206733987971_" class="st9">
	<path class="st10" d="M-1566.9,219.4h-74.5c-5.4-34.8-38.7-61.3-76.4-61.3c-69.1,0-95.1,58.8-95.1,120.1
		c0,58.3,26,117.1,95.1,117.1c47,0,73.5-31.9,79.4-78.4h74.5c-7.8,87.7-67.6,143.1-153.9,143.1c-107.8,0-172-80.9-172-181.8
		c0-103.9,64.2-184.7,172-184.7C-1641.4,93.4-1576.2,138.5-1566.9,219.4z"/>
</g>
<g id="N_00000117657359395406629260000008490405748572120458_" class="st9">
	<path class="st10" d="M-2202.1,452.2h76.9V102.6h-76.9V452.2z"/>
	<polygon class="st10" points="-1984.2,452.2 -1890.7,102.6 -1959.3,102.6 -2019.5,340.6 -2020.5,340.6 -2076.8,102.6 
		-2154.1,102.6 -2195.8,255.4 -2125.2,255.4 -2115.5,213.8 -2114.5,213.8 -2055.2,452.2 	"/>
</g>
<g id="A_00000070819818803741320060000005539798163125646774_" class="st9">
	<path class="st10" d="M-2384.4,203.9l-3,70.3l30,6.9v1l-247.3,61v75.2l121.9,33.4l15.2-61l-22.1-9.3v-1l244.4-61v-78.2
		L-2384.4,203.9z"/>
	<polygon class="st10" points="-2559.9,430.6 -2482.2,451.7 -2476.3,451.7 -2417.8,212.8 -2416.8,212.8 -2357.3,451.7 
		-2280.6,451.7 -2245.2,319.5 -2313.5,317.5 -2319.4,337.4 -2320.4,337.4 -2380.4,101.1 -2452.7,101.1 -2513.7,339.6 -2514.7,339.6 
			"/>
</g>
<g id="N_00000129165096651451788460000006894638935768142516_" class="st9">
	<path class="st10" d="M-2860.6,452.2h-72V102.4h76.4l146,234.7h1V102.4h72v349.9h-76.9L-2859.6,218h-1V452.2z"/>
</g>
<g id="E_00000096737436898591806260000014476501128100374183_" class="st9">
	<path class="st10" d="M-3079.9,452.2V156.6h-63.8v295.6H-3079.9z"/>
	<path class="st10" d="M-3202.2,353.5h140.9c0,0,13.3-74.6,23.6-132.1h-61.9l-11.8,74.6h-90.8V353.5z"/>
	<path class="st10" d="M-3143.7,452.2h140.9c0,0,13.3-74.6,23.6-132.1h-61.9l-11.8,74.6h-90.8V452.2z"/>
	<path class="st10" d="M-3048.5,186.5h60.9c-7.9-43.7-15.2-84.5-15.2-84.5h-140.9v57.5h90.8L-3048.5,186.5z"/>
</g>
<g id="T_00000040572434587172107020000003403572265167091088_" class="st9">
	<path class="st10" d="M-3477,452.1h65.4V179.8h208.9V102H-3477V452.1z"/>
	<polygon class="st10" points="-3382.4,452.2 -3290.9,102 -3356.7,102 -3417.6,340.7 -3418.1,340.7 -3449.3,452.1 	"/>
</g>
<g id="N_00000162323512888102647520000008162614129556769983_" class="st9">
	<rect x="-3604.2" y="102.4" class="st10" width="76.8" height="349.2"/>
	<path class="st10" d="M-3869.3,451.6h77.8l92.9-263.1h1l90.5,263.1h79.7L-3658,102.4h-78.7L-3869.3,451.6z"/>
</g>
<g id="I_00000075868811598525912980000008971315367424001668_" class="st9">
	<text transform="matrix(1 0 0 1 -4012.5972 451.5694)" class="st10 st2 st4" style="font-size:490px;">I</text>
</g>
<g id="A_00000047767008426511249760000015642639169606536113_" class="st9">
	<polygon class="st10" points="-4106.8,451.6 -4013.1,451.6 -4013.1,398.1 -4043.1,398.1 -4043.1,161.6 -4106.8,161.6 	"/>
	<polygon class="st10" points="-4221.2,348.1 -4056.3,348.1 -4056.3,167 -4043.1,167 -4043.1,103.2 -4221.2,103.2 -4221.2,167 
		-4109.8,167 -4109.8,284.3 -4221.2,284.3 	"/>
	<path class="st10" d="M-4311.9,451.6h75.6c0.5-23.1,3.4-48.1,8.3-75.1c5.4-27,12.8-53.5,22.1-80c9.3-26,21.1-50.5,35.3-74.1
		c14.2-23.1,30.4-42.7,48.6-58.4v-60.8h-238V169h165.4c-33.4,40.2-60.4,84.4-80.5,132.5C-4295.7,349.6-4308,399.6-4311.9,451.6z"/>
</g>
<g id="M_00000030454837118209363920000004010763359709145015_" class="st9">
	<path class="st10" d="M-4671,158.9h-153.8l0.5,216.7h-133.3v76.6h197.7l-0.5-217.2h89.3V158.9z"/>
	<polygon class="st10" points="-4420.1,103.7 -4496.2,103.7 -4496.2,452.2 -4360,452.2 -4360,388.3 -4420.1,388.3 	"/>
	<polygon class="st10" points="-4649,103.7 -4726.1,103.7 -4767.6,256.5 -4697.3,256 -4687.1,215 -4686.1,215 -4627.5,452.2 
		-4556.2,452.2 -4495.2,213.1 -4494.3,213.1 -4454.7,103.7 -4530.4,103.7 -4591.4,341 -4592.4,341 	"/>
</g>
<g id="R_00000005247159732225481780000017538744411482086332_" class="st9">
	<path class="st10" d="M-5455.6,179.2v-77c45.1,0,119.2,12.3,119.2,116.7c0,58.4-31.9,115.2-108.4,115.2h-30.4v-69.6h15.7
		c33.8,0,58.4-8.3,58.4-44.6C-5401.2,179.2-5433.5,179.2-5455.6,179.2z"/>
	<polygon class="st10" points="-5529.2,452.3 -5529.2,102.2 -5452.2,102.2 -5452.2,452.2 	"/>
	<path class="st10" d="M-5340.9,592.6h-70.6c18.1-74,53.9-143.7,103-203h-162.8v-64.7h234.4v59.8
		C-5290.8,431.7-5325.7,515.1-5340.9,592.6z"/>
</g>
<g id="O_00000139989076900347810750000014339682335261473418_" class="st9">
	<g class="st10">
		<path d="M-5894.4,278.6c0-103.9,64.2-184.7,172-184.7s172,80.9,172,184.7c0,100.9-64.2,181.8-172,181.8
			S-5894.4,379.5-5894.4,278.6z M-5817.5,278.6c0,58.3,26,117.1,95.1,117.1s95.1-58.8,95.1-117.1c0-61.3-26-120.1-95.1-120.1
			S-5817.5,217.4-5817.5,278.6z"/>
	</g>
</g>
<g id="F_00000112611114215638550990000001535627271961867692_" class="st9">
	<path class="st10" d="M-6093.8,452.3h132.8V170h-54.9v217.1h-77.9V452.3z"/>
	<path class="st10" d="M-6061.8,452.5c0-18,2.9-33.6,10.7-46.8c6.8-12.2,16.6-23.4,28.3-31.2s25.4-13.7,40-17.6s30.2-5.9,70.2-5.9
		v-81.4c-52.2,0-76.6,3.9-100,12.2c-23.4,8.8-44.4,20-61.9,36.1c-17.6,16.6-31.2,35.1-41.4,57.5c-9.8,22.9-14.1,48.8-14.1,77
		H-6061.8z"/>
	<polygon class="st10" points="-5912.5,101.4 -6015.9,101.4 -6015.9,383.7 -5961,383.7 -5961,166.6 -5912.5,166.6 	"/>
</g>
<g id="N_00000099642370421911350830000011672063677233731245_" class="st9">
	<path class="st10" d="M-6664.3,298.6l9.7,41.7h1l60.8-238.2h72l59.8,241.1h1l57.3-241.1h75.5l-94.1,350h-76.5l-59.3-238.2h-1
		l-58.3,238.2h-77.9l-40.8-154.3L-6664.3,298.6z"/>
</g>
<g id="E_00000111172922047511655530000000589010560551726259_" class="st9">
	<path class="st10" d="M-6746.8,452h-265.6V102.1h261.7v64.7h-184.7v75h169.5v59.8h-169.5v85.8h188.7V452z"/>
</g>
<g id="P_00000129171892025599386490000003898456772564684721_" class="st9">
	<path class="st10" d="M-7299.9,461.2c104.6,0,116.8-73.6,116.8-118.8V220.2h-77.1c0,98.2,0,118.8,0,118.8c0,25,0,57.4-40.7,57.4
		c-36.3,0-44.7-24.5-44.7-58.4v-15.7h-69.7v30.4C-7415.3,429.3-7358.3,461.2-7299.9,461.2z"/>
	<polygon class="st10" points="-7260.2,344.9 -7183.1,344.9 -7183.1,167.1 -7056.4,167.1 -7056.4,102.3 -7260.2,102.3 	"/>
	<path class="st10" d="M-7056.4,112.3h-77.1v177.7h-126.7v64.8h203.7V112.3z"/>
</g>
<g id="O_00000039126086928192479570000000753659908774239892_" class="st9">
	<polygon class="st10" points="-7445.1,103 -7521.9,103 -7521.9,387.5 -7692.1,387.5 -7692.1,452.1 -7445.1,452.1 	"/>
	<polygon class="st10" points="-7520.9,103 -7874.4,103 -7874.4,349.9 -7805.5,349.9 -7805.5,179.7 -7520.9,179.7 	"/>
	<polygon class="st10" points="-7870,103 -7946.8,103 -7946.8,452.1 -7675.4,452.1 -7675.4,387.5 -7870,387.5 	"/>
</g>
</svg>
